<?xml version="1.0" encoding="utf-8" standalone="no"?>
<!DOCTYPE svg PUBLIC "-//W3C//DTD SVG 1.1//EN"
  "http://www.w3.org/Graphics/SVG/1.1/DTD/svg11.dtd">
<svg xmlns:xlink="http://www.w3.org/1999/xlink" width="566.789078pt" height="279.282188pt" viewBox="0 0 566.789078 279.282188" xmlns="http://www.w3.org/2000/svg" version="1.1">
 <metadata>
  <rdf:RDF xmlns:dc="http://purl.org/dc/elements/1.1/" xmlns:cc="http://creativecommons.org/ns#" xmlns:rdf="http://www.w3.org/1999/02/22-rdf-syntax-ns#">
   <cc:Work>
    <dc:type rdf:resource="http://purl.org/dc/dcmitype/StillImage"/>
    <dc:date>2026-06-30T18:51:22.194552</dc:date>
    <dc:format>image/svg+xml</dc:format>
    <dc:creator>
     <cc:Agent>
      <dc:title>Matplotlib v3.9.4, https://matplotlib.org/</dc:title>
     </cc:Agent>
    </dc:creator>
   </cc:Work>
  </rdf:RDF>
 </metadata>
 <defs>
  <style type="text/css">*{stroke-linejoin: round; stroke-linecap: butt}</style>
 </defs>
 <g id="figure_1">
  <g id="patch_1">
   <path d="M 0 279.282188 
L 566.789078 279.282188 
L 566.789078 0 
L 0 0 
z
" style="fill: #ffffff"/>
  </g>
  <g id="axes_1">
   <g id="patch_2">
    <path d="M 54.295938 240.758125 
L 544.736847 240.758125 
L 544.736847 22.318125 
L 54.295938 22.318125 
z
" style="fill: #ffffff"/>
   </g>
   <g id="matplotlib.axis_1">
    <g id="xtick_1">
     <g id="line2d_1">
      <defs>
       <path id="meff2e36fc1" d="M 0 0 
L 0 3.5 
" style="stroke: #000000; stroke-width: 0.8"/>
      </defs>
      <g>
       <use xlink:href="#meff2e36fc1" x="72.085116" y="240.758125" style="stroke: #000000; stroke-width: 0.8"/>
      </g>
     </g>
     <g id="text_1">
      <text style="font: 10px 'DejaVu Sans'; text-anchor: middle" x="72.085116" y="255.356563" transform="rotate(-0 72.085116 255.356563)">0</text>
     </g>
    </g>
    <g id="xtick_2">
     <g id="line2d_2">
      <g>
       <use xlink:href="#meff2e36fc1" x="162.156909" y="240.758125" style="stroke: #000000; stroke-width: 0.8"/>
      </g>
     </g>
     <g id="text_2">
      <text style="font: 10px 'DejaVu Sans'; text-anchor: middle" x="162.156909" y="255.356563" transform="rotate(-0 162.156909 255.356563)">20</text>
     </g>
    </g>
    <g id="xtick_3">
     <g id="line2d_3">
      <g>
       <use xlink:href="#meff2e36fc1" x="252.228701" y="240.758125" style="stroke: #000000; stroke-width: 0.8"/>
      </g>
     </g>
     <g id="text_3">
      <text style="font: 10px 'DejaVu Sans'; text-anchor: middle" x="252.228701" y="255.356563" transform="rotate(-0 252.228701 255.356563)">40</text>
     </g>
    </g>
    <g id="xtick_4">
     <g id="line2d_4">
      <g>
       <use xlink:href="#meff2e36fc1" x="342.300493" y="240.758125" style="stroke: #000000; stroke-width: 0.8"/>
      </g>
     </g>
     <g id="text_4">
      <text style="font: 10px 'DejaVu Sans'; text-anchor: middle" x="342.300493" y="255.356563" transform="rotate(-0 342.300493 255.356563)">60</text>
     </g>
    </g>
    <g id="xtick_5">
     <g id="line2d_5">
      <g>
       <use xlink:href="#meff2e36fc1" x="432.372286" y="240.758125" style="stroke: #000000; stroke-width: 0.8"/>
      </g>
     </g>
     <g id="text_5">
      <text style="font: 10px 'DejaVu Sans'; text-anchor: middle" x="432.372286" y="255.356563" transform="rotate(-0 432.372286 255.356563)">80</text>
     </g>
    </g>
    <g id="xtick_6">
     <g id="line2d_6">
      <g>
       <use xlink:href="#meff2e36fc1" x="522.444078" y="240.758125" style="stroke: #000000; stroke-width: 0.8"/>
      </g>
     </g>
     <g id="text_6">
      <text style="font: 10px 'DejaVu Sans'; text-anchor: middle" x="522.444078" y="255.356563" transform="rotate(-0 522.444078 255.356563)">100</text>
     </g>
    </g>
    <g id="text_7">
     <text style="font: 11px 'DejaVu Sans'; text-anchor: middle" x="299.516392" y="269.794531" transform="rotate(-0 299.516392 269.794531)">Epoch</text>
    </g>
   </g>
   <g id="matplotlib.axis_2">
    <g id="ytick_1">
     <g id="line2d_7">
      <path d="M 54.295938 222.195259 
L 544.736847 222.195259 
" clip-path="url(#pc54d765207)" style="fill: none; stroke-dasharray: 2.96,1.28; stroke-dashoffset: 0; stroke: #b0b0b0; stroke-opacity: 0.4; stroke-width: 0.8"/>
     </g>
     <g id="line2d_8">
      <defs>
       <path id="mecc2ed1dad" d="M 0 0 
L -3.5 0 
" style="stroke: #000000; stroke-width: 0.8"/>
      </defs>
      <g>
       <use xlink:href="#mecc2ed1dad" x="54.295938" y="222.195259" style="stroke: #000000; stroke-width: 0.8"/>
      </g>
     </g>
     <g id="text_8">
      <text style="font: 10px 'DejaVu Sans'; text-anchor: end" x="47.295938" y="225.994478" transform="rotate(-0 47.295938 225.994478)">400</text>
     </g>
    </g>
    <g id="ytick_2">
     <g id="line2d_9">
      <path d="M 54.295938 175.075337 
L 544.736847 175.075337 
" clip-path="url(#pc54d765207)" style="fill: none; stroke-dasharray: 2.96,1.28; stroke-dashoffset: 0; stroke: #b0b0b0; stroke-opacity: 0.4; stroke-width: 0.8"/>
     </g>
     <g id="line2d_10">
      <g>
       <use xlink:href="#mecc2ed1dad" x="54.295938" y="175.075337" style="stroke: #000000; stroke-width: 0.8"/>
      </g>
     </g>
     <g id="text_9">
      <text style="font: 10px 'DejaVu Sans'; text-anchor: end" x="47.295938" y="178.874556" transform="rotate(-0 47.295938 178.874556)">600</text>
     </g>
    </g>
    <g id="ytick_3">
     <g id="line2d_11">
      <path d="M 54.295938 127.955416 
L 544.736847 127.955416 
" clip-path="url(#pc54d765207)" style="fill: none; stroke-dasharray: 2.96,1.28; stroke-dashoffset: 0; stroke: #b0b0b0; stroke-opacity: 0.4; stroke-width: 0.8"/>
     </g>
     <g id="line2d_12">
      <g>
       <use xlink:href="#mecc2ed1dad" x="54.295938" y="127.955416" style="stroke: #000000; stroke-width: 0.8"/>
      </g>
     </g>
     <g id="text_10">
      <text style="font: 10px 'DejaVu Sans'; text-anchor: end" x="47.295938" y="131.754634" transform="rotate(-0 47.295938 131.754634)">800</text>
     </g>
    </g>
    <g id="ytick_4">
     <g id="line2d_13">
      <path d="M 54.295938 80.835494 
L 544.736847 80.835494 
" clip-path="url(#pc54d765207)" style="fill: none; stroke-dasharray: 2.96,1.28; stroke-dashoffset: 0; stroke: #b0b0b0; stroke-opacity: 0.4; stroke-width: 0.8"/>
     </g>
     <g id="line2d_14">
      <g>
       <use xlink:href="#mecc2ed1dad" x="54.295938" y="80.835494" style="stroke: #000000; stroke-width: 0.8"/>
      </g>
     </g>
     <g id="text_11">
      <text style="font: 10px 'DejaVu Sans'; text-anchor: end" x="47.295938" y="84.634713" transform="rotate(-0 47.295938 84.634713)">1000</text>
     </g>
    </g>
    <g id="ytick_5">
     <g id="line2d_15">
      <path d="M 54.295938 33.715572 
L 544.736847 33.715572 
" clip-path="url(#pc54d765207)" style="fill: none; stroke-dasharray: 2.96,1.28; stroke-dashoffset: 0; stroke: #b0b0b0; stroke-opacity: 0.4; stroke-width: 0.8"/>
     </g>
     <g id="line2d_16">
      <g>
       <use xlink:href="#mecc2ed1dad" x="54.295938" y="33.715572" style="stroke: #000000; stroke-width: 0.8"/>
      </g>
     </g>
     <g id="text_12">
      <text style="font: 10px 'DejaVu Sans'; text-anchor: end" x="47.295938" y="37.514791" transform="rotate(-0 47.295938 37.514791)">1200</text>
     </g>
    </g>
    <g id="text_13">
     <text style="font: 11px 'DejaVu Sans'; text-anchor: middle" x="15.558281" y="131.538125" transform="rotate(-90 15.558281 131.538125)">Loss</text>
    </g>
   </g>
   <g id="line2d_17">
    <path d="M 76.588706 32.247216 
L 81.092296 40.531855 
L 85.595885 48.548972 
L 90.099475 56.313262 
L 94.603065 63.842297 
L 99.106654 71.15365 
L 103.610244 78.262276 
L 108.113833 85.179419 
L 112.617423 91.913162 
L 117.121013 98.469946 
L 121.624602 104.852792 
L 126.128192 111.064402 
L 130.631781 117.106028 
L 135.135371 122.977497 
L 139.638961 128.676594 
L 144.14255 134.199769 
L 148.64614 139.541153 
L 153.14973 144.695326 
L 157.653319 149.65665 
L 162.156909 154.417577 
L 166.660498 158.970427 
L 171.164088 163.30745 
L 175.667678 167.421082 
L 180.171267 171.303888 
L 184.674857 174.949068 
L 189.178446 178.350551 
L 193.682036 181.50404 
L 198.185626 184.40742 
L 202.689215 187.060533 
L 207.192805 189.466297 
L 211.696395 191.630236 
L 216.199984 193.561696 
L 220.703574 195.273877 
L 225.207163 196.781224 
L 229.710753 198.102273 
L 234.214343 199.257069 
L 238.717932 200.267923 
L 243.221522 201.158043 
L 247.725111 201.950251 
L 252.228701 202.667677 
L 256.732291 203.331846 
L 261.23588 203.961375 
L 265.73947 204.573375 
L 270.24306 205.182117 
L 274.746649 205.797704 
L 279.250239 206.42678 
L 283.753828 207.073176 
L 288.257418 207.73836 
L 292.761008 208.421072 
L 297.264597 209.117877 
L 301.768187 209.824971 
L 306.271776 210.537716 
L 310.775366 211.252208 
L 315.278956 211.963752 
L 319.782545 212.668832 
L 324.286135 213.364954 
L 328.789725 214.049587 
L 333.293314 214.720335 
L 337.796904 215.375525 
L 342.300493 216.013171 
L 346.804083 216.631785 
L 351.307673 217.229563 
L 355.811262 217.805066 
L 360.314852 218.357339 
L 364.818441 218.885576 
L 369.322031 219.390705 
L 373.825621 219.874055 
L 378.32921 220.337662 
L 382.8328 220.784703 
L 387.33639 221.21868 
L 391.839979 221.642814 
L 396.343569 222.060275 
L 400.847158 222.473265 
L 405.350748 222.882372 
L 409.854338 223.286554 
L 414.357927 223.684567 
L 418.861517 224.074714 
L 423.365106 224.455334 
L 427.868696 224.825493 
L 432.372286 225.184314 
L 436.875875 225.531487 
L 441.379465 225.867753 
L 445.883055 226.19406 
L 450.386644 226.512064 
L 454.890234 226.823151 
L 459.393823 227.128687 
L 463.897413 227.42975 
L 468.401003 227.726278 
L 472.904592 228.017894 
L 477.408182 228.304154 
L 481.911771 228.584432 
L 486.415361 228.857958 
L 490.918951 229.124388 
L 495.42254 229.383779 
L 499.92613 229.636584 
L 504.42972 229.883522 
L 508.933309 230.125543 
L 513.436899 230.363436 
L 517.940488 230.597842 
L 522.444078 230.829034 
" clip-path="url(#pc54d765207)" style="fill: none; stroke: #2166ac; stroke-width: 2; stroke-linecap: square"/>
   </g>
   <g id="patch_3">
    <path d="M 54.295938 240.758125 
L 54.295938 22.318125 
" style="fill: none; stroke: #000000; stroke-width: 0.8; stroke-linejoin: miter; stroke-linecap: square"/>
   </g>
   <g id="patch_4">
    <path d="M 54.295938 240.758125 
L 544.736847 240.758125 
" style="fill: none; stroke: #000000; stroke-width: 0.8; stroke-linejoin: miter; stroke-linecap: square"/>
   </g>
   <g id="PathCollection_1">
    <defs>
     <path id="m77105bbd1b" d="M 0 2.738613 
C 0.726289 2.738613 1.422928 2.450055 1.936492 1.936492 
C 2.450055 1.422928 2.738613 0.726289 2.738613 0 
C 2.738613 -0.726289 2.450055 -1.422928 1.936492 -1.936492 
C 1.422928 -2.450055 0.726289 -2.738613 0 -2.738613 
C -0.726289 -2.738613 -1.422928 -2.450055 -1.936492 -1.936492 
C -2.450055 -1.422928 -2.738613 -0.726289 -2.738613 0 
C -2.738613 0.726289 -2.450055 1.422928 -1.936492 1.936492 
C -1.422928 2.450055 -0.726289 2.738613 0 2.738613 
z
" style="stroke: #ffffff; stroke-width: 0.8"/>
    </defs>
    <g clip-path="url(#pc54d765207)">
     <use xlink:href="#m77105bbd1b" x="76.588706" y="32.247216" style="fill: #2166ac; stroke: #ffffff; stroke-width: 0.8"/>
     <use xlink:href="#m77105bbd1b" x="99.106654" y="71.15365" style="fill: #2166ac; stroke: #ffffff; stroke-width: 0.8"/>
     <use xlink:href="#m77105bbd1b" x="121.624602" y="104.852792" style="fill: #2166ac; stroke: #ffffff; stroke-width: 0.8"/>
     <use xlink:href="#m77105bbd1b" x="144.14255" y="134.199769" style="fill: #2166ac; stroke: #ffffff; stroke-width: 0.8"/>
     <use xlink:href="#m77105bbd1b" x="166.660498" y="158.970427" style="fill: #2166ac; stroke: #ffffff; stroke-width: 0.8"/>
     <use xlink:href="#m77105bbd1b" x="189.178446" y="178.350551" style="fill: #2166ac; stroke: #ffffff; stroke-width: 0.8"/>
     <use xlink:href="#m77105bbd1b" x="211.696395" y="191.630236" style="fill: #2166ac; stroke: #ffffff; stroke-width: 0.8"/>
     <use xlink:href="#m77105bbd1b" x="234.214343" y="199.257069" style="fill: #2166ac; stroke: #ffffff; stroke-width: 0.8"/>
     <use xlink:href="#m77105bbd1b" x="256.732291" y="203.331846" style="fill: #2166ac; stroke: #ffffff; stroke-width: 0.8"/>
     <use xlink:href="#m77105bbd1b" x="279.250239" y="206.42678" style="fill: #2166ac; stroke: #ffffff; stroke-width: 0.8"/>
     <use xlink:href="#m77105bbd1b" x="301.768187" y="209.824971" style="fill: #2166ac; stroke: #ffffff; stroke-width: 0.8"/>
     <use xlink:href="#m77105bbd1b" x="324.286135" y="213.364954" style="fill: #2166ac; stroke: #ffffff; stroke-width: 0.8"/>
     <use xlink:href="#m77105bbd1b" x="346.804083" y="216.631785" style="fill: #2166ac; stroke: #ffffff; stroke-width: 0.8"/>
     <use xlink:href="#m77105bbd1b" x="369.322031" y="219.390705" style="fill: #2166ac; stroke: #ffffff; stroke-width: 0.8"/>
     <use xlink:href="#m77105bbd1b" x="391.839979" y="221.642814" style="fill: #2166ac; stroke: #ffffff; stroke-width: 0.8"/>
     <use xlink:href="#m77105bbd1b" x="414.357927" y="223.684567" style="fill: #2166ac; stroke: #ffffff; stroke-width: 0.8"/>
     <use xlink:href="#m77105bbd1b" x="436.875875" y="225.531487" style="fill: #2166ac; stroke: #ffffff; stroke-width: 0.8"/>
     <use xlink:href="#m77105bbd1b" x="459.393823" y="227.128687" style="fill: #2166ac; stroke: #ffffff; stroke-width: 0.8"/>
     <use xlink:href="#m77105bbd1b" x="481.911771" y="228.584432" style="fill: #2166ac; stroke: #ffffff; stroke-width: 0.8"/>
     <use xlink:href="#m77105bbd1b" x="504.42972" y="229.883522" style="fill: #2166ac; stroke: #ffffff; stroke-width: 0.8"/>
    </g>
   </g>
   <g id="patch_5">
    <path d="M 526.65304 232.938573 
Q 525.442552 232.331874 525.03168 232.125945 
" style="fill: none; stroke: #d7191c; stroke-width: 0.8; stroke-linecap: round"/>
    <path d="M 527.175554 234.990173 
L 525.03168 232.125945 
L 528.609387 232.129382 
" style="fill: none; stroke: #d7191c; stroke-width: 0.8; stroke-linecap: round"/>
   </g>
   <g id="text_14">
    <text style="fill: #d7191c; font: 8px 'DejaVu Sans'" transform="translate(530.444078 239.870784)">best</text>
    <text style="fill: #d7191c; font: 8px 'DejaVu Sans'" transform="translate(530.444078 248.829034)">(363.4)</text>
   </g>
   <g id="text_15">
    <text style="font: 700 12px 'DejaVu Sans'; text-anchor: middle" x="299.516392" y="16.318125" transform="rotate(-0 299.516392 16.318125)">Training loss — stgcn</text>
   </g>
   <g id="PathCollection_2">
    <defs>
     <path id="me9c6f259f1" d="M 0 5.477226 
C 1.452577 5.477226 2.845856 4.900111 3.872983 3.872983 
C 4.900111 2.845856 5.477226 1.452577 5.477226 0 
C 5.477226 -1.452577 4.900111 -2.845856 3.872983 -3.872983 
C 2.845856 -4.900111 1.452577 -5.477226 0 -5.477226 
C -1.452577 -5.477226 -2.845856 -4.900111 -3.872983 -3.872983 
C -4.900111 -2.845856 -5.477226 -1.452577 -5.477226 0 
C -5.477226 1.452577 -4.900111 2.845856 -3.872983 3.872983 
C -2.845856 4.900111 -1.452577 5.477226 0 5.477226 
z
" style="stroke: #ffffff; stroke-width: 1.2"/>
    </defs>
    <g clip-path="url(#pc54d765207)">
     <use xlink:href="#me9c6f259f1" x="522.444078" y="230.829034" style="fill: #d7191c; stroke: #ffffff; stroke-width: 1.2"/>
    </g>
   </g>
  </g>
 </g>
 <defs>
  <clipPath id="pc54d765207">
   <rect x="54.295938" y="22.318125" width="490.440909" height="218.44"/>
  </clipPath>
 </defs>
</svg>
