<?xml version="1.0" encoding="utf-8" standalone="no"?>
<!DOCTYPE svg PUBLIC "-//W3C//DTD SVG 1.1//EN"
  "http://www.w3.org/Graphics/SVG/1.1/DTD/svg11.dtd">
<svg xmlns:xlink="http://www.w3.org/1999/xlink" width="566.789078pt" height="279.282188pt" viewBox="0 0 566.789078 279.282188" xmlns="http://www.w3.org/2000/svg" version="1.1">
 <metadata>
  <rdf:RDF xmlns:dc="http://purl.org/dc/elements/1.1/" xmlns:cc="http://creativecommons.org/ns#" xmlns:rdf="http://www.w3.org/1999/02/22-rdf-syntax-ns#">
   <cc:Work>
    <dc:type rdf:resource="http://purl.org/dc/dcmitype/StillImage"/>
    <dc:date>2026-06-30T18:39:54.908231</dc:date>
    <dc:format>image/svg+xml</dc:format>
    <dc:creator>
     <cc:Agent>
      <dc:title>Matplotlib v3.9.4, https://matplotlib.org/</dc:title>
     </cc:Agent>
    </dc:creator>
   </cc:Work>
  </rdf:RDF>
 </metadata>
 <defs>
  <style type="text/css">*{stroke-linejoin: round; stroke-linecap: butt}</style>
 </defs>
 <g id="figure_1">
  <g id="patch_1">
   <path d="M 0 279.282188 
L 566.789078 279.282188 
L 566.789078 0 
L 0 0 
z
" style="fill: #ffffff"/>
  </g>
  <g id="axes_1">
   <g id="patch_2">
    <path d="M 54.295938 240.758125 
L 544.736847 240.758125 
L 544.736847 22.318125 
L 54.295938 22.318125 
z
" style="fill: #ffffff"/>
   </g>
   <g id="matplotlib.axis_1">
    <g id="xtick_1">
     <g id="line2d_1">
      <defs>
       <path id="m75f9b87f62" d="M 0 0 
L 0 3.5 
" style="stroke: #000000; stroke-width: 0.8"/>
      </defs>
      <g>
       <use xlink:href="#m75f9b87f62" x="72.085116" y="240.758125" style="stroke: #000000; stroke-width: 0.8"/>
      </g>
     </g>
     <g id="text_1">
      <text style="font: 10px 'DejaVu Sans'; text-anchor: middle" x="72.085116" y="255.356563" transform="rotate(-0 72.085116 255.356563)">0</text>
     </g>
    </g>
    <g id="xtick_2">
     <g id="line2d_2">
      <g>
       <use xlink:href="#m75f9b87f62" x="162.156909" y="240.758125" style="stroke: #000000; stroke-width: 0.8"/>
      </g>
     </g>
     <g id="text_2">
      <text style="font: 10px 'DejaVu Sans'; text-anchor: middle" x="162.156909" y="255.356563" transform="rotate(-0 162.156909 255.356563)">20</text>
     </g>
    </g>
    <g id="xtick_3">
     <g id="line2d_3">
      <g>
       <use xlink:href="#m75f9b87f62" x="252.228701" y="240.758125" style="stroke: #000000; stroke-width: 0.8"/>
      </g>
     </g>
     <g id="text_3">
      <text style="font: 10px 'DejaVu Sans'; text-anchor: middle" x="252.228701" y="255.356563" transform="rotate(-0 252.228701 255.356563)">40</text>
     </g>
    </g>
    <g id="xtick_4">
     <g id="line2d_4">
      <g>
       <use xlink:href="#m75f9b87f62" x="342.300493" y="240.758125" style="stroke: #000000; stroke-width: 0.8"/>
      </g>
     </g>
     <g id="text_4">
      <text style="font: 10px 'DejaVu Sans'; text-anchor: middle" x="342.300493" y="255.356563" transform="rotate(-0 342.300493 255.356563)">60</text>
     </g>
    </g>
    <g id="xtick_5">
     <g id="line2d_5">
      <g>
       <use xlink:href="#m75f9b87f62" x="432.372286" y="240.758125" style="stroke: #000000; stroke-width: 0.8"/>
      </g>
     </g>
     <g id="text_5">
      <text style="font: 10px 'DejaVu Sans'; text-anchor: middle" x="432.372286" y="255.356563" transform="rotate(-0 432.372286 255.356563)">80</text>
     </g>
    </g>
    <g id="xtick_6">
     <g id="line2d_6">
      <g>
       <use xlink:href="#m75f9b87f62" x="522.444078" y="240.758125" style="stroke: #000000; stroke-width: 0.8"/>
      </g>
     </g>
     <g id="text_6">
      <text style="font: 10px 'DejaVu Sans'; text-anchor: middle" x="522.444078" y="255.356563" transform="rotate(-0 522.444078 255.356563)">100</text>
     </g>
    </g>
    <g id="text_7">
     <text style="font: 11px 'DejaVu Sans'; text-anchor: middle" x="299.516392" y="269.794531" transform="rotate(-0 299.516392 269.794531)">Epoch</text>
    </g>
   </g>
   <g id="matplotlib.axis_2">
    <g id="ytick_1">
     <g id="line2d_7">
      <path d="M 54.295938 216.044787 
L 544.736847 216.044787 
" clip-path="url(#p38bd39616b)" style="fill: none; stroke-dasharray: 2.96,1.28; stroke-dashoffset: 0; stroke: #b0b0b0; stroke-opacity: 0.4; stroke-width: 0.8"/>
     </g>
     <g id="line2d_8">
      <defs>
       <path id="m229977a8d1" d="M 0 0 
L -3.5 0 
" style="stroke: #000000; stroke-width: 0.8"/>
      </defs>
      <g>
       <use xlink:href="#m229977a8d1" x="54.295938" y="216.044787" style="stroke: #000000; stroke-width: 0.8"/>
      </g>
     </g>
     <g id="text_8">
      <text style="font: 10px 'DejaVu Sans'; text-anchor: end" x="47.295938" y="219.844005" transform="rotate(-0 47.295938 219.844005)">200</text>
     </g>
    </g>
    <g id="ytick_2">
     <g id="line2d_9">
      <path d="M 54.295938 179.403208 
L 544.736847 179.403208 
" clip-path="url(#p38bd39616b)" style="fill: none; stroke-dasharray: 2.96,1.28; stroke-dashoffset: 0; stroke: #b0b0b0; stroke-opacity: 0.4; stroke-width: 0.8"/>
     </g>
     <g id="line2d_10">
      <g>
       <use xlink:href="#m229977a8d1" x="54.295938" y="179.403208" style="stroke: #000000; stroke-width: 0.8"/>
      </g>
     </g>
     <g id="text_9">
      <text style="font: 10px 'DejaVu Sans'; text-anchor: end" x="47.295938" y="183.202427" transform="rotate(-0 47.295938 183.202427)">400</text>
     </g>
    </g>
    <g id="ytick_3">
     <g id="line2d_11">
      <path d="M 54.295938 142.76163 
L 544.736847 142.76163 
" clip-path="url(#p38bd39616b)" style="fill: none; stroke-dasharray: 2.96,1.28; stroke-dashoffset: 0; stroke: #b0b0b0; stroke-opacity: 0.4; stroke-width: 0.8"/>
     </g>
     <g id="line2d_12">
      <g>
       <use xlink:href="#m229977a8d1" x="54.295938" y="142.76163" style="stroke: #000000; stroke-width: 0.8"/>
      </g>
     </g>
     <g id="text_10">
      <text style="font: 10px 'DejaVu Sans'; text-anchor: end" x="47.295938" y="146.560848" transform="rotate(-0 47.295938 146.560848)">600</text>
     </g>
    </g>
    <g id="ytick_4">
     <g id="line2d_13">
      <path d="M 54.295938 106.120051 
L 544.736847 106.120051 
" clip-path="url(#p38bd39616b)" style="fill: none; stroke-dasharray: 2.96,1.28; stroke-dashoffset: 0; stroke: #b0b0b0; stroke-opacity: 0.4; stroke-width: 0.8"/>
     </g>
     <g id="line2d_14">
      <g>
       <use xlink:href="#m229977a8d1" x="54.295938" y="106.120051" style="stroke: #000000; stroke-width: 0.8"/>
      </g>
     </g>
     <g id="text_11">
      <text style="font: 10px 'DejaVu Sans'; text-anchor: end" x="47.295938" y="109.91927" transform="rotate(-0 47.295938 109.91927)">800</text>
     </g>
    </g>
    <g id="ytick_5">
     <g id="line2d_15">
      <path d="M 54.295938 69.478472 
L 544.736847 69.478472 
" clip-path="url(#p38bd39616b)" style="fill: none; stroke-dasharray: 2.96,1.28; stroke-dashoffset: 0; stroke: #b0b0b0; stroke-opacity: 0.4; stroke-width: 0.8"/>
     </g>
     <g id="line2d_16">
      <g>
       <use xlink:href="#m229977a8d1" x="54.295938" y="69.478472" style="stroke: #000000; stroke-width: 0.8"/>
      </g>
     </g>
     <g id="text_12">
      <text style="font: 10px 'DejaVu Sans'; text-anchor: end" x="47.295938" y="73.277691" transform="rotate(-0 47.295938 73.277691)">1000</text>
     </g>
    </g>
    <g id="ytick_6">
     <g id="line2d_17">
      <path d="M 54.295938 32.836894 
L 544.736847 32.836894 
" clip-path="url(#p38bd39616b)" style="fill: none; stroke-dasharray: 2.96,1.28; stroke-dashoffset: 0; stroke: #b0b0b0; stroke-opacity: 0.4; stroke-width: 0.8"/>
     </g>
     <g id="line2d_18">
      <g>
       <use xlink:href="#m229977a8d1" x="54.295938" y="32.836894" style="stroke: #000000; stroke-width: 0.8"/>
      </g>
     </g>
     <g id="text_13">
      <text style="font: 10px 'DejaVu Sans'; text-anchor: end" x="47.295938" y="36.636113" transform="rotate(-0 47.295938 36.636113)">1200</text>
     </g>
    </g>
    <g id="text_14">
     <text style="font: 11px 'DejaVu Sans'; text-anchor: middle" x="15.558281" y="131.538125" transform="rotate(-90 15.558281 131.538125)">Loss</text>
    </g>
   </g>
   <g id="line2d_19">
    <path d="M 76.588706 32.247216 
L 81.092296 37.183877 
L 85.595885 42.053154 
L 90.099475 46.859275 
L 94.603065 51.606578 
L 99.106654 56.298351 
L 103.610244 60.937746 
L 108.113833 65.529417 
L 112.617423 70.078091 
L 117.121013 74.585538 
L 121.624602 79.054697 
L 126.128192 83.48833 
L 130.631781 87.889613 
L 135.135371 92.258334 
L 139.638961 96.595511 
L 144.14255 100.903166 
L 148.64614 105.181401 
L 153.14973 109.428897 
L 157.653319 113.642835 
L 162.156909 117.819637 
L 166.660498 121.957638 
L 171.164088 126.053314 
L 175.667678 130.103579 
L 180.171267 134.105236 
L 184.674857 138.052816 
L 189.178446 141.940079 
L 193.682036 145.761446 
L 198.185626 149.510846 
L 202.689215 153.182216 
L 207.192805 156.769184 
L 211.696395 160.26533 
L 216.199984 163.665243 
L 220.703574 166.965384 
L 225.207163 170.161313 
L 229.710753 173.247075 
L 234.214343 176.216751 
L 238.717932 179.065642 
L 243.221522 181.790189 
L 247.725111 184.385973 
L 252.228701 186.850485 
L 256.732291 189.180414 
L 261.23588 191.375208 
L 265.73947 193.43543 
L 270.24306 195.363373 
L 274.746649 197.162683 
L 279.250239 198.836842 
L 283.753828 200.388652 
L 288.257418 201.823173 
L 292.761008 203.146264 
L 297.264597 204.364752 
L 301.768187 205.48585 
L 306.271776 206.517571 
L 310.775366 207.468555 
L 315.278956 208.347198 
L 319.782545 209.161209 
L 324.286135 209.918585 
L 328.789725 210.627208 
L 333.293314 211.294495 
L 337.796904 211.926897 
L 342.300493 212.530276 
L 346.804083 213.110053 
L 351.307673 213.670853 
L 355.811262 214.216233 
L 360.314852 214.74867 
L 364.818441 215.270207 
L 369.322031 215.782641 
L 373.825621 216.28721 
L 378.32921 216.784738 
L 382.8328 217.275734 
L 387.33639 217.760921 
L 391.839979 218.240648 
L 396.343569 218.714893 
L 400.847158 219.184402 
L 405.350748 219.650004 
L 409.854338 220.112644 
L 414.357927 220.573283 
L 418.861517 221.032413 
L 423.365106 221.490422 
L 427.868696 221.947533 
L 432.372286 222.403671 
L 436.875875 222.858904 
L 441.379465 223.313102 
L 445.883055 223.765939 
L 450.386644 224.217118 
L 454.890234 224.666189 
L 459.393823 225.112577 
L 463.897413 225.555296 
L 468.401003 225.993437 
L 472.904592 226.426554 
L 477.408182 226.854371 
L 481.911771 227.27686 
L 486.415361 227.693715 
L 490.918951 228.104913 
L 495.42254 228.510522 
L 499.92613 228.910517 
L 504.42972 229.304908 
L 508.933309 229.693825 
L 513.436899 230.07739 
L 517.940488 230.455727 
L 522.444078 230.829034 
" clip-path="url(#p38bd39616b)" style="fill: none; stroke: #2166ac; stroke-width: 2; stroke-linecap: square"/>
   </g>
   <g id="patch_3">
    <path d="M 54.295938 240.758125 
L 54.295938 22.318125 
" style="fill: none; stroke: #000000; stroke-width: 0.8; stroke-linejoin: miter; stroke-linecap: square"/>
   </g>
   <g id="patch_4">
    <path d="M 54.295938 240.758125 
L 544.736847 240.758125 
" style="fill: none; stroke: #000000; stroke-width: 0.8; stroke-linejoin: miter; stroke-linecap: square"/>
   </g>
   <g id="PathCollection_1">
    <defs>
     <path id="m7ed22140be" d="M 0 2.738613 
C 0.726289 2.738613 1.422928 2.450055 1.936492 1.936492 
C 2.450055 1.422928 2.738613 0.726289 2.738613 0 
C 2.738613 -0.726289 2.450055 -1.422928 1.936492 -1.936492 
C 1.422928 -2.450055 0.726289 -2.738613 0 -2.738613 
C -0.726289 -2.738613 -1.422928 -2.450055 -1.936492 -1.936492 
C -2.450055 -1.422928 -2.738613 -0.726289 -2.738613 0 
C -2.738613 0.726289 -2.450055 1.422928 -1.936492 1.936492 
C -1.422928 2.450055 -0.726289 2.738613 0 2.738613 
z
" style="stroke: #ffffff; stroke-width: 0.8"/>
    </defs>
    <g clip-path="url(#p38bd39616b)">
     <use xlink:href="#m7ed22140be" x="76.588706" y="32.247216" style="fill: #2166ac; stroke: #ffffff; stroke-width: 0.8"/>
     <use xlink:href="#m7ed22140be" x="99.106654" y="56.298351" style="fill: #2166ac; stroke: #ffffff; stroke-width: 0.8"/>
     <use xlink:href="#m7ed22140be" x="121.624602" y="79.054697" style="fill: #2166ac; stroke: #ffffff; stroke-width: 0.8"/>
     <use xlink:href="#m7ed22140be" x="144.14255" y="100.903166" style="fill: #2166ac; stroke: #ffffff; stroke-width: 0.8"/>
     <use xlink:href="#m7ed22140be" x="166.660498" y="121.957638" style="fill: #2166ac; stroke: #ffffff; stroke-width: 0.8"/>
     <use xlink:href="#m7ed22140be" x="189.178446" y="141.940079" style="fill: #2166ac; stroke: #ffffff; stroke-width: 0.8"/>
     <use xlink:href="#m7ed22140be" x="211.696395" y="160.26533" style="fill: #2166ac; stroke: #ffffff; stroke-width: 0.8"/>
     <use xlink:href="#m7ed22140be" x="234.214343" y="176.216751" style="fill: #2166ac; stroke: #ffffff; stroke-width: 0.8"/>
     <use xlink:href="#m7ed22140be" x="256.732291" y="189.180414" style="fill: #2166ac; stroke: #ffffff; stroke-width: 0.8"/>
     <use xlink:href="#m7ed22140be" x="279.250239" y="198.836842" style="fill: #2166ac; stroke: #ffffff; stroke-width: 0.8"/>
     <use xlink:href="#m7ed22140be" x="301.768187" y="205.48585" style="fill: #2166ac; stroke: #ffffff; stroke-width: 0.8"/>
     <use xlink:href="#m7ed22140be" x="324.286135" y="209.918585" style="fill: #2166ac; stroke: #ffffff; stroke-width: 0.8"/>
     <use xlink:href="#m7ed22140be" x="346.804083" y="213.110053" style="fill: #2166ac; stroke: #ffffff; stroke-width: 0.8"/>
     <use xlink:href="#m7ed22140be" x="369.322031" y="215.782641" style="fill: #2166ac; stroke: #ffffff; stroke-width: 0.8"/>
     <use xlink:href="#m7ed22140be" x="391.839979" y="218.240648" style="fill: #2166ac; stroke: #ffffff; stroke-width: 0.8"/>
     <use xlink:href="#m7ed22140be" x="414.357927" y="220.573283" style="fill: #2166ac; stroke: #ffffff; stroke-width: 0.8"/>
     <use xlink:href="#m7ed22140be" x="436.875875" y="222.858904" style="fill: #2166ac; stroke: #ffffff; stroke-width: 0.8"/>
     <use xlink:href="#m7ed22140be" x="459.393823" y="225.112577" style="fill: #2166ac; stroke: #ffffff; stroke-width: 0.8"/>
     <use xlink:href="#m7ed22140be" x="481.911771" y="227.27686" style="fill: #2166ac; stroke: #ffffff; stroke-width: 0.8"/>
     <use xlink:href="#m7ed22140be" x="504.42972" y="229.304908" style="fill: #2166ac; stroke: #ffffff; stroke-width: 0.8"/>
    </g>
   </g>
   <g id="patch_5">
    <path d="M 526.65304 232.938573 
Q 525.442552 232.331874 525.03168 232.125945 
" style="fill: none; stroke: #d7191c; stroke-width: 0.8; stroke-linecap: round"/>
    <path d="M 527.175554 234.990173 
L 525.03168 232.125945 
L 528.609387 232.129382 
" style="fill: none; stroke: #d7191c; stroke-width: 0.8; stroke-linecap: round"/>
   </g>
   <g id="text_15">
    <text style="fill: #d7191c; font: 8px 'DejaVu Sans'" transform="translate(530.444078 239.870784)">best</text>
    <text style="fill: #d7191c; font: 8px 'DejaVu Sans'" transform="translate(530.444078 248.829034)">(119.3)</text>
   </g>
   <g id="text_16">
    <text style="font: 700 12px 'DejaVu Sans'; text-anchor: middle" x="299.516392" y="16.318125" transform="rotate(-0 299.516392 16.318125)">Training loss — ignnk</text>
   </g>
   <g id="PathCollection_2">
    <defs>
     <path id="m52220162a7" d="M 0 5.477226 
C 1.452577 5.477226 2.845856 4.900111 3.872983 3.872983 
C 4.900111 2.845856 5.477226 1.452577 5.477226 0 
C 5.477226 -1.452577 4.900111 -2.845856 3.872983 -3.872983 
C 2.845856 -4.900111 1.452577 -5.477226 0 -5.477226 
C -1.452577 -5.477226 -2.845856 -4.900111 -3.872983 -3.872983 
C -4.900111 -2.845856 -5.477226 -1.452577 -5.477226 0 
C -5.477226 1.452577 -4.900111 2.845856 -3.872983 3.872983 
C -2.845856 4.900111 -1.452577 5.477226 0 5.477226 
z
" style="stroke: #ffffff; stroke-width: 1.2"/>
    </defs>
    <g clip-path="url(#p38bd39616b)">
     <use xlink:href="#m52220162a7" x="522.444078" y="230.829034" style="fill: #d7191c; stroke: #ffffff; stroke-width: 1.2"/>
    </g>
   </g>
  </g>
 </g>
 <defs>
  <clipPath id="p38bd39616b">
   <rect x="54.295938" y="22.318125" width="490.440909" height="218.44"/>
  </clipPath>
 </defs>
</svg>
