<?xml version="1.0" encoding="utf-8" standalone="no"?>
<!DOCTYPE svg PUBLIC "-//W3C//DTD SVG 1.1//EN"
  "http://www.w3.org/Graphics/SVG/1.1/DTD/svg11.dtd">
<svg xmlns:xlink="http://www.w3.org/1999/xlink" width="566.61726pt" height="279.282188pt" viewBox="0 0 566.61726 279.282188" xmlns="http://www.w3.org/2000/svg" version="1.1">
 <metadata>
  <rdf:RDF xmlns:dc="http://purl.org/dc/elements/1.1/" xmlns:cc="http://creativecommons.org/ns#" xmlns:rdf="http://www.w3.org/1999/02/22-rdf-syntax-ns#">
   <cc:Work>
    <dc:type rdf:resource="http://purl.org/dc/dcmitype/StillImage"/>
    <dc:date>2026-06-30T18:46:34.346320</dc:date>
    <dc:format>image/svg+xml</dc:format>
    <dc:creator>
     <cc:Agent>
      <dc:title>Matplotlib v3.9.4, https://matplotlib.org/</dc:title>
     </cc:Agent>
    </dc:creator>
   </cc:Work>
  </rdf:RDF>
 </metadata>
 <defs>
  <style type="text/css">*{stroke-linejoin: round; stroke-linecap: butt}</style>
 </defs>
 <g id="figure_1">
  <g id="patch_1">
   <path d="M 0 279.282188 
L 566.61726 279.282188 
L 566.61726 0 
L 0 0 
z
" style="fill: #ffffff"/>
  </g>
  <g id="axes_1">
   <g id="patch_2">
    <path d="M 54.295938 240.758125 
L 544.556847 240.758125 
L 544.556847 22.318125 
L 54.295938 22.318125 
z
" style="fill: #ffffff"/>
   </g>
   <g id="matplotlib.axis_1">
    <g id="xtick_1">
     <g id="line2d_1">
      <defs>
       <path id="maf14d48ab5" d="M 0 0 
L 0 3.5 
" style="stroke: #000000; stroke-width: 0.8"/>
      </defs>
      <g>
       <use xlink:href="#maf14d48ab5" x="72.078588" y="240.758125" style="stroke: #000000; stroke-width: 0.8"/>
      </g>
     </g>
     <g id="text_1">
      <text style="font: 10px 'DejaVu Sans'; text-anchor: middle" x="72.078588" y="255.356563" transform="rotate(-0 72.078588 255.356563)">0</text>
     </g>
    </g>
    <g id="xtick_2">
     <g id="line2d_2">
      <g>
       <use xlink:href="#maf14d48ab5" x="162.117322" y="240.758125" style="stroke: #000000; stroke-width: 0.8"/>
      </g>
     </g>
     <g id="text_2">
      <text style="font: 10px 'DejaVu Sans'; text-anchor: middle" x="162.117322" y="255.356563" transform="rotate(-0 162.117322 255.356563)">20</text>
     </g>
    </g>
    <g id="xtick_3">
     <g id="line2d_3">
      <g>
       <use xlink:href="#maf14d48ab5" x="252.156056" y="240.758125" style="stroke: #000000; stroke-width: 0.8"/>
      </g>
     </g>
     <g id="text_3">
      <text style="font: 10px 'DejaVu Sans'; text-anchor: middle" x="252.156056" y="255.356563" transform="rotate(-0 252.156056 255.356563)">40</text>
     </g>
    </g>
    <g id="xtick_4">
     <g id="line2d_4">
      <g>
       <use xlink:href="#maf14d48ab5" x="342.194791" y="240.758125" style="stroke: #000000; stroke-width: 0.8"/>
      </g>
     </g>
     <g id="text_4">
      <text style="font: 10px 'DejaVu Sans'; text-anchor: middle" x="342.194791" y="255.356563" transform="rotate(-0 342.194791 255.356563)">60</text>
     </g>
    </g>
    <g id="xtick_5">
     <g id="line2d_5">
      <g>
       <use xlink:href="#maf14d48ab5" x="432.233525" y="240.758125" style="stroke: #000000; stroke-width: 0.8"/>
      </g>
     </g>
     <g id="text_5">
      <text style="font: 10px 'DejaVu Sans'; text-anchor: middle" x="432.233525" y="255.356563" transform="rotate(-0 432.233525 255.356563)">80</text>
     </g>
    </g>
    <g id="xtick_6">
     <g id="line2d_6">
      <g>
       <use xlink:href="#maf14d48ab5" x="522.27226" y="240.758125" style="stroke: #000000; stroke-width: 0.8"/>
      </g>
     </g>
     <g id="text_6">
      <text style="font: 10px 'DejaVu Sans'; text-anchor: middle" x="522.27226" y="255.356563" transform="rotate(-0 522.27226 255.356563)">100</text>
     </g>
    </g>
    <g id="text_7">
     <text style="font: 11px 'DejaVu Sans'; text-anchor: middle" x="299.426392" y="269.794531" transform="rotate(-0 299.426392 269.794531)">Epoch</text>
    </g>
   </g>
   <g id="matplotlib.axis_2">
    <g id="ytick_1">
     <g id="line2d_7">
      <path d="M 54.295938 216.004077 
L 544.556847 216.004077 
" clip-path="url(#p6a29a41b48)" style="fill: none; stroke-dasharray: 2.96,1.28; stroke-dashoffset: 0; stroke: #b0b0b0; stroke-opacity: 0.4; stroke-width: 0.8"/>
     </g>
     <g id="line2d_8">
      <defs>
       <path id="mb070f8a7fe" d="M 0 0 
L -3.5 0 
" style="stroke: #000000; stroke-width: 0.8"/>
      </defs>
      <g>
       <use xlink:href="#mb070f8a7fe" x="54.295938" y="216.004077" style="stroke: #000000; stroke-width: 0.8"/>
      </g>
     </g>
     <g id="text_8">
      <text style="font: 10px 'DejaVu Sans'; text-anchor: end" x="47.295938" y="219.803296" transform="rotate(-0 47.295938 219.803296)">900</text>
     </g>
    </g>
    <g id="ytick_2">
     <g id="line2d_9">
      <path d="M 54.295938 189.913244 
L 544.556847 189.913244 
" clip-path="url(#p6a29a41b48)" style="fill: none; stroke-dasharray: 2.96,1.28; stroke-dashoffset: 0; stroke: #b0b0b0; stroke-opacity: 0.4; stroke-width: 0.8"/>
     </g>
     <g id="line2d_10">
      <g>
       <use xlink:href="#mb070f8a7fe" x="54.295938" y="189.913244" style="stroke: #000000; stroke-width: 0.8"/>
      </g>
     </g>
     <g id="text_9">
      <text style="font: 10px 'DejaVu Sans'; text-anchor: end" x="47.295938" y="193.712463" transform="rotate(-0 47.295938 193.712463)">950</text>
     </g>
    </g>
    <g id="ytick_3">
     <g id="line2d_11">
      <path d="M 54.295938 163.82241 
L 544.556847 163.82241 
" clip-path="url(#p6a29a41b48)" style="fill: none; stroke-dasharray: 2.96,1.28; stroke-dashoffset: 0; stroke: #b0b0b0; stroke-opacity: 0.4; stroke-width: 0.8"/>
     </g>
     <g id="line2d_12">
      <g>
       <use xlink:href="#mb070f8a7fe" x="54.295938" y="163.82241" style="stroke: #000000; stroke-width: 0.8"/>
      </g>
     </g>
     <g id="text_10">
      <text style="font: 10px 'DejaVu Sans'; text-anchor: end" x="47.295938" y="167.621629" transform="rotate(-0 47.295938 167.621629)">1000</text>
     </g>
    </g>
    <g id="ytick_4">
     <g id="line2d_13">
      <path d="M 54.295938 137.731577 
L 544.556847 137.731577 
" clip-path="url(#p6a29a41b48)" style="fill: none; stroke-dasharray: 2.96,1.28; stroke-dashoffset: 0; stroke: #b0b0b0; stroke-opacity: 0.4; stroke-width: 0.8"/>
     </g>
     <g id="line2d_14">
      <g>
       <use xlink:href="#mb070f8a7fe" x="54.295938" y="137.731577" style="stroke: #000000; stroke-width: 0.8"/>
      </g>
     </g>
     <g id="text_11">
      <text style="font: 10px 'DejaVu Sans'; text-anchor: end" x="47.295938" y="141.530795" transform="rotate(-0 47.295938 141.530795)">1050</text>
     </g>
    </g>
    <g id="ytick_5">
     <g id="line2d_15">
      <path d="M 54.295938 111.640743 
L 544.556847 111.640743 
" clip-path="url(#p6a29a41b48)" style="fill: none; stroke-dasharray: 2.96,1.28; stroke-dashoffset: 0; stroke: #b0b0b0; stroke-opacity: 0.4; stroke-width: 0.8"/>
     </g>
     <g id="line2d_16">
      <g>
       <use xlink:href="#mb070f8a7fe" x="54.295938" y="111.640743" style="stroke: #000000; stroke-width: 0.8"/>
      </g>
     </g>
     <g id="text_12">
      <text style="font: 10px 'DejaVu Sans'; text-anchor: end" x="47.295938" y="115.439962" transform="rotate(-0 47.295938 115.439962)">1100</text>
     </g>
    </g>
    <g id="ytick_6">
     <g id="line2d_17">
      <path d="M 54.295938 85.54991 
L 544.556847 85.54991 
" clip-path="url(#p6a29a41b48)" style="fill: none; stroke-dasharray: 2.96,1.28; stroke-dashoffset: 0; stroke: #b0b0b0; stroke-opacity: 0.4; stroke-width: 0.8"/>
     </g>
     <g id="line2d_18">
      <g>
       <use xlink:href="#mb070f8a7fe" x="54.295938" y="85.54991" style="stroke: #000000; stroke-width: 0.8"/>
      </g>
     </g>
     <g id="text_13">
      <text style="font: 10px 'DejaVu Sans'; text-anchor: end" x="47.295938" y="89.349128" transform="rotate(-0 47.295938 89.349128)">1150</text>
     </g>
    </g>
    <g id="ytick_7">
     <g id="line2d_19">
      <path d="M 54.295938 59.459076 
L 544.556847 59.459076 
" clip-path="url(#p6a29a41b48)" style="fill: none; stroke-dasharray: 2.96,1.28; stroke-dashoffset: 0; stroke: #b0b0b0; stroke-opacity: 0.4; stroke-width: 0.8"/>
     </g>
     <g id="line2d_20">
      <g>
       <use xlink:href="#mb070f8a7fe" x="54.295938" y="59.459076" style="stroke: #000000; stroke-width: 0.8"/>
      </g>
     </g>
     <g id="text_14">
      <text style="font: 10px 'DejaVu Sans'; text-anchor: end" x="47.295938" y="63.258295" transform="rotate(-0 47.295938 63.258295)">1200</text>
     </g>
    </g>
    <g id="ytick_8">
     <g id="line2d_21">
      <path d="M 54.295938 33.368243 
L 544.556847 33.368243 
" clip-path="url(#p6a29a41b48)" style="fill: none; stroke-dasharray: 2.96,1.28; stroke-dashoffset: 0; stroke: #b0b0b0; stroke-opacity: 0.4; stroke-width: 0.8"/>
     </g>
     <g id="line2d_22">
      <g>
       <use xlink:href="#mb070f8a7fe" x="54.295938" y="33.368243" style="stroke: #000000; stroke-width: 0.8"/>
      </g>
     </g>
     <g id="text_15">
      <text style="font: 10px 'DejaVu Sans'; text-anchor: end" x="47.295938" y="37.167461" transform="rotate(-0 47.295938 37.167461)">1250</text>
     </g>
    </g>
    <g id="text_16">
     <text style="font: 11px 'DejaVu Sans'; text-anchor: middle" x="15.558281" y="131.538125" transform="rotate(-90 15.558281 131.538125)">Loss</text>
    </g>
   </g>
   <g id="line2d_23">
    <path d="M 76.580524 32.247216 
L 81.082461 34.958025 
L 85.584398 37.649534 
L 90.086334 40.321743 
L 94.588271 42.974714 
L 99.090208 45.608003 
L 103.592145 48.220462 
L 108.094081 50.810436 
L 112.596018 53.376714 
L 117.097955 55.917386 
L 121.599892 58.43073 
L 126.101828 60.914901 
L 130.603765 63.367669 
L 135.105702 65.787505 
L 139.607638 68.173325 
L 144.109575 70.525131 
L 148.611512 72.844005 
L 153.113449 75.132113 
L 157.615385 77.392193 
L 162.117322 79.627367 
L 166.619259 81.84082 
L 171.121195 84.036055 
L 175.623132 86.216258 
L 180.125069 88.38423 
L 184.627006 90.541884 
L 189.128942 92.689982 
L 193.630879 94.828335 
L 198.132816 96.957388 
L 202.634753 99.078415 
L 207.136689 101.193709 
L 211.638626 103.305372 
L 216.140563 105.414805 
L 220.642499 107.522201 
L 225.144436 109.627048 
L 229.646373 111.728902 
L 234.14831 113.826042 
L 238.650246 115.915601 
L 243.152183 117.994396 
L 247.65412 120.06026 
L 252.156056 122.112174 
L 256.657993 124.150075 
L 261.15993 126.173898 
L 265.661867 128.183899 
L 270.163803 130.18065 
L 274.66574 132.16428 
L 279.167677 134.135297 
L 283.669614 136.093765 
L 288.17155 138.040768 
L 292.673487 139.977834 
L 297.175424 141.906429 
L 301.67736 143.828016 
L 306.179297 145.743106 
L 310.681234 147.651444 
L 315.183171 149.553221 
L 319.685107 151.449297 
L 324.187044 153.340373 
L 328.688981 155.226067 
L 333.190917 157.105549 
L 337.692854 158.978471 
L 342.194791 160.844545 
L 346.696728 162.703581 
L 351.198664 164.555387 
L 355.700601 166.399708 
L 360.202538 168.236481 
L 364.704475 170.066184 
L 369.206411 171.889198 
L 373.708348 173.70581 
L 378.210285 175.516276 
L 382.712221 177.320977 
L 387.214158 179.120295 
L 391.716095 180.915027 
L 396.218032 182.70546 
L 400.719968 184.491911 
L 405.221905 186.2747 
L 409.723842 188.054176 
L 414.225778 189.831041 
L 418.727715 191.605422 
L 423.229652 193.3777 
L 427.731589 195.147717 
L 432.233525 196.915123 
L 436.735462 198.678579 
L 441.237399 200.436716 
L 445.739336 202.187911 
L 450.241272 203.930888 
L 454.743209 205.664852 
L 459.245146 207.389643 
L 463.747082 209.105963 
L 468.249019 210.814193 
L 472.750956 212.514779 
L 477.252893 214.207848 
L 481.754829 215.894007 
L 486.256766 217.573859 
L 490.758703 219.247978 
L 495.260639 220.916906 
L 499.762576 222.58077 
L 504.264513 224.239952 
L 508.76645 225.894452 
L 513.268386 227.544271 
L 517.770323 229.189248 
L 522.27226 230.829034 
" clip-path="url(#p6a29a41b48)" style="fill: none; stroke: #2166ac; stroke-width: 2; stroke-linecap: square"/>
   </g>
   <g id="patch_3">
    <path d="M 54.295938 240.758125 
L 54.295938 22.318125 
" style="fill: none; stroke: #000000; stroke-width: 0.8; stroke-linejoin: miter; stroke-linecap: square"/>
   </g>
   <g id="patch_4">
    <path d="M 54.295938 240.758125 
L 544.556847 240.758125 
" style="fill: none; stroke: #000000; stroke-width: 0.8; stroke-linejoin: miter; stroke-linecap: square"/>
   </g>
   <g id="PathCollection_1">
    <defs>
     <path id="m6c48af6956" d="M 0 2.738613 
C 0.726289 2.738613 1.422928 2.450055 1.936492 1.936492 
C 2.450055 1.422928 2.738613 0.726289 2.738613 0 
C 2.738613 -0.726289 2.450055 -1.422928 1.936492 -1.936492 
C 1.422928 -2.450055 0.726289 -2.738613 0 -2.738613 
C -0.726289 -2.738613 -1.422928 -2.450055 -1.936492 -1.936492 
C -2.450055 -1.422928 -2.738613 -0.726289 -2.738613 0 
C -2.738613 0.726289 -2.450055 1.422928 -1.936492 1.936492 
C -1.422928 2.450055 -0.726289 2.738613 0 2.738613 
z
" style="stroke: #ffffff; stroke-width: 0.8"/>
    </defs>
    <g clip-path="url(#p6a29a41b48)">
     <use xlink:href="#m6c48af6956" x="76.580524" y="32.247216" style="fill: #2166ac; stroke: #ffffff; stroke-width: 0.8"/>
     <use xlink:href="#m6c48af6956" x="99.090208" y="45.608003" style="fill: #2166ac; stroke: #ffffff; stroke-width: 0.8"/>
     <use xlink:href="#m6c48af6956" x="121.599892" y="58.43073" style="fill: #2166ac; stroke: #ffffff; stroke-width: 0.8"/>
     <use xlink:href="#m6c48af6956" x="144.109575" y="70.525131" style="fill: #2166ac; stroke: #ffffff; stroke-width: 0.8"/>
     <use xlink:href="#m6c48af6956" x="166.619259" y="81.84082" style="fill: #2166ac; stroke: #ffffff; stroke-width: 0.8"/>
     <use xlink:href="#m6c48af6956" x="189.128942" y="92.689982" style="fill: #2166ac; stroke: #ffffff; stroke-width: 0.8"/>
     <use xlink:href="#m6c48af6956" x="211.638626" y="103.305372" style="fill: #2166ac; stroke: #ffffff; stroke-width: 0.8"/>
     <use xlink:href="#m6c48af6956" x="234.14831" y="113.826042" style="fill: #2166ac; stroke: #ffffff; stroke-width: 0.8"/>
     <use xlink:href="#m6c48af6956" x="256.657993" y="124.150075" style="fill: #2166ac; stroke: #ffffff; stroke-width: 0.8"/>
     <use xlink:href="#m6c48af6956" x="279.167677" y="134.135297" style="fill: #2166ac; stroke: #ffffff; stroke-width: 0.8"/>
     <use xlink:href="#m6c48af6956" x="301.67736" y="143.828016" style="fill: #2166ac; stroke: #ffffff; stroke-width: 0.8"/>
     <use xlink:href="#m6c48af6956" x="324.187044" y="153.340373" style="fill: #2166ac; stroke: #ffffff; stroke-width: 0.8"/>
     <use xlink:href="#m6c48af6956" x="346.696728" y="162.703581" style="fill: #2166ac; stroke: #ffffff; stroke-width: 0.8"/>
     <use xlink:href="#m6c48af6956" x="369.206411" y="171.889198" style="fill: #2166ac; stroke: #ffffff; stroke-width: 0.8"/>
     <use xlink:href="#m6c48af6956" x="391.716095" y="180.915027" style="fill: #2166ac; stroke: #ffffff; stroke-width: 0.8"/>
     <use xlink:href="#m6c48af6956" x="414.225778" y="189.831041" style="fill: #2166ac; stroke: #ffffff; stroke-width: 0.8"/>
     <use xlink:href="#m6c48af6956" x="436.735462" y="198.678579" style="fill: #2166ac; stroke: #ffffff; stroke-width: 0.8"/>
     <use xlink:href="#m6c48af6956" x="459.245146" y="207.389643" style="fill: #2166ac; stroke: #ffffff; stroke-width: 0.8"/>
     <use xlink:href="#m6c48af6956" x="481.754829" y="215.894007" style="fill: #2166ac; stroke: #ffffff; stroke-width: 0.8"/>
     <use xlink:href="#m6c48af6956" x="504.264513" y="224.239952" style="fill: #2166ac; stroke: #ffffff; stroke-width: 0.8"/>
    </g>
   </g>
   <g id="patch_5">
    <path d="M 526.481221 232.938573 
Q 525.270734 232.331874 524.859862 232.125945 
" style="fill: none; stroke: #d7191c; stroke-width: 0.8; stroke-linecap: round"/>
    <path d="M 527.003736 234.990173 
L 524.859862 232.125945 
L 528.437569 232.129382 
" style="fill: none; stroke: #d7191c; stroke-width: 0.8; stroke-linecap: round"/>
   </g>
   <g id="text_17">
    <text style="fill: #d7191c; font: 8px 'DejaVu Sans'" transform="translate(530.27226 239.870784)">best</text>
    <text style="fill: #d7191c; font: 8px 'DejaVu Sans'" transform="translate(530.27226 248.829034)">(871.6)</text>
   </g>
   <g id="text_18">
    <text style="font: 700 12px 'DejaVu Sans'; text-anchor: middle" x="299.426392" y="16.318125" transform="rotate(-0 299.426392 16.318125)">Training loss — grin</text>
   </g>
   <g id="PathCollection_2">
    <defs>
     <path id="m79f4383a59" d="M 0 5.477226 
C 1.452577 5.477226 2.845856 4.900111 3.872983 3.872983 
C 4.900111 2.845856 5.477226 1.452577 5.477226 0 
C 5.477226 -1.452577 4.900111 -2.845856 3.872983 -3.872983 
C 2.845856 -4.900111 1.452577 -5.477226 0 -5.477226 
C -1.452577 -5.477226 -2.845856 -4.900111 -3.872983 -3.872983 
C -4.900111 -2.845856 -5.477226 -1.452577 -5.477226 0 
C -5.477226 1.452577 -4.900111 2.845856 -3.872983 3.872983 
C -2.845856 4.900111 -1.452577 5.477226 0 5.477226 
z
" style="stroke: #ffffff; stroke-width: 1.2"/>
    </defs>
    <g clip-path="url(#p6a29a41b48)">
     <use xlink:href="#m79f4383a59" x="522.27226" y="230.829034" style="fill: #d7191c; stroke: #ffffff; stroke-width: 1.2"/>
    </g>
   </g>
  </g>
 </g>
 <defs>
  <clipPath id="p6a29a41b48">
   <rect x="54.295938" y="22.318125" width="490.260909" height="218.44"/>
  </clipPath>
 </defs>
</svg>
