<?xml version="1.0" encoding="utf-8" standalone="no"?>
<!DOCTYPE svg PUBLIC "-//W3C//DTD SVG 1.1//EN"
  "http://www.w3.org/Graphics/SVG/1.1/DTD/svg11.dtd">
<svg xmlns:xlink="http://www.w3.org/1999/xlink" width="566.703169pt" height="279.282188pt" viewBox="0 0 566.703169 279.282188" xmlns="http://www.w3.org/2000/svg" version="1.1">
 <metadata>
  <rdf:RDF xmlns:dc="http://purl.org/dc/elements/1.1/" xmlns:cc="http://creativecommons.org/ns#" xmlns:rdf="http://www.w3.org/1999/02/22-rdf-syntax-ns#">
   <cc:Work>
    <dc:type rdf:resource="http://purl.org/dc/dcmitype/StillImage"/>
    <dc:date>2026-06-30T18:46:02.982060</dc:date>
    <dc:format>image/svg+xml</dc:format>
    <dc:creator>
     <cc:Agent>
      <dc:title>Matplotlib v3.9.4, https://matplotlib.org/</dc:title>
     </cc:Agent>
    </dc:creator>
   </cc:Work>
  </rdf:RDF>
 </metadata>
 <defs>
  <style type="text/css">*{stroke-linejoin: round; stroke-linecap: butt}</style>
 </defs>
 <g id="figure_1">
  <g id="patch_1">
   <path d="M 0 279.282188 
L 566.703169 279.282188 
L 566.703169 0 
L 0 0 
z
" style="fill: #ffffff"/>
  </g>
  <g id="axes_1">
   <g id="patch_2">
    <path d="M 54.295938 240.758125 
L 544.646847 240.758125 
L 544.646847 22.318125 
L 54.295938 22.318125 
z
" style="fill: #ffffff"/>
   </g>
   <g id="matplotlib.axis_1">
    <g id="xtick_1">
     <g id="line2d_1">
      <defs>
       <path id="m40d063aa50" d="M 0 0 
L 0 3.5 
" style="stroke: #000000; stroke-width: 0.8"/>
      </defs>
      <g>
       <use xlink:href="#m40d063aa50" x="72.081852" y="240.758125" style="stroke: #000000; stroke-width: 0.8"/>
      </g>
     </g>
     <g id="text_1">
      <text style="font: 10px 'DejaVu Sans'; text-anchor: middle" x="72.081852" y="255.356563" transform="rotate(-0 72.081852 255.356563)">0</text>
     </g>
    </g>
    <g id="xtick_2">
     <g id="line2d_2">
      <g>
       <use xlink:href="#m40d063aa50" x="162.137115" y="240.758125" style="stroke: #000000; stroke-width: 0.8"/>
      </g>
     </g>
     <g id="text_2">
      <text style="font: 10px 'DejaVu Sans'; text-anchor: middle" x="162.137115" y="255.356563" transform="rotate(-0 162.137115 255.356563)">20</text>
     </g>
    </g>
    <g id="xtick_3">
     <g id="line2d_3">
      <g>
       <use xlink:href="#m40d063aa50" x="252.192379" y="240.758125" style="stroke: #000000; stroke-width: 0.8"/>
      </g>
     </g>
     <g id="text_3">
      <text style="font: 10px 'DejaVu Sans'; text-anchor: middle" x="252.192379" y="255.356563" transform="rotate(-0 252.192379 255.356563)">40</text>
     </g>
    </g>
    <g id="xtick_4">
     <g id="line2d_4">
      <g>
       <use xlink:href="#m40d063aa50" x="342.247642" y="240.758125" style="stroke: #000000; stroke-width: 0.8"/>
      </g>
     </g>
     <g id="text_4">
      <text style="font: 10px 'DejaVu Sans'; text-anchor: middle" x="342.247642" y="255.356563" transform="rotate(-0 342.247642 255.356563)">60</text>
     </g>
    </g>
    <g id="xtick_5">
     <g id="line2d_5">
      <g>
       <use xlink:href="#m40d063aa50" x="432.302906" y="240.758125" style="stroke: #000000; stroke-width: 0.8"/>
      </g>
     </g>
     <g id="text_5">
      <text style="font: 10px 'DejaVu Sans'; text-anchor: middle" x="432.302906" y="255.356563" transform="rotate(-0 432.302906 255.356563)">80</text>
     </g>
    </g>
    <g id="xtick_6">
     <g id="line2d_6">
      <g>
       <use xlink:href="#m40d063aa50" x="522.358169" y="240.758125" style="stroke: #000000; stroke-width: 0.8"/>
      </g>
     </g>
     <g id="text_6">
      <text style="font: 10px 'DejaVu Sans'; text-anchor: middle" x="522.358169" y="255.356563" transform="rotate(-0 522.358169 255.356563)">100</text>
     </g>
    </g>
    <g id="text_7">
     <text style="font: 11px 'DejaVu Sans'; text-anchor: middle" x="299.471392" y="269.794531" transform="rotate(-0 299.471392 269.794531)">Epoch</text>
    </g>
   </g>
   <g id="matplotlib.axis_2">
    <g id="ytick_1">
     <g id="line2d_7">
      <path d="M 54.295938 229.000146 
L 544.646847 229.000146 
" clip-path="url(#pbbc63ed01e)" style="fill: none; stroke-dasharray: 2.96,1.28; stroke-dashoffset: 0; stroke: #b0b0b0; stroke-opacity: 0.4; stroke-width: 0.8"/>
     </g>
     <g id="line2d_8">
      <defs>
       <path id="ma25620d6de" d="M 0 0 
L -3.5 0 
" style="stroke: #000000; stroke-width: 0.8"/>
      </defs>
      <g>
       <use xlink:href="#ma25620d6de" x="54.295938" y="229.000146" style="stroke: #000000; stroke-width: 0.8"/>
      </g>
     </g>
     <g id="text_8">
      <text style="font: 10px 'DejaVu Sans'; text-anchor: end" x="47.295938" y="232.799365" transform="rotate(-0 47.295938 232.799365)">200</text>
     </g>
    </g>
    <g id="ytick_2">
     <g id="line2d_9">
      <path d="M 54.295938 197.108941 
L 544.646847 197.108941 
" clip-path="url(#pbbc63ed01e)" style="fill: none; stroke-dasharray: 2.96,1.28; stroke-dashoffset: 0; stroke: #b0b0b0; stroke-opacity: 0.4; stroke-width: 0.8"/>
     </g>
     <g id="line2d_10">
      <g>
       <use xlink:href="#ma25620d6de" x="54.295938" y="197.108941" style="stroke: #000000; stroke-width: 0.8"/>
      </g>
     </g>
     <g id="text_9">
      <text style="font: 10px 'DejaVu Sans'; text-anchor: end" x="47.295938" y="200.90816" transform="rotate(-0 47.295938 200.90816)">400</text>
     </g>
    </g>
    <g id="ytick_3">
     <g id="line2d_11">
      <path d="M 54.295938 165.217736 
L 544.646847 165.217736 
" clip-path="url(#pbbc63ed01e)" style="fill: none; stroke-dasharray: 2.96,1.28; stroke-dashoffset: 0; stroke: #b0b0b0; stroke-opacity: 0.4; stroke-width: 0.8"/>
     </g>
     <g id="line2d_12">
      <g>
       <use xlink:href="#ma25620d6de" x="54.295938" y="165.217736" style="stroke: #000000; stroke-width: 0.8"/>
      </g>
     </g>
     <g id="text_10">
      <text style="font: 10px 'DejaVu Sans'; text-anchor: end" x="47.295938" y="169.016955" transform="rotate(-0 47.295938 169.016955)">600</text>
     </g>
    </g>
    <g id="ytick_4">
     <g id="line2d_13">
      <path d="M 54.295938 133.326531 
L 544.646847 133.326531 
" clip-path="url(#pbbc63ed01e)" style="fill: none; stroke-dasharray: 2.96,1.28; stroke-dashoffset: 0; stroke: #b0b0b0; stroke-opacity: 0.4; stroke-width: 0.8"/>
     </g>
     <g id="line2d_14">
      <g>
       <use xlink:href="#ma25620d6de" x="54.295938" y="133.326531" style="stroke: #000000; stroke-width: 0.8"/>
      </g>
     </g>
     <g id="text_11">
      <text style="font: 10px 'DejaVu Sans'; text-anchor: end" x="47.295938" y="137.12575" transform="rotate(-0 47.295938 137.12575)">800</text>
     </g>
    </g>
    <g id="ytick_5">
     <g id="line2d_15">
      <path d="M 54.295938 101.435326 
L 544.646847 101.435326 
" clip-path="url(#pbbc63ed01e)" style="fill: none; stroke-dasharray: 2.96,1.28; stroke-dashoffset: 0; stroke: #b0b0b0; stroke-opacity: 0.4; stroke-width: 0.8"/>
     </g>
     <g id="line2d_16">
      <g>
       <use xlink:href="#ma25620d6de" x="54.295938" y="101.435326" style="stroke: #000000; stroke-width: 0.8"/>
      </g>
     </g>
     <g id="text_12">
      <text style="font: 10px 'DejaVu Sans'; text-anchor: end" x="47.295938" y="105.234544" transform="rotate(-0 47.295938 105.234544)">1000</text>
     </g>
    </g>
    <g id="ytick_6">
     <g id="line2d_17">
      <path d="M 54.295938 69.54412 
L 544.646847 69.54412 
" clip-path="url(#pbbc63ed01e)" style="fill: none; stroke-dasharray: 2.96,1.28; stroke-dashoffset: 0; stroke: #b0b0b0; stroke-opacity: 0.4; stroke-width: 0.8"/>
     </g>
     <g id="line2d_18">
      <g>
       <use xlink:href="#ma25620d6de" x="54.295938" y="69.54412" style="stroke: #000000; stroke-width: 0.8"/>
      </g>
     </g>
     <g id="text_13">
      <text style="font: 10px 'DejaVu Sans'; text-anchor: end" x="47.295938" y="73.343339" transform="rotate(-0 47.295938 73.343339)">1200</text>
     </g>
    </g>
    <g id="ytick_7">
     <g id="line2d_19">
      <path d="M 54.295938 37.652915 
L 544.646847 37.652915 
" clip-path="url(#pbbc63ed01e)" style="fill: none; stroke-dasharray: 2.96,1.28; stroke-dashoffset: 0; stroke: #b0b0b0; stroke-opacity: 0.4; stroke-width: 0.8"/>
     </g>
     <g id="line2d_20">
      <g>
       <use xlink:href="#ma25620d6de" x="54.295938" y="37.652915" style="stroke: #000000; stroke-width: 0.8"/>
      </g>
     </g>
     <g id="text_14">
      <text style="font: 10px 'DejaVu Sans'; text-anchor: end" x="47.295938" y="41.452134" transform="rotate(-0 47.295938 41.452134)">1400</text>
     </g>
    </g>
    <g id="text_15">
     <text style="font: 11px 'DejaVu Sans'; text-anchor: middle" x="15.558281" y="131.538125" transform="rotate(-90 15.558281 131.538125)">Loss</text>
    </g>
   </g>
   <g id="line2d_21">
    <path d="M 76.584615 32.247216 
L 81.087378 37.548175 
L 85.590142 42.780501 
L 90.092905 47.943396 
L 94.595668 53.035731 
L 99.098431 58.057856 
L 103.601194 63.011076 
L 108.103957 67.895584 
L 112.606721 72.711771 
L 117.109484 77.459033 
L 121.612247 82.136008 
L 126.11501 86.742266 
L 130.617773 91.278374 
L 135.120536 95.745459 
L 139.6233 100.144466 
L 144.126063 104.474547 
L 148.628826 108.734955 
L 153.131589 112.924364 
L 157.634352 117.041179 
L 162.137115 121.084427 
L 166.639879 125.052861 
L 171.142642 128.946074 
L 175.645405 132.763763 
L 180.148168 136.505899 
L 184.650931 140.171695 
L 189.153694 143.75999 
L 193.656458 147.269814 
L 198.159221 150.701457 
L 202.661984 154.053313 
L 207.164747 157.325393 
L 211.66751 160.514912 
L 216.170273 163.619974 
L 220.673037 166.637716 
L 225.1758 169.564265 
L 229.678563 172.396917 
L 234.181326 175.133771 
L 238.684089 177.773088 
L 243.186852 180.313104 
L 247.689616 182.753441 
L 252.192379 185.094172 
L 256.695142 187.335904 
L 261.197905 189.47714 
L 265.700668 191.516092 
L 270.203431 193.452017 
L 274.706195 195.285523 
L 279.208958 197.018259 
L 283.711721 198.651958 
L 288.214484 200.190338 
L 292.717247 201.637647 
L 297.22001 202.998366 
L 301.722774 204.277168 
L 306.225537 205.478757 
L 310.7283 206.60785 
L 315.231063 207.669526 
L 319.733826 208.668423 
L 324.236589 209.608988 
L 328.739353 210.495573 
L 333.242116 211.332289 
L 337.744879 212.122723 
L 342.247642 212.870241 
L 346.750405 213.578275 
L 351.253168 214.250109 
L 355.755932 214.889028 
L 360.258695 215.498107 
L 364.761458 216.08014 
L 369.264221 216.637589 
L 373.766984 217.173033 
L 378.269748 217.688871 
L 382.772511 218.187443 
L 387.275274 218.671116 
L 391.778037 219.141975 
L 396.2808 219.602007 
L 400.783563 220.0531 
L 405.286327 220.496592 
L 409.78909 220.933848 
L 414.291853 221.365673 
L 418.794616 221.792837 
L 423.297379 222.216131 
L 427.800142 222.636063 
L 432.302906 223.053015 
L 436.805669 223.467113 
L 441.308432 223.8785 
L 445.811195 224.287038 
L 450.313958 224.692563 
L 454.816721 225.095092 
L 459.319485 225.494649 
L 463.822248 225.891355 
L 468.325011 226.285394 
L 472.827774 226.676866 
L 477.330537 227.065827 
L 481.8333 227.452482 
L 486.336064 227.836895 
L 490.838827 228.219063 
L 495.34159 228.598973 
L 499.844353 228.976669 
L 504.347116 229.352112 
L 508.849879 229.725122 
L 513.352643 230.095674 
L 517.855406 230.463667 
L 522.358169 230.829034 
" clip-path="url(#pbbc63ed01e)" style="fill: none; stroke: #2166ac; stroke-width: 2; stroke-linecap: square"/>
   </g>
   <g id="patch_3">
    <path d="M 54.295938 240.758125 
L 54.295938 22.318125 
" style="fill: none; stroke: #000000; stroke-width: 0.8; stroke-linejoin: miter; stroke-linecap: square"/>
   </g>
   <g id="patch_4">
    <path d="M 54.295938 240.758125 
L 544.646847 240.758125 
" style="fill: none; stroke: #000000; stroke-width: 0.8; stroke-linejoin: miter; stroke-linecap: square"/>
   </g>
   <g id="PathCollection_1">
    <defs>
     <path id="m6821d8c841" d="M 0 2.738613 
C 0.726289 2.738613 1.422928 2.450055 1.936492 1.936492 
C 2.450055 1.422928 2.738613 0.726289 2.738613 0 
C 2.738613 -0.726289 2.450055 -1.422928 1.936492 -1.936492 
C 1.422928 -2.450055 0.726289 -2.738613 0 -2.738613 
C -0.726289 -2.738613 -1.422928 -2.450055 -1.936492 -1.936492 
C -2.450055 -1.422928 -2.738613 -0.726289 -2.738613 0 
C -2.738613 0.726289 -2.450055 1.422928 -1.936492 1.936492 
C -1.422928 2.450055 -0.726289 2.738613 0 2.738613 
z
" style="stroke: #ffffff; stroke-width: 0.8"/>
    </defs>
    <g clip-path="url(#pbbc63ed01e)">
     <use xlink:href="#m6821d8c841" x="76.584615" y="32.247216" style="fill: #2166ac; stroke: #ffffff; stroke-width: 0.8"/>
     <use xlink:href="#m6821d8c841" x="99.098431" y="58.057856" style="fill: #2166ac; stroke: #ffffff; stroke-width: 0.8"/>
     <use xlink:href="#m6821d8c841" x="121.612247" y="82.136008" style="fill: #2166ac; stroke: #ffffff; stroke-width: 0.8"/>
     <use xlink:href="#m6821d8c841" x="144.126063" y="104.474547" style="fill: #2166ac; stroke: #ffffff; stroke-width: 0.8"/>
     <use xlink:href="#m6821d8c841" x="166.639879" y="125.052861" style="fill: #2166ac; stroke: #ffffff; stroke-width: 0.8"/>
     <use xlink:href="#m6821d8c841" x="189.153694" y="143.75999" style="fill: #2166ac; stroke: #ffffff; stroke-width: 0.8"/>
     <use xlink:href="#m6821d8c841" x="211.66751" y="160.514912" style="fill: #2166ac; stroke: #ffffff; stroke-width: 0.8"/>
     <use xlink:href="#m6821d8c841" x="234.181326" y="175.133771" style="fill: #2166ac; stroke: #ffffff; stroke-width: 0.8"/>
     <use xlink:href="#m6821d8c841" x="256.695142" y="187.335904" style="fill: #2166ac; stroke: #ffffff; stroke-width: 0.8"/>
     <use xlink:href="#m6821d8c841" x="279.208958" y="197.018259" style="fill: #2166ac; stroke: #ffffff; stroke-width: 0.8"/>
     <use xlink:href="#m6821d8c841" x="301.722774" y="204.277168" style="fill: #2166ac; stroke: #ffffff; stroke-width: 0.8"/>
     <use xlink:href="#m6821d8c841" x="324.236589" y="209.608988" style="fill: #2166ac; stroke: #ffffff; stroke-width: 0.8"/>
     <use xlink:href="#m6821d8c841" x="346.750405" y="213.578275" style="fill: #2166ac; stroke: #ffffff; stroke-width: 0.8"/>
     <use xlink:href="#m6821d8c841" x="369.264221" y="216.637589" style="fill: #2166ac; stroke: #ffffff; stroke-width: 0.8"/>
     <use xlink:href="#m6821d8c841" x="391.778037" y="219.141975" style="fill: #2166ac; stroke: #ffffff; stroke-width: 0.8"/>
     <use xlink:href="#m6821d8c841" x="414.291853" y="221.365673" style="fill: #2166ac; stroke: #ffffff; stroke-width: 0.8"/>
     <use xlink:href="#m6821d8c841" x="436.805669" y="223.467113" style="fill: #2166ac; stroke: #ffffff; stroke-width: 0.8"/>
     <use xlink:href="#m6821d8c841" x="459.319485" y="225.494649" style="fill: #2166ac; stroke: #ffffff; stroke-width: 0.8"/>
     <use xlink:href="#m6821d8c841" x="481.8333" y="227.452482" style="fill: #2166ac; stroke: #ffffff; stroke-width: 0.8"/>
     <use xlink:href="#m6821d8c841" x="504.347116" y="229.352112" style="fill: #2166ac; stroke: #ffffff; stroke-width: 0.8"/>
    </g>
   </g>
   <g id="patch_5">
    <path d="M 526.56713 232.938573 
Q 525.356643 232.331874 524.945771 232.125945 
" style="fill: none; stroke: #d7191c; stroke-width: 0.8; stroke-linecap: round"/>
    <path d="M 527.089645 234.990173 
L 524.945771 232.125945 
L 528.523478 232.129382 
" style="fill: none; stroke: #d7191c; stroke-width: 0.8; stroke-linecap: round"/>
   </g>
   <g id="text_16">
    <text style="fill: #d7191c; font: 8px 'DejaVu Sans'" transform="translate(530.358169 239.870784)">best</text>
    <text style="fill: #d7191c; font: 8px 'DejaVu Sans'" transform="translate(530.358169 248.829034)">(188.5)</text>
   </g>
   <g id="text_17">
    <text style="font: 700 12px 'DejaVu Sans'; text-anchor: middle" x="299.471392" y="16.318125" transform="rotate(-0 299.471392 16.318125)">Training loss — ignnk</text>
   </g>
   <g id="PathCollection_2">
    <defs>
     <path id="mb7ac18a532" d="M 0 5.477226 
C 1.452577 5.477226 2.845856 4.900111 3.872983 3.872983 
C 4.900111 2.845856 5.477226 1.452577 5.477226 0 
C 5.477226 -1.452577 4.900111 -2.845856 3.872983 -3.872983 
C 2.845856 -4.900111 1.452577 -5.477226 0 -5.477226 
C -1.452577 -5.477226 -2.845856 -4.900111 -3.872983 -3.872983 
C -4.900111 -2.845856 -5.477226 -1.452577 -5.477226 0 
C -5.477226 1.452577 -4.900111 2.845856 -3.872983 3.872983 
C -2.845856 4.900111 -1.452577 5.477226 0 5.477226 
z
" style="stroke: #ffffff; stroke-width: 1.2"/>
    </defs>
    <g clip-path="url(#pbbc63ed01e)">
     <use xlink:href="#mb7ac18a532" x="522.358169" y="230.829034" style="fill: #d7191c; stroke: #ffffff; stroke-width: 1.2"/>
    </g>
   </g>
  </g>
 </g>
 <defs>
  <clipPath id="pbbc63ed01e">
   <rect x="54.295938" y="22.318125" width="490.350909" height="218.44"/>
  </clipPath>
 </defs>
</svg>
