<?xml version="1.0" encoding="utf-8" standalone="no"?>
<!DOCTYPE svg PUBLIC "-//W3C//DTD SVG 1.1//EN"
  "http://www.w3.org/Graphics/SVG/1.1/DTD/svg11.dtd">
<svg xmlns:xlink="http://www.w3.org/1999/xlink" width="566.531351pt" height="279.282188pt" viewBox="0 0 566.531351 279.282188" xmlns="http://www.w3.org/2000/svg" version="1.1">
 <metadata>
  <rdf:RDF xmlns:dc="http://purl.org/dc/elements/1.1/" xmlns:cc="http://creativecommons.org/ns#" xmlns:rdf="http://www.w3.org/1999/02/22-rdf-syntax-ns#">
   <cc:Work>
    <dc:type rdf:resource="http://purl.org/dc/dcmitype/StillImage"/>
    <dc:date>2026-06-30T18:36:16.625360</dc:date>
    <dc:format>image/svg+xml</dc:format>
    <dc:creator>
     <cc:Agent>
      <dc:title>Matplotlib v3.9.4, https://matplotlib.org/</dc:title>
     </cc:Agent>
    </dc:creator>
   </cc:Work>
  </rdf:RDF>
 </metadata>
 <defs>
  <style type="text/css">*{stroke-linejoin: round; stroke-linecap: butt}</style>
 </defs>
 <g id="figure_1">
  <g id="patch_1">
   <path d="M 0 279.282188 
L 566.531351 279.282188 
L 566.531351 0 
L 0 0 
z
" style="fill: #ffffff"/>
  </g>
  <g id="axes_1">
   <g id="patch_2">
    <path d="M 54.295938 240.758125 
L 544.466847 240.758125 
L 544.466847 22.318125 
L 54.295938 22.318125 
z
" style="fill: #ffffff"/>
   </g>
   <g id="matplotlib.axis_1">
    <g id="xtick_1">
     <g id="line2d_1">
      <defs>
       <path id="m7955d5e06f" d="M 0 0 
L 0 3.5 
" style="stroke: #000000; stroke-width: 0.8"/>
      </defs>
      <g>
       <use xlink:href="#m7955d5e06f" x="72.075323" y="240.758125" style="stroke: #000000; stroke-width: 0.8"/>
      </g>
     </g>
     <g id="text_1">
      <text style="font: 10px 'DejaVu Sans'; text-anchor: middle" x="72.075323" y="255.356563" transform="rotate(-0 72.075323 255.356563)">0</text>
     </g>
    </g>
    <g id="xtick_2">
     <g id="line2d_2">
      <g>
       <use xlink:href="#m7955d5e06f" x="162.097529" y="240.758125" style="stroke: #000000; stroke-width: 0.8"/>
      </g>
     </g>
     <g id="text_2">
      <text style="font: 10px 'DejaVu Sans'; text-anchor: middle" x="162.097529" y="255.356563" transform="rotate(-0 162.097529 255.356563)">20</text>
     </g>
    </g>
    <g id="xtick_3">
     <g id="line2d_3">
      <g>
       <use xlink:href="#m7955d5e06f" x="252.119734" y="240.758125" style="stroke: #000000; stroke-width: 0.8"/>
      </g>
     </g>
     <g id="text_3">
      <text style="font: 10px 'DejaVu Sans'; text-anchor: middle" x="252.119734" y="255.356563" transform="rotate(-0 252.119734 255.356563)">40</text>
     </g>
    </g>
    <g id="xtick_4">
     <g id="line2d_4">
      <g>
       <use xlink:href="#m7955d5e06f" x="342.14194" y="240.758125" style="stroke: #000000; stroke-width: 0.8"/>
      </g>
     </g>
     <g id="text_4">
      <text style="font: 10px 'DejaVu Sans'; text-anchor: middle" x="342.14194" y="255.356563" transform="rotate(-0 342.14194 255.356563)">60</text>
     </g>
    </g>
    <g id="xtick_5">
     <g id="line2d_5">
      <g>
       <use xlink:href="#m7955d5e06f" x="432.164145" y="240.758125" style="stroke: #000000; stroke-width: 0.8"/>
      </g>
     </g>
     <g id="text_5">
      <text style="font: 10px 'DejaVu Sans'; text-anchor: middle" x="432.164145" y="255.356563" transform="rotate(-0 432.164145 255.356563)">80</text>
     </g>
    </g>
    <g id="xtick_6">
     <g id="line2d_6">
      <g>
       <use xlink:href="#m7955d5e06f" x="522.186351" y="240.758125" style="stroke: #000000; stroke-width: 0.8"/>
      </g>
     </g>
     <g id="text_6">
      <text style="font: 10px 'DejaVu Sans'; text-anchor: middle" x="522.186351" y="255.356563" transform="rotate(-0 522.186351 255.356563)">100</text>
     </g>
    </g>
    <g id="text_7">
     <text style="font: 11px 'DejaVu Sans'; text-anchor: middle" x="299.381392" y="269.794531" transform="rotate(-0 299.381392 269.794531)">Epoch</text>
    </g>
   </g>
   <g id="matplotlib.axis_2">
    <g id="ytick_1">
     <g id="line2d_7">
      <path d="M 54.295938 216.640095 
L 544.466847 216.640095 
" clip-path="url(#p4113b7d3f5)" style="fill: none; stroke-dasharray: 2.96,1.28; stroke-dashoffset: 0; stroke: #b0b0b0; stroke-opacity: 0.4; stroke-width: 0.8"/>
     </g>
     <g id="line2d_8">
      <defs>
       <path id="m11f3c9d040" d="M 0 0 
L -3.5 0 
" style="stroke: #000000; stroke-width: 0.8"/>
      </defs>
      <g>
       <use xlink:href="#m11f3c9d040" x="54.295938" y="216.640095" style="stroke: #000000; stroke-width: 0.8"/>
      </g>
     </g>
     <g id="text_8">
      <text style="font: 10px 'DejaVu Sans'; text-anchor: end" x="47.295938" y="220.439314" transform="rotate(-0 47.295938 220.439314)">300</text>
     </g>
    </g>
    <g id="ytick_2">
     <g id="line2d_9">
      <path d="M 54.295938 191.189321 
L 544.466847 191.189321 
" clip-path="url(#p4113b7d3f5)" style="fill: none; stroke-dasharray: 2.96,1.28; stroke-dashoffset: 0; stroke: #b0b0b0; stroke-opacity: 0.4; stroke-width: 0.8"/>
     </g>
     <g id="line2d_10">
      <g>
       <use xlink:href="#m11f3c9d040" x="54.295938" y="191.189321" style="stroke: #000000; stroke-width: 0.8"/>
      </g>
     </g>
     <g id="text_9">
      <text style="font: 10px 'DejaVu Sans'; text-anchor: end" x="47.295938" y="194.98854" transform="rotate(-0 47.295938 194.98854)">400</text>
     </g>
    </g>
    <g id="ytick_3">
     <g id="line2d_11">
      <path d="M 54.295938 165.738547 
L 544.466847 165.738547 
" clip-path="url(#p4113b7d3f5)" style="fill: none; stroke-dasharray: 2.96,1.28; stroke-dashoffset: 0; stroke: #b0b0b0; stroke-opacity: 0.4; stroke-width: 0.8"/>
     </g>
     <g id="line2d_12">
      <g>
       <use xlink:href="#m11f3c9d040" x="54.295938" y="165.738547" style="stroke: #000000; stroke-width: 0.8"/>
      </g>
     </g>
     <g id="text_10">
      <text style="font: 10px 'DejaVu Sans'; text-anchor: end" x="47.295938" y="169.537765" transform="rotate(-0 47.295938 169.537765)">500</text>
     </g>
    </g>
    <g id="ytick_4">
     <g id="line2d_13">
      <path d="M 54.295938 140.287772 
L 544.466847 140.287772 
" clip-path="url(#p4113b7d3f5)" style="fill: none; stroke-dasharray: 2.96,1.28; stroke-dashoffset: 0; stroke: #b0b0b0; stroke-opacity: 0.4; stroke-width: 0.8"/>
     </g>
     <g id="line2d_14">
      <g>
       <use xlink:href="#m11f3c9d040" x="54.295938" y="140.287772" style="stroke: #000000; stroke-width: 0.8"/>
      </g>
     </g>
     <g id="text_11">
      <text style="font: 10px 'DejaVu Sans'; text-anchor: end" x="47.295938" y="144.086991" transform="rotate(-0 47.295938 144.086991)">600</text>
     </g>
    </g>
    <g id="ytick_5">
     <g id="line2d_15">
      <path d="M 54.295938 114.836998 
L 544.466847 114.836998 
" clip-path="url(#p4113b7d3f5)" style="fill: none; stroke-dasharray: 2.96,1.28; stroke-dashoffset: 0; stroke: #b0b0b0; stroke-opacity: 0.4; stroke-width: 0.8"/>
     </g>
     <g id="line2d_16">
      <g>
       <use xlink:href="#m11f3c9d040" x="54.295938" y="114.836998" style="stroke: #000000; stroke-width: 0.8"/>
      </g>
     </g>
     <g id="text_12">
      <text style="font: 10px 'DejaVu Sans'; text-anchor: end" x="47.295938" y="118.636217" transform="rotate(-0 47.295938 118.636217)">700</text>
     </g>
    </g>
    <g id="ytick_6">
     <g id="line2d_17">
      <path d="M 54.295938 89.386224 
L 544.466847 89.386224 
" clip-path="url(#p4113b7d3f5)" style="fill: none; stroke-dasharray: 2.96,1.28; stroke-dashoffset: 0; stroke: #b0b0b0; stroke-opacity: 0.4; stroke-width: 0.8"/>
     </g>
     <g id="line2d_18">
      <g>
       <use xlink:href="#m11f3c9d040" x="54.295938" y="89.386224" style="stroke: #000000; stroke-width: 0.8"/>
      </g>
     </g>
     <g id="text_13">
      <text style="font: 10px 'DejaVu Sans'; text-anchor: end" x="47.295938" y="93.185442" transform="rotate(-0 47.295938 93.185442)">800</text>
     </g>
    </g>
    <g id="ytick_7">
     <g id="line2d_19">
      <path d="M 54.295938 63.935449 
L 544.466847 63.935449 
" clip-path="url(#p4113b7d3f5)" style="fill: none; stroke-dasharray: 2.96,1.28; stroke-dashoffset: 0; stroke: #b0b0b0; stroke-opacity: 0.4; stroke-width: 0.8"/>
     </g>
     <g id="line2d_20">
      <g>
       <use xlink:href="#m11f3c9d040" x="54.295938" y="63.935449" style="stroke: #000000; stroke-width: 0.8"/>
      </g>
     </g>
     <g id="text_14">
      <text style="font: 10px 'DejaVu Sans'; text-anchor: end" x="47.295938" y="67.734668" transform="rotate(-0 47.295938 67.734668)">900</text>
     </g>
    </g>
    <g id="ytick_8">
     <g id="line2d_21">
      <path d="M 54.295938 38.484675 
L 544.466847 38.484675 
" clip-path="url(#p4113b7d3f5)" style="fill: none; stroke-dasharray: 2.96,1.28; stroke-dashoffset: 0; stroke: #b0b0b0; stroke-opacity: 0.4; stroke-width: 0.8"/>
     </g>
     <g id="line2d_22">
      <g>
       <use xlink:href="#m11f3c9d040" x="54.295938" y="38.484675" style="stroke: #000000; stroke-width: 0.8"/>
      </g>
     </g>
     <g id="text_15">
      <text style="font: 10px 'DejaVu Sans'; text-anchor: end" x="47.295938" y="42.283894" transform="rotate(-0 47.295938 42.283894)">1000</text>
     </g>
    </g>
    <g id="text_16">
     <text style="font: 11px 'DejaVu Sans'; text-anchor: middle" x="15.558281" y="131.538125" transform="rotate(-90 15.558281 131.538125)">Loss</text>
    </g>
   </g>
   <g id="line2d_23">
    <path d="M 76.576433 32.247216 
L 81.077544 40.456209 
L 85.578654 48.371192 
L 90.079764 55.99889 
L 94.580874 63.352166 
L 99.081985 70.447269 
L 103.583095 77.297587 
L 108.084205 83.914991 
L 112.585316 90.308752 
L 117.086426 96.487944 
L 121.587536 102.459229 
L 126.088646 108.226942 
L 130.589757 113.794517 
L 135.090867 119.164872 
L 139.591977 124.339998 
L 144.093088 129.321275 
L 148.594198 134.109389 
L 153.095308 138.705907 
L 157.596418 143.112305 
L 162.097529 147.329438 
L 166.598639 151.358564 
L 171.099749 155.200273 
L 175.600859 158.85643 
L 180.10197 162.328727 
L 184.60308 165.619137 
L 189.10419 168.730131 
L 193.605301 171.664364 
L 198.106411 174.425286 
L 202.607521 177.016716 
L 207.108631 179.443278 
L 211.609742 181.709684 
L 216.110852 183.820721 
L 220.611962 185.780744 
L 225.113072 187.594888 
L 229.614183 189.268202 
L 234.115293 190.807194 
L 238.616403 192.21887 
L 243.117514 193.510819 
L 247.618624 194.692142 
L 252.119734 195.772161 
L 256.620844 196.761307 
L 261.121955 197.670608 
L 265.623065 198.512089 
L 270.124175 199.297973 
L 274.625286 200.040191 
L 279.126396 200.749649 
L 283.627506 201.436893 
L 288.128616 202.111997 
L 292.629727 202.782938 
L 297.130837 203.456706 
L 301.631947 204.138878 
L 306.133057 204.833819 
L 310.634168 205.54417 
L 315.135278 206.270443 
L 319.636388 207.01249 
L 324.137499 207.768021 
L 328.638609 208.533471 
L 333.139719 209.304349 
L 337.640829 210.07623 
L 342.14194 210.844242 
L 346.64305 211.602833 
L 351.14416 212.346862 
L 355.64527 213.072117 
L 360.146381 213.775221 
L 364.647491 214.45365 
L 369.148601 215.106129 
L 373.649712 215.733163 
L 378.150822 216.336423 
L 382.651932 216.918991 
L 387.153042 217.483952 
L 391.654153 218.03536 
L 396.155263 218.577299 
L 400.656373 219.113546 
L 405.157484 219.646678 
L 409.658594 220.177806 
L 414.159704 220.706806 
L 418.660814 221.232854 
L 423.161925 221.753489 
L 427.663035 222.266279 
L 432.164145 222.769967 
L 436.665255 223.262291 
L 441.166366 223.74298 
L 445.667476 224.213301 
L 450.168586 224.67493 
L 454.669697 225.129188 
L 459.170807 225.577272 
L 463.671917 226.019251 
L 468.173027 226.45469 
L 472.674138 226.883077 
L 477.175248 227.303052 
L 481.676358 227.712192 
L 486.177469 228.109682 
L 490.678579 228.494604 
L 495.179689 228.866708 
L 499.680799 229.226139 
L 504.18191 229.573288 
L 508.68302 229.90736 
L 513.18413 230.228143 
L 517.68524 230.535249 
L 522.186351 230.829034 
" clip-path="url(#p4113b7d3f5)" style="fill: none; stroke: #2166ac; stroke-width: 2; stroke-linecap: square"/>
   </g>
   <g id="patch_3">
    <path d="M 54.295938 240.758125 
L 54.295938 22.318125 
" style="fill: none; stroke: #000000; stroke-width: 0.8; stroke-linejoin: miter; stroke-linecap: square"/>
   </g>
   <g id="patch_4">
    <path d="M 54.295938 240.758125 
L 544.466847 240.758125 
" style="fill: none; stroke: #000000; stroke-width: 0.8; stroke-linejoin: miter; stroke-linecap: square"/>
   </g>
   <g id="PathCollection_1">
    <defs>
     <path id="md0de222b60" d="M 0 2.738613 
C 0.726289 2.738613 1.422928 2.450055 1.936492 1.936492 
C 2.450055 1.422928 2.738613 0.726289 2.738613 0 
C 2.738613 -0.726289 2.450055 -1.422928 1.936492 -1.936492 
C 1.422928 -2.450055 0.726289 -2.738613 0 -2.738613 
C -0.726289 -2.738613 -1.422928 -2.450055 -1.936492 -1.936492 
C -2.450055 -1.422928 -2.738613 -0.726289 -2.738613 0 
C -2.738613 0.726289 -2.450055 1.422928 -1.936492 1.936492 
C -1.422928 2.450055 -0.726289 2.738613 0 2.738613 
z
" style="stroke: #ffffff; stroke-width: 0.8"/>
    </defs>
    <g clip-path="url(#p4113b7d3f5)">
     <use xlink:href="#md0de222b60" x="76.576433" y="32.247216" style="fill: #2166ac; stroke: #ffffff; stroke-width: 0.8"/>
     <use xlink:href="#md0de222b60" x="99.081985" y="70.447269" style="fill: #2166ac; stroke: #ffffff; stroke-width: 0.8"/>
     <use xlink:href="#md0de222b60" x="121.587536" y="102.459229" style="fill: #2166ac; stroke: #ffffff; stroke-width: 0.8"/>
     <use xlink:href="#md0de222b60" x="144.093088" y="129.321275" style="fill: #2166ac; stroke: #ffffff; stroke-width: 0.8"/>
     <use xlink:href="#md0de222b60" x="166.598639" y="151.358564" style="fill: #2166ac; stroke: #ffffff; stroke-width: 0.8"/>
     <use xlink:href="#md0de222b60" x="189.10419" y="168.730131" style="fill: #2166ac; stroke: #ffffff; stroke-width: 0.8"/>
     <use xlink:href="#md0de222b60" x="211.609742" y="181.709684" style="fill: #2166ac; stroke: #ffffff; stroke-width: 0.8"/>
     <use xlink:href="#md0de222b60" x="234.115293" y="190.807194" style="fill: #2166ac; stroke: #ffffff; stroke-width: 0.8"/>
     <use xlink:href="#md0de222b60" x="256.620844" y="196.761307" style="fill: #2166ac; stroke: #ffffff; stroke-width: 0.8"/>
     <use xlink:href="#md0de222b60" x="279.126396" y="200.749649" style="fill: #2166ac; stroke: #ffffff; stroke-width: 0.8"/>
     <use xlink:href="#md0de222b60" x="301.631947" y="204.138878" style="fill: #2166ac; stroke: #ffffff; stroke-width: 0.8"/>
     <use xlink:href="#md0de222b60" x="324.137499" y="207.768021" style="fill: #2166ac; stroke: #ffffff; stroke-width: 0.8"/>
     <use xlink:href="#md0de222b60" x="346.64305" y="211.602833" style="fill: #2166ac; stroke: #ffffff; stroke-width: 0.8"/>
     <use xlink:href="#md0de222b60" x="369.148601" y="215.106129" style="fill: #2166ac; stroke: #ffffff; stroke-width: 0.8"/>
     <use xlink:href="#md0de222b60" x="391.654153" y="218.03536" style="fill: #2166ac; stroke: #ffffff; stroke-width: 0.8"/>
     <use xlink:href="#md0de222b60" x="414.159704" y="220.706806" style="fill: #2166ac; stroke: #ffffff; stroke-width: 0.8"/>
     <use xlink:href="#md0de222b60" x="436.665255" y="223.262291" style="fill: #2166ac; stroke: #ffffff; stroke-width: 0.8"/>
     <use xlink:href="#md0de222b60" x="459.170807" y="225.577272" style="fill: #2166ac; stroke: #ffffff; stroke-width: 0.8"/>
     <use xlink:href="#md0de222b60" x="481.676358" y="227.712192" style="fill: #2166ac; stroke: #ffffff; stroke-width: 0.8"/>
     <use xlink:href="#md0de222b60" x="504.18191" y="229.573288" style="fill: #2166ac; stroke: #ffffff; stroke-width: 0.8"/>
    </g>
   </g>
   <g id="patch_5">
    <path d="M 526.395312 232.938573 
Q 525.184825 232.331874 524.773953 232.125945 
" style="fill: none; stroke: #d7191c; stroke-width: 0.8; stroke-linecap: round"/>
    <path d="M 526.917827 234.990173 
L 524.773953 232.125945 
L 528.35166 232.129382 
" style="fill: none; stroke: #d7191c; stroke-width: 0.8; stroke-linecap: round"/>
   </g>
   <g id="text_17">
    <text style="fill: #d7191c; font: 8px 'DejaVu Sans'" transform="translate(530.186351 239.870784)">best</text>
    <text style="fill: #d7191c; font: 8px 'DejaVu Sans'" transform="translate(530.186351 248.829034)">(244.2)</text>
   </g>
   <g id="text_18">
    <text style="font: 700 12px 'DejaVu Sans'; text-anchor: middle" x="299.381392" y="16.318125" transform="rotate(-0 299.381392 16.318125)">Training loss — stgcn</text>
   </g>
   <g id="PathCollection_2">
    <defs>
     <path id="mfde174cc3d" d="M 0 5.477226 
C 1.452577 5.477226 2.845856 4.900111 3.872983 3.872983 
C 4.900111 2.845856 5.477226 1.452577 5.477226 0 
C 5.477226 -1.452577 4.900111 -2.845856 3.872983 -3.872983 
C 2.845856 -4.900111 1.452577 -5.477226 0 -5.477226 
C -1.452577 -5.477226 -2.845856 -4.900111 -3.872983 -3.872983 
C -4.900111 -2.845856 -5.477226 -1.452577 -5.477226 0 
C -5.477226 1.452577 -4.900111 2.845856 -3.872983 3.872983 
C -2.845856 4.900111 -1.452577 5.477226 0 5.477226 
z
" style="stroke: #ffffff; stroke-width: 1.2"/>
    </defs>
    <g clip-path="url(#p4113b7d3f5)">
     <use xlink:href="#mfde174cc3d" x="522.186351" y="230.829034" style="fill: #d7191c; stroke: #ffffff; stroke-width: 1.2"/>
    </g>
   </g>
  </g>
 </g>
 <defs>
  <clipPath id="p4113b7d3f5">
   <rect x="54.295938" y="22.318125" width="490.170909" height="218.44"/>
  </clipPath>
 </defs>
</svg>
