<?xml version="1.0" encoding="utf-8" standalone="no"?>
<!DOCTYPE svg PUBLIC "-//W3C//DTD SVG 1.1//EN"
  "http://www.w3.org/Graphics/SVG/1.1/DTD/svg11.dtd">
<svg xmlns:xlink="http://www.w3.org/1999/xlink" width="566.703169pt" height="279.282188pt" viewBox="0 0 566.703169 279.282188" xmlns="http://www.w3.org/2000/svg" version="1.1">
 <metadata>
  <rdf:RDF xmlns:dc="http://purl.org/dc/elements/1.1/" xmlns:cc="http://creativecommons.org/ns#" xmlns:rdf="http://www.w3.org/1999/02/22-rdf-syntax-ns#">
   <cc:Work>
    <dc:type rdf:resource="http://purl.org/dc/dcmitype/StillImage"/>
    <dc:date>2026-06-30T18:45:11.391577</dc:date>
    <dc:format>image/svg+xml</dc:format>
    <dc:creator>
     <cc:Agent>
      <dc:title>Matplotlib v3.9.4, https://matplotlib.org/</dc:title>
     </cc:Agent>
    </dc:creator>
   </cc:Work>
  </rdf:RDF>
 </metadata>
 <defs>
  <style type="text/css">*{stroke-linejoin: round; stroke-linecap: butt}</style>
 </defs>
 <g id="figure_1">
  <g id="patch_1">
   <path d="M 0 279.282188 
L 566.703169 279.282188 
L 566.703169 0 
L 0 0 
z
" style="fill: #ffffff"/>
  </g>
  <g id="axes_1">
   <g id="patch_2">
    <path d="M 54.295938 240.758125 
L 544.646847 240.758125 
L 544.646847 22.318125 
L 54.295938 22.318125 
z
" style="fill: #ffffff"/>
   </g>
   <g id="matplotlib.axis_1">
    <g id="xtick_1">
     <g id="line2d_1">
      <defs>
       <path id="m8de6f250bb" d="M 0 0 
L 0 3.5 
" style="stroke: #000000; stroke-width: 0.8"/>
      </defs>
      <g>
       <use xlink:href="#m8de6f250bb" x="72.081852" y="240.758125" style="stroke: #000000; stroke-width: 0.8"/>
      </g>
     </g>
     <g id="text_1">
      <text style="font: 10px 'DejaVu Sans'; text-anchor: middle" x="72.081852" y="255.356563" transform="rotate(-0 72.081852 255.356563)">0</text>
     </g>
    </g>
    <g id="xtick_2">
     <g id="line2d_2">
      <g>
       <use xlink:href="#m8de6f250bb" x="162.137115" y="240.758125" style="stroke: #000000; stroke-width: 0.8"/>
      </g>
     </g>
     <g id="text_2">
      <text style="font: 10px 'DejaVu Sans'; text-anchor: middle" x="162.137115" y="255.356563" transform="rotate(-0 162.137115 255.356563)">20</text>
     </g>
    </g>
    <g id="xtick_3">
     <g id="line2d_3">
      <g>
       <use xlink:href="#m8de6f250bb" x="252.192379" y="240.758125" style="stroke: #000000; stroke-width: 0.8"/>
      </g>
     </g>
     <g id="text_3">
      <text style="font: 10px 'DejaVu Sans'; text-anchor: middle" x="252.192379" y="255.356563" transform="rotate(-0 252.192379 255.356563)">40</text>
     </g>
    </g>
    <g id="xtick_4">
     <g id="line2d_4">
      <g>
       <use xlink:href="#m8de6f250bb" x="342.247642" y="240.758125" style="stroke: #000000; stroke-width: 0.8"/>
      </g>
     </g>
     <g id="text_4">
      <text style="font: 10px 'DejaVu Sans'; text-anchor: middle" x="342.247642" y="255.356563" transform="rotate(-0 342.247642 255.356563)">60</text>
     </g>
    </g>
    <g id="xtick_5">
     <g id="line2d_5">
      <g>
       <use xlink:href="#m8de6f250bb" x="432.302906" y="240.758125" style="stroke: #000000; stroke-width: 0.8"/>
      </g>
     </g>
     <g id="text_5">
      <text style="font: 10px 'DejaVu Sans'; text-anchor: middle" x="432.302906" y="255.356563" transform="rotate(-0 432.302906 255.356563)">80</text>
     </g>
    </g>
    <g id="xtick_6">
     <g id="line2d_6">
      <g>
       <use xlink:href="#m8de6f250bb" x="522.358169" y="240.758125" style="stroke: #000000; stroke-width: 0.8"/>
      </g>
     </g>
     <g id="text_6">
      <text style="font: 10px 'DejaVu Sans'; text-anchor: middle" x="522.358169" y="255.356563" transform="rotate(-0 522.358169 255.356563)">100</text>
     </g>
    </g>
    <g id="text_7">
     <text style="font: 11px 'DejaVu Sans'; text-anchor: middle" x="299.471392" y="269.794531" transform="rotate(-0 299.471392 269.794531)">Epoch</text>
    </g>
   </g>
   <g id="matplotlib.axis_2">
    <g id="ytick_1">
     <g id="line2d_7">
      <path d="M 54.295938 216.192833 
L 544.646847 216.192833 
" clip-path="url(#p50f6533c0c)" style="fill: none; stroke-dasharray: 2.96,1.28; stroke-dashoffset: 0; stroke: #b0b0b0; stroke-opacity: 0.4; stroke-width: 0.8"/>
     </g>
     <g id="line2d_8">
      <defs>
       <path id="m939e1a5c0b" d="M 0 0 
L -3.5 0 
" style="stroke: #000000; stroke-width: 0.8"/>
      </defs>
      <g>
       <use xlink:href="#m939e1a5c0b" x="54.295938" y="216.192833" style="stroke: #000000; stroke-width: 0.8"/>
      </g>
     </g>
     <g id="text_8">
      <text style="font: 10px 'DejaVu Sans'; text-anchor: end" x="47.295938" y="219.992052" transform="rotate(-0 47.295938 219.992052)">400</text>
     </g>
    </g>
    <g id="ytick_2">
     <g id="line2d_9">
      <path d="M 54.295938 177.504774 
L 544.646847 177.504774 
" clip-path="url(#p50f6533c0c)" style="fill: none; stroke-dasharray: 2.96,1.28; stroke-dashoffset: 0; stroke: #b0b0b0; stroke-opacity: 0.4; stroke-width: 0.8"/>
     </g>
     <g id="line2d_10">
      <g>
       <use xlink:href="#m939e1a5c0b" x="54.295938" y="177.504774" style="stroke: #000000; stroke-width: 0.8"/>
      </g>
     </g>
     <g id="text_9">
      <text style="font: 10px 'DejaVu Sans'; text-anchor: end" x="47.295938" y="181.303993" transform="rotate(-0 47.295938 181.303993)">600</text>
     </g>
    </g>
    <g id="ytick_3">
     <g id="line2d_11">
      <path d="M 54.295938 138.816715 
L 544.646847 138.816715 
" clip-path="url(#p50f6533c0c)" style="fill: none; stroke-dasharray: 2.96,1.28; stroke-dashoffset: 0; stroke: #b0b0b0; stroke-opacity: 0.4; stroke-width: 0.8"/>
     </g>
     <g id="line2d_12">
      <g>
       <use xlink:href="#m939e1a5c0b" x="54.295938" y="138.816715" style="stroke: #000000; stroke-width: 0.8"/>
      </g>
     </g>
     <g id="text_10">
      <text style="font: 10px 'DejaVu Sans'; text-anchor: end" x="47.295938" y="142.615933" transform="rotate(-0 47.295938 142.615933)">800</text>
     </g>
    </g>
    <g id="ytick_4">
     <g id="line2d_13">
      <path d="M 54.295938 100.128655 
L 544.646847 100.128655 
" clip-path="url(#p50f6533c0c)" style="fill: none; stroke-dasharray: 2.96,1.28; stroke-dashoffset: 0; stroke: #b0b0b0; stroke-opacity: 0.4; stroke-width: 0.8"/>
     </g>
     <g id="line2d_14">
      <g>
       <use xlink:href="#m939e1a5c0b" x="54.295938" y="100.128655" style="stroke: #000000; stroke-width: 0.8"/>
      </g>
     </g>
     <g id="text_11">
      <text style="font: 10px 'DejaVu Sans'; text-anchor: end" x="47.295938" y="103.927874" transform="rotate(-0 47.295938 103.927874)">1000</text>
     </g>
    </g>
    <g id="ytick_5">
     <g id="line2d_15">
      <path d="M 54.295938 61.440596 
L 544.646847 61.440596 
" clip-path="url(#p50f6533c0c)" style="fill: none; stroke-dasharray: 2.96,1.28; stroke-dashoffset: 0; stroke: #b0b0b0; stroke-opacity: 0.4; stroke-width: 0.8"/>
     </g>
     <g id="line2d_16">
      <g>
       <use xlink:href="#m939e1a5c0b" x="54.295938" y="61.440596" style="stroke: #000000; stroke-width: 0.8"/>
      </g>
     </g>
     <g id="text_12">
      <text style="font: 10px 'DejaVu Sans'; text-anchor: end" x="47.295938" y="65.239815" transform="rotate(-0 47.295938 65.239815)">1200</text>
     </g>
    </g>
    <g id="ytick_6">
     <g id="line2d_17">
      <path d="M 54.295938 22.752537 
L 544.646847 22.752537 
" clip-path="url(#p50f6533c0c)" style="fill: none; stroke-dasharray: 2.96,1.28; stroke-dashoffset: 0; stroke: #b0b0b0; stroke-opacity: 0.4; stroke-width: 0.8"/>
     </g>
     <g id="line2d_18">
      <g>
       <use xlink:href="#m939e1a5c0b" x="54.295938" y="22.752537" style="stroke: #000000; stroke-width: 0.8"/>
      </g>
     </g>
     <g id="text_13">
      <text style="font: 10px 'DejaVu Sans'; text-anchor: end" x="47.295938" y="26.551756" transform="rotate(-0 47.295938 26.551756)">1400</text>
     </g>
    </g>
    <g id="text_14">
     <text style="font: 11px 'DejaVu Sans'; text-anchor: middle" x="15.558281" y="131.538125" transform="rotate(-90 15.558281 131.538125)">Loss</text>
    </g>
   </g>
   <g id="line2d_19">
    <path d="M 76.584615 32.247216 
L 81.087378 39.973918 
L 85.590142 47.434333 
L 90.092905 54.653184 
L 94.595668 61.655123 
L 99.098431 68.467778 
L 103.601194 75.116603 
L 108.103957 81.624953 
L 112.606721 88.011694 
L 117.109484 94.294159 
L 121.612247 100.484957 
L 126.11501 106.593651 
L 130.617773 112.626913 
L 135.120536 118.587906 
L 139.6233 124.476725 
L 144.126063 130.291138 
L 148.628826 136.026164 
L 153.131589 141.672427 
L 157.634352 147.218534 
L 162.137115 152.649502 
L 166.639879 157.948791 
L 171.142642 163.096518 
L 175.645405 168.070498 
L 180.148168 172.846315 
L 184.650931 177.398809 
L 189.153694 181.702017 
L 193.656458 185.730803 
L 198.159221 189.460551 
L 202.661984 192.870833 
L 207.164747 195.945806 
L 211.66751 198.67527 
L 216.170273 201.056738 
L 220.673037 203.095736 
L 225.1758 204.806733 
L 229.678563 206.212706 
L 234.181326 207.344563 
L 238.684089 208.239879 
L 243.186852 208.940959 
L 247.689616 209.491887 
L 252.192379 209.936904 
L 256.695142 210.31621 
L 261.197905 210.664212 
L 265.700668 211.007886 
L 270.203431 211.366094 
L 274.706195 211.749851 
L 279.208958 212.163775 
L 283.711721 212.606985 
L 288.214484 213.074777 
L 292.717247 213.560367 
L 297.22001 214.056182 
L 301.722774 214.554818 
L 306.225537 215.050415 
L 310.7283 215.538331 
L 315.231063 216.015845 
L 319.733826 216.481954 
L 324.236589 216.937798 
L 328.739353 217.385034 
L 333.242116 217.826804 
L 337.744879 218.265828 
L 342.247642 218.704434 
L 346.750405 219.14523 
L 351.253168 219.589231 
L 355.755932 220.036479 
L 360.258695 220.486891 
L 364.761458 220.937752 
L 369.264221 221.387261 
L 373.766984 221.832555 
L 378.269748 222.270895 
L 382.772511 222.700492 
L 387.275274 223.120024 
L 391.778037 223.52831 
L 396.2808 223.924441 
L 400.783563 224.307703 
L 405.286327 224.676667 
L 409.78909 225.030926 
L 414.291853 225.370467 
L 418.794616 225.695747 
L 423.297379 226.007803 
L 427.800142 226.308796 
L 432.302906 226.600208 
L 436.805669 226.883898 
L 441.308432 227.160735 
L 445.811195 227.430529 
L 450.313958 227.692861 
L 454.816721 227.946072 
L 459.319485 228.189018 
L 463.822248 228.420854 
L 468.325011 228.641544 
L 472.827774 228.851661 
L 477.330537 229.052687 
L 481.8333 229.246546 
L 486.336064 229.435146 
L 490.838827 229.619808 
L 495.34159 229.801377 
L 499.844353 229.98023 
L 504.347116 230.156232 
L 508.849879 230.329193 
L 513.352643 230.498979 
L 517.855406 230.665583 
L 522.358169 230.829034 
" clip-path="url(#p50f6533c0c)" style="fill: none; stroke: #2166ac; stroke-width: 2; stroke-linecap: square"/>
   </g>
   <g id="patch_3">
    <path d="M 54.295938 240.758125 
L 54.295938 22.318125 
" style="fill: none; stroke: #000000; stroke-width: 0.8; stroke-linejoin: miter; stroke-linecap: square"/>
   </g>
   <g id="patch_4">
    <path d="M 54.295938 240.758125 
L 544.646847 240.758125 
" style="fill: none; stroke: #000000; stroke-width: 0.8; stroke-linejoin: miter; stroke-linecap: square"/>
   </g>
   <g id="PathCollection_1">
    <defs>
     <path id="m05f0b489a5" d="M 0 2.738613 
C 0.726289 2.738613 1.422928 2.450055 1.936492 1.936492 
C 2.450055 1.422928 2.738613 0.726289 2.738613 0 
C 2.738613 -0.726289 2.450055 -1.422928 1.936492 -1.936492 
C 1.422928 -2.450055 0.726289 -2.738613 0 -2.738613 
C -0.726289 -2.738613 -1.422928 -2.450055 -1.936492 -1.936492 
C -2.450055 -1.422928 -2.738613 -0.726289 -2.738613 0 
C -2.738613 0.726289 -2.450055 1.422928 -1.936492 1.936492 
C -1.422928 2.450055 -0.726289 2.738613 0 2.738613 
z
" style="stroke: #ffffff; stroke-width: 0.8"/>
    </defs>
    <g clip-path="url(#p50f6533c0c)">
     <use xlink:href="#m05f0b489a5" x="76.584615" y="32.247216" style="fill: #2166ac; stroke: #ffffff; stroke-width: 0.8"/>
     <use xlink:href="#m05f0b489a5" x="99.098431" y="68.467778" style="fill: #2166ac; stroke: #ffffff; stroke-width: 0.8"/>
     <use xlink:href="#m05f0b489a5" x="121.612247" y="100.484957" style="fill: #2166ac; stroke: #ffffff; stroke-width: 0.8"/>
     <use xlink:href="#m05f0b489a5" x="144.126063" y="130.291138" style="fill: #2166ac; stroke: #ffffff; stroke-width: 0.8"/>
     <use xlink:href="#m05f0b489a5" x="166.639879" y="157.948791" style="fill: #2166ac; stroke: #ffffff; stroke-width: 0.8"/>
     <use xlink:href="#m05f0b489a5" x="189.153694" y="181.702017" style="fill: #2166ac; stroke: #ffffff; stroke-width: 0.8"/>
     <use xlink:href="#m05f0b489a5" x="211.66751" y="198.67527" style="fill: #2166ac; stroke: #ffffff; stroke-width: 0.8"/>
     <use xlink:href="#m05f0b489a5" x="234.181326" y="207.344563" style="fill: #2166ac; stroke: #ffffff; stroke-width: 0.8"/>
     <use xlink:href="#m05f0b489a5" x="256.695142" y="210.31621" style="fill: #2166ac; stroke: #ffffff; stroke-width: 0.8"/>
     <use xlink:href="#m05f0b489a5" x="279.208958" y="212.163775" style="fill: #2166ac; stroke: #ffffff; stroke-width: 0.8"/>
     <use xlink:href="#m05f0b489a5" x="301.722774" y="214.554818" style="fill: #2166ac; stroke: #ffffff; stroke-width: 0.8"/>
     <use xlink:href="#m05f0b489a5" x="324.236589" y="216.937798" style="fill: #2166ac; stroke: #ffffff; stroke-width: 0.8"/>
     <use xlink:href="#m05f0b489a5" x="346.750405" y="219.14523" style="fill: #2166ac; stroke: #ffffff; stroke-width: 0.8"/>
     <use xlink:href="#m05f0b489a5" x="369.264221" y="221.387261" style="fill: #2166ac; stroke: #ffffff; stroke-width: 0.8"/>
     <use xlink:href="#m05f0b489a5" x="391.778037" y="223.52831" style="fill: #2166ac; stroke: #ffffff; stroke-width: 0.8"/>
     <use xlink:href="#m05f0b489a5" x="414.291853" y="225.370467" style="fill: #2166ac; stroke: #ffffff; stroke-width: 0.8"/>
     <use xlink:href="#m05f0b489a5" x="436.805669" y="226.883898" style="fill: #2166ac; stroke: #ffffff; stroke-width: 0.8"/>
     <use xlink:href="#m05f0b489a5" x="459.319485" y="228.189018" style="fill: #2166ac; stroke: #ffffff; stroke-width: 0.8"/>
     <use xlink:href="#m05f0b489a5" x="481.8333" y="229.246546" style="fill: #2166ac; stroke: #ffffff; stroke-width: 0.8"/>
     <use xlink:href="#m05f0b489a5" x="504.347116" y="230.156232" style="fill: #2166ac; stroke: #ffffff; stroke-width: 0.8"/>
    </g>
   </g>
   <g id="patch_5">
    <path d="M 526.56713 232.938573 
Q 525.356643 232.331874 524.945771 232.125945 
" style="fill: none; stroke: #d7191c; stroke-width: 0.8; stroke-linecap: round"/>
    <path d="M 527.089645 234.990173 
L 524.945771 232.125945 
L 528.523478 232.129382 
" style="fill: none; stroke: #d7191c; stroke-width: 0.8; stroke-linecap: round"/>
   </g>
   <g id="text_15">
    <text style="fill: #d7191c; font: 8px 'DejaVu Sans'" transform="translate(530.358169 239.870784)">best</text>
    <text style="fill: #d7191c; font: 8px 'DejaVu Sans'" transform="translate(530.358169 248.829034)">(324.3)</text>
   </g>
   <g id="text_16">
    <text style="font: 700 12px 'DejaVu Sans'; text-anchor: middle" x="299.471392" y="16.318125" transform="rotate(-0 299.471392 16.318125)">Training loss — stgcn</text>
   </g>
   <g id="PathCollection_2">
    <defs>
     <path id="mb0cf4e08aa" d="M 0 5.477226 
C 1.452577 5.477226 2.845856 4.900111 3.872983 3.872983 
C 4.900111 2.845856 5.477226 1.452577 5.477226 0 
C 5.477226 -1.452577 4.900111 -2.845856 3.872983 -3.872983 
C 2.845856 -4.900111 1.452577 -5.477226 0 -5.477226 
C -1.452577 -5.477226 -2.845856 -4.900111 -3.872983 -3.872983 
C -4.900111 -2.845856 -5.477226 -1.452577 -5.477226 0 
C -5.477226 1.452577 -4.900111 2.845856 -3.872983 3.872983 
C -2.845856 4.900111 -1.452577 5.477226 0 5.477226 
z
" style="stroke: #ffffff; stroke-width: 1.2"/>
    </defs>
    <g clip-path="url(#p50f6533c0c)">
     <use xlink:href="#mb0cf4e08aa" x="522.358169" y="230.829034" style="fill: #d7191c; stroke: #ffffff; stroke-width: 1.2"/>
    </g>
   </g>
  </g>
 </g>
 <defs>
  <clipPath id="p50f6533c0c">
   <rect x="54.295938" y="22.318125" width="490.350909" height="218.44"/>
  </clipPath>
 </defs>
</svg>
