<?xml version="1.0" encoding="utf-8" standalone="no"?>
<!DOCTYPE svg PUBLIC "-//W3C//DTD SVG 1.1//EN"
  "http://www.w3.org/Graphics/SVG/1.1/DTD/svg11.dtd">
<svg xmlns:xlink="http://www.w3.org/1999/xlink" width="566.531351pt" height="279.282188pt" viewBox="0 0 566.531351 279.282188" xmlns="http://www.w3.org/2000/svg" version="1.1">
 <metadata>
  <rdf:RDF xmlns:dc="http://purl.org/dc/elements/1.1/" xmlns:cc="http://creativecommons.org/ns#" xmlns:rdf="http://www.w3.org/1999/02/22-rdf-syntax-ns#">
   <cc:Work>
    <dc:type rdf:resource="http://purl.org/dc/dcmitype/StillImage"/>
    <dc:date>2026-06-30T18:38:38.482748</dc:date>
    <dc:format>image/svg+xml</dc:format>
    <dc:creator>
     <cc:Agent>
      <dc:title>Matplotlib v3.9.4, https://matplotlib.org/</dc:title>
     </cc:Agent>
    </dc:creator>
   </cc:Work>
  </rdf:RDF>
 </metadata>
 <defs>
  <style type="text/css">*{stroke-linejoin: round; stroke-linecap: butt}</style>
 </defs>
 <g id="figure_1">
  <g id="patch_1">
   <path d="M 0 279.282188 
L 566.531351 279.282188 
L 566.531351 0 
L 0 0 
z
" style="fill: #ffffff"/>
  </g>
  <g id="axes_1">
   <g id="patch_2">
    <path d="M 54.295938 240.758125 
L 544.466847 240.758125 
L 544.466847 22.318125 
L 54.295938 22.318125 
z
" style="fill: #ffffff"/>
   </g>
   <g id="matplotlib.axis_1">
    <g id="xtick_1">
     <g id="line2d_1">
      <defs>
       <path id="md417e7aa6d" d="M 0 0 
L 0 3.5 
" style="stroke: #000000; stroke-width: 0.8"/>
      </defs>
      <g>
       <use xlink:href="#md417e7aa6d" x="72.075323" y="240.758125" style="stroke: #000000; stroke-width: 0.8"/>
      </g>
     </g>
     <g id="text_1">
      <text style="font: 10px 'DejaVu Sans'; text-anchor: middle" x="72.075323" y="255.356563" transform="rotate(-0 72.075323 255.356563)">0</text>
     </g>
    </g>
    <g id="xtick_2">
     <g id="line2d_2">
      <g>
       <use xlink:href="#md417e7aa6d" x="162.097529" y="240.758125" style="stroke: #000000; stroke-width: 0.8"/>
      </g>
     </g>
     <g id="text_2">
      <text style="font: 10px 'DejaVu Sans'; text-anchor: middle" x="162.097529" y="255.356563" transform="rotate(-0 162.097529 255.356563)">20</text>
     </g>
    </g>
    <g id="xtick_3">
     <g id="line2d_3">
      <g>
       <use xlink:href="#md417e7aa6d" x="252.119734" y="240.758125" style="stroke: #000000; stroke-width: 0.8"/>
      </g>
     </g>
     <g id="text_3">
      <text style="font: 10px 'DejaVu Sans'; text-anchor: middle" x="252.119734" y="255.356563" transform="rotate(-0 252.119734 255.356563)">40</text>
     </g>
    </g>
    <g id="xtick_4">
     <g id="line2d_4">
      <g>
       <use xlink:href="#md417e7aa6d" x="342.14194" y="240.758125" style="stroke: #000000; stroke-width: 0.8"/>
      </g>
     </g>
     <g id="text_4">
      <text style="font: 10px 'DejaVu Sans'; text-anchor: middle" x="342.14194" y="255.356563" transform="rotate(-0 342.14194 255.356563)">60</text>
     </g>
    </g>
    <g id="xtick_5">
     <g id="line2d_5">
      <g>
       <use xlink:href="#md417e7aa6d" x="432.164145" y="240.758125" style="stroke: #000000; stroke-width: 0.8"/>
      </g>
     </g>
     <g id="text_5">
      <text style="font: 10px 'DejaVu Sans'; text-anchor: middle" x="432.164145" y="255.356563" transform="rotate(-0 432.164145 255.356563)">80</text>
     </g>
    </g>
    <g id="xtick_6">
     <g id="line2d_6">
      <g>
       <use xlink:href="#md417e7aa6d" x="522.186351" y="240.758125" style="stroke: #000000; stroke-width: 0.8"/>
      </g>
     </g>
     <g id="text_6">
      <text style="font: 10px 'DejaVu Sans'; text-anchor: middle" x="522.186351" y="255.356563" transform="rotate(-0 522.186351 255.356563)">100</text>
     </g>
    </g>
    <g id="text_7">
     <text style="font: 11px 'DejaVu Sans'; text-anchor: middle" x="299.381392" y="269.794531" transform="rotate(-0 299.381392 269.794531)">Epoch</text>
    </g>
   </g>
   <g id="matplotlib.axis_2">
    <g id="ytick_1">
     <g id="line2d_7">
      <path d="M 54.295938 213.14261 
L 544.466847 213.14261 
" clip-path="url(#p2f268a6c82)" style="fill: none; stroke-dasharray: 2.96,1.28; stroke-dashoffset: 0; stroke: #b0b0b0; stroke-opacity: 0.4; stroke-width: 0.8"/>
     </g>
     <g id="line2d_8">
      <defs>
       <path id="mcd35a29140" d="M 0 0 
L -3.5 0 
" style="stroke: #000000; stroke-width: 0.8"/>
      </defs>
      <g>
       <use xlink:href="#mcd35a29140" x="54.295938" y="213.14261" style="stroke: #000000; stroke-width: 0.8"/>
      </g>
     </g>
     <g id="text_8">
      <text style="font: 10px 'DejaVu Sans'; text-anchor: end" x="47.295938" y="216.941829" transform="rotate(-0 47.295938 216.941829)">400</text>
     </g>
    </g>
    <g id="ytick_2">
     <g id="line2d_9">
      <path d="M 54.295938 178.184822 
L 544.466847 178.184822 
" clip-path="url(#p2f268a6c82)" style="fill: none; stroke-dasharray: 2.96,1.28; stroke-dashoffset: 0; stroke: #b0b0b0; stroke-opacity: 0.4; stroke-width: 0.8"/>
     </g>
     <g id="line2d_10">
      <g>
       <use xlink:href="#mcd35a29140" x="54.295938" y="178.184822" style="stroke: #000000; stroke-width: 0.8"/>
      </g>
     </g>
     <g id="text_9">
      <text style="font: 10px 'DejaVu Sans'; text-anchor: end" x="47.295938" y="181.984041" transform="rotate(-0 47.295938 181.984041)">600</text>
     </g>
    </g>
    <g id="ytick_3">
     <g id="line2d_11">
      <path d="M 54.295938 143.227034 
L 544.466847 143.227034 
" clip-path="url(#p2f268a6c82)" style="fill: none; stroke-dasharray: 2.96,1.28; stroke-dashoffset: 0; stroke: #b0b0b0; stroke-opacity: 0.4; stroke-width: 0.8"/>
     </g>
     <g id="line2d_12">
      <g>
       <use xlink:href="#mcd35a29140" x="54.295938" y="143.227034" style="stroke: #000000; stroke-width: 0.8"/>
      </g>
     </g>
     <g id="text_10">
      <text style="font: 10px 'DejaVu Sans'; text-anchor: end" x="47.295938" y="147.026253" transform="rotate(-0 47.295938 147.026253)">800</text>
     </g>
    </g>
    <g id="ytick_4">
     <g id="line2d_13">
      <path d="M 54.295938 108.269246 
L 544.466847 108.269246 
" clip-path="url(#p2f268a6c82)" style="fill: none; stroke-dasharray: 2.96,1.28; stroke-dashoffset: 0; stroke: #b0b0b0; stroke-opacity: 0.4; stroke-width: 0.8"/>
     </g>
     <g id="line2d_14">
      <g>
       <use xlink:href="#mcd35a29140" x="54.295938" y="108.269246" style="stroke: #000000; stroke-width: 0.8"/>
      </g>
     </g>
     <g id="text_11">
      <text style="font: 10px 'DejaVu Sans'; text-anchor: end" x="47.295938" y="112.068465" transform="rotate(-0 47.295938 112.068465)">1000</text>
     </g>
    </g>
    <g id="ytick_5">
     <g id="line2d_15">
      <path d="M 54.295938 73.311458 
L 544.466847 73.311458 
" clip-path="url(#p2f268a6c82)" style="fill: none; stroke-dasharray: 2.96,1.28; stroke-dashoffset: 0; stroke: #b0b0b0; stroke-opacity: 0.4; stroke-width: 0.8"/>
     </g>
     <g id="line2d_16">
      <g>
       <use xlink:href="#mcd35a29140" x="54.295938" y="73.311458" style="stroke: #000000; stroke-width: 0.8"/>
      </g>
     </g>
     <g id="text_12">
      <text style="font: 10px 'DejaVu Sans'; text-anchor: end" x="47.295938" y="77.110677" transform="rotate(-0 47.295938 77.110677)">1200</text>
     </g>
    </g>
    <g id="ytick_6">
     <g id="line2d_17">
      <path d="M 54.295938 38.35367 
L 544.466847 38.35367 
" clip-path="url(#p2f268a6c82)" style="fill: none; stroke-dasharray: 2.96,1.28; stroke-dashoffset: 0; stroke: #b0b0b0; stroke-opacity: 0.4; stroke-width: 0.8"/>
     </g>
     <g id="line2d_18">
      <g>
       <use xlink:href="#mcd35a29140" x="54.295938" y="38.35367" style="stroke: #000000; stroke-width: 0.8"/>
      </g>
     </g>
     <g id="text_13">
      <text style="font: 10px 'DejaVu Sans'; text-anchor: end" x="47.295938" y="42.152889" transform="rotate(-0 47.295938 42.152889)">1400</text>
     </g>
    </g>
    <g id="text_14">
     <text style="font: 11px 'DejaVu Sans'; text-anchor: middle" x="15.558281" y="131.538125" transform="rotate(-90 15.558281 131.538125)">Loss</text>
    </g>
   </g>
   <g id="line2d_19">
    <path d="M 76.576433 32.247216 
L 81.077544 41.028034 
L 85.578654 49.486031 
L 90.079764 57.628994 
L 94.580874 65.466311 
L 99.081985 73.007988 
L 103.583095 80.26414 
L 108.084205 87.245094 
L 112.585316 93.961666 
L 117.086426 100.423992 
L 121.587536 106.642847 
L 126.088646 112.628387 
L 130.589757 118.390095 
L 135.090867 123.9375 
L 139.591977 129.279978 
L 144.093088 134.425092 
L 148.594198 139.379085 
L 153.095308 144.147919 
L 157.596418 148.736396 
L 162.097529 153.148931 
L 166.598639 157.388107 
L 171.099749 161.45611 
L 175.600859 165.354872 
L 180.10197 169.08467 
L 184.60308 172.645493 
L 189.10419 176.035187 
L 193.605301 179.252172 
L 198.106411 182.293706 
L 202.607521 185.156985 
L 207.108631 187.839009 
L 211.609742 190.338478 
L 216.110852 192.652874 
L 220.611962 194.779866 
L 225.113072 196.71955 
L 229.614183 198.47249 
L 234.115293 200.041537 
L 238.616403 201.431586 
L 243.117514 202.65018 
L 247.618624 203.708285 
L 252.119734 204.619164 
L 256.620844 205.398646 
L 261.121955 206.064992 
L 265.623065 206.638449 
L 270.124175 207.139985 
L 274.625286 207.590234 
L 279.126396 208.008825 
L 283.627506 208.413921 
L 288.128616 208.820681 
L 292.629727 209.240754 
L 297.130837 209.682506 
L 301.631947 210.149334 
L 306.133057 210.64192 
L 310.634168 211.159437 
L 315.135278 211.698686 
L 319.636388 212.256354 
L 324.137499 212.828232 
L 328.638609 213.40953 
L 333.139719 213.994877 
L 337.640829 214.578709 
L 342.14194 215.155835 
L 346.64305 215.72287 
L 351.14416 216.276633 
L 355.64527 216.816352 
L 360.146381 217.342175 
L 364.647491 217.854161 
L 369.148601 218.354124 
L 373.649712 218.843675 
L 378.150822 219.324254 
L 382.651932 219.797632 
L 387.153042 220.264337 
L 391.654153 220.723904 
L 396.155263 221.176346 
L 400.656373 221.621314 
L 405.157484 222.057812 
L 409.658594 222.485145 
L 414.159704 222.902915 
L 418.660814 223.310805 
L 423.161925 223.709361 
L 427.663035 224.099441 
L 432.164145 224.482235 
L 436.665255 224.858499 
L 441.166366 225.228784 
L 445.667476 225.593228 
L 450.168586 225.951245 
L 454.669697 226.302044 
L 459.170807 226.644848 
L 463.671917 226.97885 
L 468.173027 227.30452 
L 472.674138 227.621667 
L 477.175248 227.931121 
L 481.676358 228.234303 
L 486.177469 228.532801 
L 490.678579 228.828253 
L 495.179689 229.122116 
L 499.680799 229.414437 
L 504.18191 229.705292 
L 508.68302 229.993538 
L 513.18413 230.278034 
L 517.68524 230.556929 
L 522.186351 230.829034 
" clip-path="url(#p2f268a6c82)" style="fill: none; stroke: #2166ac; stroke-width: 2; stroke-linecap: square"/>
   </g>
   <g id="patch_3">
    <path d="M 54.295938 240.758125 
L 54.295938 22.318125 
" style="fill: none; stroke: #000000; stroke-width: 0.8; stroke-linejoin: miter; stroke-linecap: square"/>
   </g>
   <g id="patch_4">
    <path d="M 54.295938 240.758125 
L 544.466847 240.758125 
" style="fill: none; stroke: #000000; stroke-width: 0.8; stroke-linejoin: miter; stroke-linecap: square"/>
   </g>
   <g id="PathCollection_1">
    <defs>
     <path id="m16f5c76dc6" d="M 0 2.738613 
C 0.726289 2.738613 1.422928 2.450055 1.936492 1.936492 
C 2.450055 1.422928 2.738613 0.726289 2.738613 0 
C 2.738613 -0.726289 2.450055 -1.422928 1.936492 -1.936492 
C 1.422928 -2.450055 0.726289 -2.738613 0 -2.738613 
C -0.726289 -2.738613 -1.422928 -2.450055 -1.936492 -1.936492 
C -2.450055 -1.422928 -2.738613 -0.726289 -2.738613 0 
C -2.738613 0.726289 -2.450055 1.422928 -1.936492 1.936492 
C -1.422928 2.450055 -0.726289 2.738613 0 2.738613 
z
" style="stroke: #ffffff; stroke-width: 0.8"/>
    </defs>
    <g clip-path="url(#p2f268a6c82)">
     <use xlink:href="#m16f5c76dc6" x="76.576433" y="32.247216" style="fill: #2166ac; stroke: #ffffff; stroke-width: 0.8"/>
     <use xlink:href="#m16f5c76dc6" x="99.081985" y="73.007988" style="fill: #2166ac; stroke: #ffffff; stroke-width: 0.8"/>
     <use xlink:href="#m16f5c76dc6" x="121.587536" y="106.642847" style="fill: #2166ac; stroke: #ffffff; stroke-width: 0.8"/>
     <use xlink:href="#m16f5c76dc6" x="144.093088" y="134.425092" style="fill: #2166ac; stroke: #ffffff; stroke-width: 0.8"/>
     <use xlink:href="#m16f5c76dc6" x="166.598639" y="157.388107" style="fill: #2166ac; stroke: #ffffff; stroke-width: 0.8"/>
     <use xlink:href="#m16f5c76dc6" x="189.10419" y="176.035187" style="fill: #2166ac; stroke: #ffffff; stroke-width: 0.8"/>
     <use xlink:href="#m16f5c76dc6" x="211.609742" y="190.338478" style="fill: #2166ac; stroke: #ffffff; stroke-width: 0.8"/>
     <use xlink:href="#m16f5c76dc6" x="234.115293" y="200.041537" style="fill: #2166ac; stroke: #ffffff; stroke-width: 0.8"/>
     <use xlink:href="#m16f5c76dc6" x="256.620844" y="205.398646" style="fill: #2166ac; stroke: #ffffff; stroke-width: 0.8"/>
     <use xlink:href="#m16f5c76dc6" x="279.126396" y="208.008825" style="fill: #2166ac; stroke: #ffffff; stroke-width: 0.8"/>
     <use xlink:href="#m16f5c76dc6" x="301.631947" y="210.149334" style="fill: #2166ac; stroke: #ffffff; stroke-width: 0.8"/>
     <use xlink:href="#m16f5c76dc6" x="324.137499" y="212.828232" style="fill: #2166ac; stroke: #ffffff; stroke-width: 0.8"/>
     <use xlink:href="#m16f5c76dc6" x="346.64305" y="215.72287" style="fill: #2166ac; stroke: #ffffff; stroke-width: 0.8"/>
     <use xlink:href="#m16f5c76dc6" x="369.148601" y="218.354124" style="fill: #2166ac; stroke: #ffffff; stroke-width: 0.8"/>
     <use xlink:href="#m16f5c76dc6" x="391.654153" y="220.723904" style="fill: #2166ac; stroke: #ffffff; stroke-width: 0.8"/>
     <use xlink:href="#m16f5c76dc6" x="414.159704" y="222.902915" style="fill: #2166ac; stroke: #ffffff; stroke-width: 0.8"/>
     <use xlink:href="#m16f5c76dc6" x="436.665255" y="224.858499" style="fill: #2166ac; stroke: #ffffff; stroke-width: 0.8"/>
     <use xlink:href="#m16f5c76dc6" x="459.170807" y="226.644848" style="fill: #2166ac; stroke: #ffffff; stroke-width: 0.8"/>
     <use xlink:href="#m16f5c76dc6" x="481.676358" y="228.234303" style="fill: #2166ac; stroke: #ffffff; stroke-width: 0.8"/>
     <use xlink:href="#m16f5c76dc6" x="504.18191" y="229.705292" style="fill: #2166ac; stroke: #ffffff; stroke-width: 0.8"/>
    </g>
   </g>
   <g id="patch_5">
    <path d="M 526.395312 232.938573 
Q 525.184825 232.331874 524.773953 232.125945 
" style="fill: none; stroke: #d7191c; stroke-width: 0.8; stroke-linecap: round"/>
    <path d="M 526.917827 234.990173 
L 524.773953 232.125945 
L 528.35166 232.129382 
" style="fill: none; stroke: #d7191c; stroke-width: 0.8; stroke-linecap: round"/>
   </g>
   <g id="text_15">
    <text style="fill: #d7191c; font: 8px 'DejaVu Sans'" transform="translate(530.186351 239.870784)">best</text>
    <text style="fill: #d7191c; font: 8px 'DejaVu Sans'" transform="translate(530.186351 248.829034)">(298.8)</text>
   </g>
   <g id="text_16">
    <text style="font: 700 12px 'DejaVu Sans'; text-anchor: middle" x="299.381392" y="16.318125" transform="rotate(-0 299.381392 16.318125)">Training loss — stgcn</text>
   </g>
   <g id="PathCollection_2">
    <defs>
     <path id="ma2e944f559" d="M 0 5.477226 
C 1.452577 5.477226 2.845856 4.900111 3.872983 3.872983 
C 4.900111 2.845856 5.477226 1.452577 5.477226 0 
C 5.477226 -1.452577 4.900111 -2.845856 3.872983 -3.872983 
C 2.845856 -4.900111 1.452577 -5.477226 0 -5.477226 
C -1.452577 -5.477226 -2.845856 -4.900111 -3.872983 -3.872983 
C -4.900111 -2.845856 -5.477226 -1.452577 -5.477226 0 
C -5.477226 1.452577 -4.900111 2.845856 -3.872983 3.872983 
C -2.845856 4.900111 -1.452577 5.477226 0 5.477226 
z
" style="stroke: #ffffff; stroke-width: 1.2"/>
    </defs>
    <g clip-path="url(#p2f268a6c82)">
     <use xlink:href="#ma2e944f559" x="522.186351" y="230.829034" style="fill: #d7191c; stroke: #ffffff; stroke-width: 1.2"/>
    </g>
   </g>
  </g>
 </g>
 <defs>
  <clipPath id="p2f268a6c82">
   <rect x="54.295938" y="22.318125" width="490.170909" height="218.44"/>
  </clipPath>
 </defs>
</svg>
