<?xml version="1.0" encoding="utf-8" standalone="no"?>
<!DOCTYPE svg PUBLIC "-//W3C//DTD SVG 1.1//EN"
  "http://www.w3.org/Graphics/SVG/1.1/DTD/svg11.dtd">
<svg xmlns:xlink="http://www.w3.org/1999/xlink" width="566.703169pt" height="279.282188pt" viewBox="0 0 566.703169 279.282188" xmlns="http://www.w3.org/2000/svg" version="1.1">
 <metadata>
  <rdf:RDF xmlns:dc="http://purl.org/dc/elements/1.1/" xmlns:cc="http://creativecommons.org/ns#" xmlns:rdf="http://www.w3.org/1999/02/22-rdf-syntax-ns#">
   <cc:Work>
    <dc:type rdf:resource="http://purl.org/dc/dcmitype/StillImage"/>
    <dc:date>2026-06-30T09:29:58.586488</dc:date>
    <dc:format>image/svg+xml</dc:format>
    <dc:creator>
     <cc:Agent>
      <dc:title>Matplotlib v3.9.4, https://matplotlib.org/</dc:title>
     </cc:Agent>
    </dc:creator>
   </cc:Work>
  </rdf:RDF>
 </metadata>
 <defs>
  <style type="text/css">*{stroke-linejoin: round; stroke-linecap: butt}</style>
 </defs>
 <g id="figure_1">
  <g id="patch_1">
   <path d="M 0 279.282188 
L 566.703169 279.282188 
L 566.703169 0 
L 0 0 
z
" style="fill: #ffffff"/>
  </g>
  <g id="axes_1">
   <g id="patch_2">
    <path d="M 54.295938 240.758125 
L 544.646847 240.758125 
L 544.646847 22.318125 
L 54.295938 22.318125 
z
" style="fill: #ffffff"/>
   </g>
   <g id="matplotlib.axis_1">
    <g id="xtick_1">
     <g id="line2d_1">
      <defs>
       <path id="m553f6e9855" d="M 0 0 
L 0 3.5 
" style="stroke: #000000; stroke-width: 0.8"/>
      </defs>
      <g>
       <use xlink:href="#m553f6e9855" x="72.081852" y="240.758125" style="stroke: #000000; stroke-width: 0.8"/>
      </g>
     </g>
     <g id="text_1">
      <text style="font: 10px 'DejaVu Sans'; text-anchor: middle" x="72.081852" y="255.356563" transform="rotate(-0 72.081852 255.356563)">0</text>
     </g>
    </g>
    <g id="xtick_2">
     <g id="line2d_2">
      <g>
       <use xlink:href="#m553f6e9855" x="162.137115" y="240.758125" style="stroke: #000000; stroke-width: 0.8"/>
      </g>
     </g>
     <g id="text_2">
      <text style="font: 10px 'DejaVu Sans'; text-anchor: middle" x="162.137115" y="255.356563" transform="rotate(-0 162.137115 255.356563)">20</text>
     </g>
    </g>
    <g id="xtick_3">
     <g id="line2d_3">
      <g>
       <use xlink:href="#m553f6e9855" x="252.192379" y="240.758125" style="stroke: #000000; stroke-width: 0.8"/>
      </g>
     </g>
     <g id="text_3">
      <text style="font: 10px 'DejaVu Sans'; text-anchor: middle" x="252.192379" y="255.356563" transform="rotate(-0 252.192379 255.356563)">40</text>
     </g>
    </g>
    <g id="xtick_4">
     <g id="line2d_4">
      <g>
       <use xlink:href="#m553f6e9855" x="342.247642" y="240.758125" style="stroke: #000000; stroke-width: 0.8"/>
      </g>
     </g>
     <g id="text_4">
      <text style="font: 10px 'DejaVu Sans'; text-anchor: middle" x="342.247642" y="255.356563" transform="rotate(-0 342.247642 255.356563)">60</text>
     </g>
    </g>
    <g id="xtick_5">
     <g id="line2d_5">
      <g>
       <use xlink:href="#m553f6e9855" x="432.302906" y="240.758125" style="stroke: #000000; stroke-width: 0.8"/>
      </g>
     </g>
     <g id="text_5">
      <text style="font: 10px 'DejaVu Sans'; text-anchor: middle" x="432.302906" y="255.356563" transform="rotate(-0 432.302906 255.356563)">80</text>
     </g>
    </g>
    <g id="xtick_6">
     <g id="line2d_6">
      <g>
       <use xlink:href="#m553f6e9855" x="522.358169" y="240.758125" style="stroke: #000000; stroke-width: 0.8"/>
      </g>
     </g>
     <g id="text_6">
      <text style="font: 10px 'DejaVu Sans'; text-anchor: middle" x="522.358169" y="255.356563" transform="rotate(-0 522.358169 255.356563)">100</text>
     </g>
    </g>
    <g id="text_7">
     <text style="font: 11px 'DejaVu Sans'; text-anchor: middle" x="299.471392" y="269.794531" transform="rotate(-0 299.471392 269.794531)">Epoch</text>
    </g>
   </g>
   <g id="matplotlib.axis_2">
    <g id="ytick_1">
     <g id="line2d_7">
      <path d="M 54.295938 198.355101 
L 544.646847 198.355101 
" clip-path="url(#p335c6ba9a5)" style="fill: none; stroke-dasharray: 2.96,1.28; stroke-dashoffset: 0; stroke: #b0b0b0; stroke-opacity: 0.4; stroke-width: 0.8"/>
     </g>
     <g id="line2d_8">
      <defs>
       <path id="maebe8380dc" d="M 0 0 
L -3.5 0 
" style="stroke: #000000; stroke-width: 0.8"/>
      </defs>
      <g>
       <use xlink:href="#maebe8380dc" x="54.295938" y="198.355101" style="stroke: #000000; stroke-width: 0.8"/>
      </g>
     </g>
     <g id="text_8">
      <text style="font: 10px 'DejaVu Sans'; text-anchor: end" x="47.295938" y="202.15432" transform="rotate(-0 47.295938 202.15432)">900</text>
     </g>
    </g>
    <g id="ytick_2">
     <g id="line2d_9">
      <path d="M 54.295938 151.886137 
L 544.646847 151.886137 
" clip-path="url(#p335c6ba9a5)" style="fill: none; stroke-dasharray: 2.96,1.28; stroke-dashoffset: 0; stroke: #b0b0b0; stroke-opacity: 0.4; stroke-width: 0.8"/>
     </g>
     <g id="line2d_10">
      <g>
       <use xlink:href="#maebe8380dc" x="54.295938" y="151.886137" style="stroke: #000000; stroke-width: 0.8"/>
      </g>
     </g>
     <g id="text_9">
      <text style="font: 10px 'DejaVu Sans'; text-anchor: end" x="47.295938" y="155.685356" transform="rotate(-0 47.295938 155.685356)">1000</text>
     </g>
    </g>
    <g id="ytick_3">
     <g id="line2d_11">
      <path d="M 54.295938 105.417172 
L 544.646847 105.417172 
" clip-path="url(#p335c6ba9a5)" style="fill: none; stroke-dasharray: 2.96,1.28; stroke-dashoffset: 0; stroke: #b0b0b0; stroke-opacity: 0.4; stroke-width: 0.8"/>
     </g>
     <g id="line2d_12">
      <g>
       <use xlink:href="#maebe8380dc" x="54.295938" y="105.417172" style="stroke: #000000; stroke-width: 0.8"/>
      </g>
     </g>
     <g id="text_10">
      <text style="font: 10px 'DejaVu Sans'; text-anchor: end" x="47.295938" y="109.216391" transform="rotate(-0 47.295938 109.216391)">1100</text>
     </g>
    </g>
    <g id="ytick_4">
     <g id="line2d_13">
      <path d="M 54.295938 58.948208 
L 544.646847 58.948208 
" clip-path="url(#p335c6ba9a5)" style="fill: none; stroke-dasharray: 2.96,1.28; stroke-dashoffset: 0; stroke: #b0b0b0; stroke-opacity: 0.4; stroke-width: 0.8"/>
     </g>
     <g id="line2d_14">
      <g>
       <use xlink:href="#maebe8380dc" x="54.295938" y="58.948208" style="stroke: #000000; stroke-width: 0.8"/>
      </g>
     </g>
     <g id="text_11">
      <text style="font: 10px 'DejaVu Sans'; text-anchor: end" x="47.295938" y="62.747427" transform="rotate(-0 47.295938 62.747427)">1200</text>
     </g>
    </g>
    <g id="text_12">
     <text style="font: 11px 'DejaVu Sans'; text-anchor: middle" x="15.558281" y="131.538125" transform="rotate(-90 15.558281 131.538125)">Loss</text>
    </g>
   </g>
   <g id="line2d_15">
    <path d="M 76.584615 32.247216 
L 81.087378 35.502596 
L 85.590142 38.725416 
L 90.092905 41.910231 
L 94.595668 45.053466 
L 99.098431 48.152456 
L 103.601194 51.205158 
L 108.103957 54.209701 
L 112.606721 57.164667 
L 117.109484 60.068863 
L 121.612247 62.921327 
L 126.11501 65.721604 
L 130.617773 68.469864 
L 135.120536 71.166392 
L 139.6233 73.812377 
L 144.126063 76.409579 
L 148.628826 78.960154 
L 153.131589 81.46671 
L 157.634352 83.931516 
L 162.137115 86.356785 
L 166.639879 88.744219 
L 171.142642 91.095349 
L 175.645405 93.41199 
L 180.148168 95.696128 
L 184.650931 97.950032 
L 189.153694 100.176254 
L 193.656458 102.377347 
L 198.159221 104.555466 
L 202.661984 106.71271 
L 207.164747 108.851009 
L 211.66751 110.972573 
L 216.170273 113.079049 
L 220.673037 115.172422 
L 225.1758 117.253939 
L 229.678563 119.324394 
L 234.181326 121.384242 
L 238.684089 123.433312 
L 243.186852 125.471208 
L 247.689616 127.497362 
L 252.192379 129.511376 
L 256.695142 131.513024 
L 261.197905 133.50191 
L 265.700668 135.477805 
L 270.203431 137.440653 
L 274.706195 139.390002 
L 279.208958 141.325566 
L 283.711721 143.247062 
L 288.214484 145.154519 
L 292.717247 147.048135 
L 297.22001 148.92859 
L 301.722774 150.796737 
L 306.225537 152.653624 
L 310.7283 154.500271 
L 315.231063 156.337616 
L 319.733826 158.166538 
L 324.236589 159.987773 
L 328.739353 161.801747 
L 333.242116 163.608943 
L 337.744879 165.409587 
L 342.247642 167.203963 
L 346.750405 168.992042 
L 351.253168 170.773882 
L 355.755932 172.54934 
L 360.258695 174.31836 
L 364.761458 176.080545 
L 369.264221 177.835469 
L 373.766984 179.582763 
L 378.269748 181.321719 
L 382.772511 183.051684 
L 387.275274 184.77175 
L 391.778037 186.481039 
L 396.2808 188.178585 
L 400.783563 189.863284 
L 405.286327 191.534482 
L 409.78909 193.191612 
L 414.291853 194.834363 
L 418.794616 196.462705 
L 423.297379 198.076724 
L 427.800142 199.676846 
L 432.302906 201.263439 
L 436.805669 202.836844 
L 441.308432 204.397655 
L 445.811195 205.946498 
L 450.313958 207.483853 
L 454.816721 209.010261 
L 459.319485 210.526175 
L 463.822248 212.032162 
L 468.325011 213.528733 
L 472.827774 215.016256 
L 477.330537 216.495299 
L 481.8333 217.966173 
L 486.336064 219.429077 
L 490.838827 220.884239 
L 495.34159 222.331487 
L 499.844353 223.770653 
L 504.347116 225.201337 
L 508.849879 226.622975 
L 513.352643 228.035054 
L 517.855406 229.437092 
L 522.358169 230.829034 
" clip-path="url(#p335c6ba9a5)" style="fill: none; stroke: #2166ac; stroke-width: 2; stroke-linecap: square"/>
   </g>
   <g id="patch_3">
    <path d="M 54.295938 240.758125 
L 54.295938 22.318125 
" style="fill: none; stroke: #000000; stroke-width: 0.8; stroke-linejoin: miter; stroke-linecap: square"/>
   </g>
   <g id="patch_4">
    <path d="M 54.295938 240.758125 
L 544.646847 240.758125 
" style="fill: none; stroke: #000000; stroke-width: 0.8; stroke-linejoin: miter; stroke-linecap: square"/>
   </g>
   <g id="PathCollection_1">
    <defs>
     <path id="maad48c648c" d="M 0 2.738613 
C 0.726289 2.738613 1.422928 2.450055 1.936492 1.936492 
C 2.450055 1.422928 2.738613 0.726289 2.738613 0 
C 2.738613 -0.726289 2.450055 -1.422928 1.936492 -1.936492 
C 1.422928 -2.450055 0.726289 -2.738613 0 -2.738613 
C -0.726289 -2.738613 -1.422928 -2.450055 -1.936492 -1.936492 
C -2.450055 -1.422928 -2.738613 -0.726289 -2.738613 0 
C -2.738613 0.726289 -2.450055 1.422928 -1.936492 1.936492 
C -1.422928 2.450055 -0.726289 2.738613 0 2.738613 
z
" style="stroke: #ffffff; stroke-width: 0.8"/>
    </defs>
    <g clip-path="url(#p335c6ba9a5)">
     <use xlink:href="#maad48c648c" x="76.584615" y="32.247216" style="fill: #2166ac; stroke: #ffffff; stroke-width: 0.8"/>
     <use xlink:href="#maad48c648c" x="99.098431" y="48.152456" style="fill: #2166ac; stroke: #ffffff; stroke-width: 0.8"/>
     <use xlink:href="#maad48c648c" x="121.612247" y="62.921327" style="fill: #2166ac; stroke: #ffffff; stroke-width: 0.8"/>
     <use xlink:href="#maad48c648c" x="144.126063" y="76.409579" style="fill: #2166ac; stroke: #ffffff; stroke-width: 0.8"/>
     <use xlink:href="#maad48c648c" x="166.639879" y="88.744219" style="fill: #2166ac; stroke: #ffffff; stroke-width: 0.8"/>
     <use xlink:href="#maad48c648c" x="189.153694" y="100.176254" style="fill: #2166ac; stroke: #ffffff; stroke-width: 0.8"/>
     <use xlink:href="#maad48c648c" x="211.66751" y="110.972573" style="fill: #2166ac; stroke: #ffffff; stroke-width: 0.8"/>
     <use xlink:href="#maad48c648c" x="234.181326" y="121.384242" style="fill: #2166ac; stroke: #ffffff; stroke-width: 0.8"/>
     <use xlink:href="#maad48c648c" x="256.695142" y="131.513024" style="fill: #2166ac; stroke: #ffffff; stroke-width: 0.8"/>
     <use xlink:href="#maad48c648c" x="279.208958" y="141.325566" style="fill: #2166ac; stroke: #ffffff; stroke-width: 0.8"/>
     <use xlink:href="#maad48c648c" x="301.722774" y="150.796737" style="fill: #2166ac; stroke: #ffffff; stroke-width: 0.8"/>
     <use xlink:href="#maad48c648c" x="324.236589" y="159.987773" style="fill: #2166ac; stroke: #ffffff; stroke-width: 0.8"/>
     <use xlink:href="#maad48c648c" x="346.750405" y="168.992042" style="fill: #2166ac; stroke: #ffffff; stroke-width: 0.8"/>
     <use xlink:href="#maad48c648c" x="369.264221" y="177.835469" style="fill: #2166ac; stroke: #ffffff; stroke-width: 0.8"/>
     <use xlink:href="#maad48c648c" x="391.778037" y="186.481039" style="fill: #2166ac; stroke: #ffffff; stroke-width: 0.8"/>
     <use xlink:href="#maad48c648c" x="414.291853" y="194.834363" style="fill: #2166ac; stroke: #ffffff; stroke-width: 0.8"/>
     <use xlink:href="#maad48c648c" x="436.805669" y="202.836844" style="fill: #2166ac; stroke: #ffffff; stroke-width: 0.8"/>
     <use xlink:href="#maad48c648c" x="459.319485" y="210.526175" style="fill: #2166ac; stroke: #ffffff; stroke-width: 0.8"/>
     <use xlink:href="#maad48c648c" x="481.8333" y="217.966173" style="fill: #2166ac; stroke: #ffffff; stroke-width: 0.8"/>
     <use xlink:href="#maad48c648c" x="504.347116" y="225.201337" style="fill: #2166ac; stroke: #ffffff; stroke-width: 0.8"/>
    </g>
   </g>
   <g id="patch_5">
    <path d="M 526.56713 232.938573 
Q 525.356643 232.331874 524.945771 232.125945 
" style="fill: none; stroke: #d7191c; stroke-width: 0.8; stroke-linecap: round"/>
    <path d="M 527.089645 234.990173 
L 524.945771 232.125945 
L 528.523478 232.129382 
" style="fill: none; stroke: #d7191c; stroke-width: 0.8; stroke-linecap: round"/>
   </g>
   <g id="text_13">
    <text style="fill: #d7191c; font: 8px 'DejaVu Sans'" transform="translate(530.358169 239.870784)">best</text>
    <text style="fill: #d7191c; font: 8px 'DejaVu Sans'" transform="translate(530.358169 248.829034)">(830.1)</text>
   </g>
   <g id="text_14">
    <text style="font: 700 12px 'DejaVu Sans'; text-anchor: middle" x="299.471392" y="16.318125" transform="rotate(-0 299.471392 16.318125)">Training loss — grin</text>
   </g>
   <g id="PathCollection_2">
    <defs>
     <path id="m05f77bfbb7" d="M 0 5.477226 
C 1.452577 5.477226 2.845856 4.900111 3.872983 3.872983 
C 4.900111 2.845856 5.477226 1.452577 5.477226 0 
C 5.477226 -1.452577 4.900111 -2.845856 3.872983 -3.872983 
C 2.845856 -4.900111 1.452577 -5.477226 0 -5.477226 
C -1.452577 -5.477226 -2.845856 -4.900111 -3.872983 -3.872983 
C -4.900111 -2.845856 -5.477226 -1.452577 -5.477226 0 
C -5.477226 1.452577 -4.900111 2.845856 -3.872983 3.872983 
C -2.845856 4.900111 -1.452577 5.477226 0 5.477226 
z
" style="stroke: #ffffff; stroke-width: 1.2"/>
    </defs>
    <g clip-path="url(#p335c6ba9a5)">
     <use xlink:href="#m05f77bfbb7" x="522.358169" y="230.829034" style="fill: #d7191c; stroke: #ffffff; stroke-width: 1.2"/>
    </g>
   </g>
  </g>
 </g>
 <defs>
  <clipPath id="p335c6ba9a5">
   <rect x="54.295938" y="22.318125" width="490.350909" height="218.44"/>
  </clipPath>
 </defs>
</svg>
