<?xml version="1.0" encoding="utf-8" standalone="no"?>
<!DOCTYPE svg PUBLIC "-//W3C//DTD SVG 1.1//EN"
  "http://www.w3.org/Graphics/SVG/1.1/DTD/svg11.dtd">
<svg xmlns:xlink="http://www.w3.org/1999/xlink" width="566.61726pt" height="279.282188pt" viewBox="0 0 566.61726 279.282188" xmlns="http://www.w3.org/2000/svg" version="1.1">
 <metadata>
  <rdf:RDF xmlns:dc="http://purl.org/dc/elements/1.1/" xmlns:cc="http://creativecommons.org/ns#" xmlns:rdf="http://www.w3.org/1999/02/22-rdf-syntax-ns#">
   <cc:Work>
    <dc:type rdf:resource="http://purl.org/dc/dcmitype/StillImage"/>
    <dc:date>2026-06-30T18:47:20.547806</dc:date>
    <dc:format>image/svg+xml</dc:format>
    <dc:creator>
     <cc:Agent>
      <dc:title>Matplotlib v3.9.4, https://matplotlib.org/</dc:title>
     </cc:Agent>
    </dc:creator>
   </cc:Work>
  </rdf:RDF>
 </metadata>
 <defs>
  <style type="text/css">*{stroke-linejoin: round; stroke-linecap: butt}</style>
 </defs>
 <g id="figure_1">
  <g id="patch_1">
   <path d="M 0 279.282188 
L 566.61726 279.282188 
L 566.61726 0 
L 0 0 
z
" style="fill: #ffffff"/>
  </g>
  <g id="axes_1">
   <g id="patch_2">
    <path d="M 54.295938 240.758125 
L 544.556847 240.758125 
L 544.556847 22.318125 
L 54.295938 22.318125 
z
" style="fill: #ffffff"/>
   </g>
   <g id="matplotlib.axis_1">
    <g id="xtick_1">
     <g id="line2d_1">
      <defs>
       <path id="m88ed717c59" d="M 0 0 
L 0 3.5 
" style="stroke: #000000; stroke-width: 0.8"/>
      </defs>
      <g>
       <use xlink:href="#m88ed717c59" x="72.078588" y="240.758125" style="stroke: #000000; stroke-width: 0.8"/>
      </g>
     </g>
     <g id="text_1">
      <text style="font: 10px 'DejaVu Sans'; text-anchor: middle" x="72.078588" y="255.356563" transform="rotate(-0 72.078588 255.356563)">0</text>
     </g>
    </g>
    <g id="xtick_2">
     <g id="line2d_2">
      <g>
       <use xlink:href="#m88ed717c59" x="162.117322" y="240.758125" style="stroke: #000000; stroke-width: 0.8"/>
      </g>
     </g>
     <g id="text_2">
      <text style="font: 10px 'DejaVu Sans'; text-anchor: middle" x="162.117322" y="255.356563" transform="rotate(-0 162.117322 255.356563)">20</text>
     </g>
    </g>
    <g id="xtick_3">
     <g id="line2d_3">
      <g>
       <use xlink:href="#m88ed717c59" x="252.156056" y="240.758125" style="stroke: #000000; stroke-width: 0.8"/>
      </g>
     </g>
     <g id="text_3">
      <text style="font: 10px 'DejaVu Sans'; text-anchor: middle" x="252.156056" y="255.356563" transform="rotate(-0 252.156056 255.356563)">40</text>
     </g>
    </g>
    <g id="xtick_4">
     <g id="line2d_4">
      <g>
       <use xlink:href="#m88ed717c59" x="342.194791" y="240.758125" style="stroke: #000000; stroke-width: 0.8"/>
      </g>
     </g>
     <g id="text_4">
      <text style="font: 10px 'DejaVu Sans'; text-anchor: middle" x="342.194791" y="255.356563" transform="rotate(-0 342.194791 255.356563)">60</text>
     </g>
    </g>
    <g id="xtick_5">
     <g id="line2d_5">
      <g>
       <use xlink:href="#m88ed717c59" x="432.233525" y="240.758125" style="stroke: #000000; stroke-width: 0.8"/>
      </g>
     </g>
     <g id="text_5">
      <text style="font: 10px 'DejaVu Sans'; text-anchor: middle" x="432.233525" y="255.356563" transform="rotate(-0 432.233525 255.356563)">80</text>
     </g>
    </g>
    <g id="xtick_6">
     <g id="line2d_6">
      <g>
       <use xlink:href="#m88ed717c59" x="522.27226" y="240.758125" style="stroke: #000000; stroke-width: 0.8"/>
      </g>
     </g>
     <g id="text_6">
      <text style="font: 10px 'DejaVu Sans'; text-anchor: middle" x="522.27226" y="255.356563" transform="rotate(-0 522.27226 255.356563)">100</text>
     </g>
    </g>
    <g id="text_7">
     <text style="font: 11px 'DejaVu Sans'; text-anchor: middle" x="299.426392" y="269.794531" transform="rotate(-0 299.426392 269.794531)">Epoch</text>
    </g>
   </g>
   <g id="matplotlib.axis_2">
    <g id="ytick_1">
     <g id="line2d_7">
      <path d="M 54.295938 232.684375 
L 544.556847 232.684375 
" clip-path="url(#p7a39ccac0b)" style="fill: none; stroke-dasharray: 2.96,1.28; stroke-dashoffset: 0; stroke: #b0b0b0; stroke-opacity: 0.4; stroke-width: 0.8"/>
     </g>
     <g id="line2d_8">
      <defs>
       <path id="mb21aaa7a85" d="M 0 0 
L -3.5 0 
" style="stroke: #000000; stroke-width: 0.8"/>
      </defs>
      <g>
       <use xlink:href="#mb21aaa7a85" x="54.295938" y="232.684375" style="stroke: #000000; stroke-width: 0.8"/>
      </g>
     </g>
     <g id="text_8">
      <text style="font: 10px 'DejaVu Sans'; text-anchor: end" x="47.295938" y="236.483594" transform="rotate(-0 47.295938 236.483594)">200</text>
     </g>
    </g>
    <g id="ytick_2">
     <g id="line2d_9">
      <path d="M 54.295938 190.668496 
L 544.556847 190.668496 
" clip-path="url(#p7a39ccac0b)" style="fill: none; stroke-dasharray: 2.96,1.28; stroke-dashoffset: 0; stroke: #b0b0b0; stroke-opacity: 0.4; stroke-width: 0.8"/>
     </g>
     <g id="line2d_10">
      <g>
       <use xlink:href="#mb21aaa7a85" x="54.295938" y="190.668496" style="stroke: #000000; stroke-width: 0.8"/>
      </g>
     </g>
     <g id="text_9">
      <text style="font: 10px 'DejaVu Sans'; text-anchor: end" x="47.295938" y="194.467714" transform="rotate(-0 47.295938 194.467714)">400</text>
     </g>
    </g>
    <g id="ytick_3">
     <g id="line2d_11">
      <path d="M 54.295938 148.652616 
L 544.556847 148.652616 
" clip-path="url(#p7a39ccac0b)" style="fill: none; stroke-dasharray: 2.96,1.28; stroke-dashoffset: 0; stroke: #b0b0b0; stroke-opacity: 0.4; stroke-width: 0.8"/>
     </g>
     <g id="line2d_12">
      <g>
       <use xlink:href="#mb21aaa7a85" x="54.295938" y="148.652616" style="stroke: #000000; stroke-width: 0.8"/>
      </g>
     </g>
     <g id="text_10">
      <text style="font: 10px 'DejaVu Sans'; text-anchor: end" x="47.295938" y="152.451835" transform="rotate(-0 47.295938 152.451835)">600</text>
     </g>
    </g>
    <g id="ytick_4">
     <g id="line2d_13">
      <path d="M 54.295938 106.636736 
L 544.556847 106.636736 
" clip-path="url(#p7a39ccac0b)" style="fill: none; stroke-dasharray: 2.96,1.28; stroke-dashoffset: 0; stroke: #b0b0b0; stroke-opacity: 0.4; stroke-width: 0.8"/>
     </g>
     <g id="line2d_14">
      <g>
       <use xlink:href="#mb21aaa7a85" x="54.295938" y="106.636736" style="stroke: #000000; stroke-width: 0.8"/>
      </g>
     </g>
     <g id="text_11">
      <text style="font: 10px 'DejaVu Sans'; text-anchor: end" x="47.295938" y="110.435955" transform="rotate(-0 47.295938 110.435955)">800</text>
     </g>
    </g>
    <g id="ytick_5">
     <g id="line2d_15">
      <path d="M 54.295938 64.620856 
L 544.556847 64.620856 
" clip-path="url(#p7a39ccac0b)" style="fill: none; stroke-dasharray: 2.96,1.28; stroke-dashoffset: 0; stroke: #b0b0b0; stroke-opacity: 0.4; stroke-width: 0.8"/>
     </g>
     <g id="line2d_16">
      <g>
       <use xlink:href="#mb21aaa7a85" x="54.295938" y="64.620856" style="stroke: #000000; stroke-width: 0.8"/>
      </g>
     </g>
     <g id="text_12">
      <text style="font: 10px 'DejaVu Sans'; text-anchor: end" x="47.295938" y="68.420075" transform="rotate(-0 47.295938 68.420075)">1000</text>
     </g>
    </g>
    <g id="ytick_6">
     <g id="line2d_17">
      <path d="M 54.295938 22.604977 
L 544.556847 22.604977 
" clip-path="url(#p7a39ccac0b)" style="fill: none; stroke-dasharray: 2.96,1.28; stroke-dashoffset: 0; stroke: #b0b0b0; stroke-opacity: 0.4; stroke-width: 0.8"/>
     </g>
     <g id="line2d_18">
      <g>
       <use xlink:href="#mb21aaa7a85" x="54.295938" y="22.604977" style="stroke: #000000; stroke-width: 0.8"/>
      </g>
     </g>
     <g id="text_13">
      <text style="font: 10px 'DejaVu Sans'; text-anchor: end" x="47.295938" y="26.404195" transform="rotate(-0 47.295938 26.404195)">1200</text>
     </g>
    </g>
    <g id="text_14">
     <text style="font: 11px 'DejaVu Sans'; text-anchor: middle" x="15.558281" y="131.538125" transform="rotate(-90 15.558281 131.538125)">Loss</text>
    </g>
   </g>
   <g id="line2d_19">
    <path d="M 76.580524 32.247216 
L 81.082461 39.684852 
L 85.584398 46.908973 
L 90.086334 53.922066 
L 94.588271 60.729143 
L 99.090208 67.336566 
L 103.592145 73.750309 
L 108.094081 79.97754 
L 112.596018 86.025183 
L 117.097955 91.900187 
L 121.599892 97.610528 
L 126.101828 103.163182 
L 130.603765 108.564238 
L 135.105702 113.818313 
L 139.607638 118.928817 
L 144.109575 123.898162 
L 148.611512 128.72568 
L 153.113449 133.410268 
L 157.615385 137.949106 
L 162.117322 142.337925 
L 166.619259 146.570927 
L 171.121195 150.641254 
L 175.623132 154.541827 
L 180.125069 158.265326 
L 184.627006 161.804363 
L 189.128942 165.152773 
L 193.630879 168.304861 
L 198.132816 171.256923 
L 202.634753 174.005509 
L 207.136689 176.548901 
L 211.638626 178.887662 
L 216.140563 181.025173 
L 220.642499 182.966606 
L 225.144436 184.72011 
L 229.646373 186.297096 
L 234.14831 187.7121 
L 238.650246 188.982879 
L 243.152183 190.12975 
L 247.65412 191.17432 
L 252.156056 192.138045 
L 256.657993 193.041544 
L 261.15993 193.903486 
L 265.661867 194.739412 
L 270.163803 195.561926 
L 274.66574 196.380638 
L 279.167677 197.202421 
L 283.669614 198.031782 
L 288.17155 198.871145 
L 292.673487 199.722111 
L 297.175424 200.584496 
L 301.67736 201.458427 
L 306.179297 202.343552 
L 310.681234 203.240101 
L 315.183171 204.148005 
L 319.685107 205.065782 
L 324.187044 205.992104 
L 328.688981 206.924812 
L 333.190917 207.861707 
L 337.692854 208.798839 
L 342.194791 209.732143 
L 346.696728 210.656818 
L 351.198664 211.568408 
L 355.700601 212.462053 
L 360.202538 213.334241 
L 364.704475 214.181405 
L 369.206411 215.001861 
L 373.708348 215.794935 
L 378.210285 216.56073 
L 382.712221 217.300772 
L 387.214158 218.01713 
L 391.716095 218.712403 
L 396.218032 219.388519 
L 400.719968 220.047408 
L 405.221905 220.690264 
L 409.723842 221.317094 
L 414.225778 221.92724 
L 418.727715 222.518883 
L 423.229652 223.089909 
L 427.731589 223.638556 
L 432.233525 224.163575 
L 436.735462 224.664215 
L 441.237399 225.140904 
L 445.739336 225.594596 
L 450.241272 226.026811 
L 454.743209 226.439254 
L 459.245146 226.833339 
L 463.747082 227.210197 
L 468.249019 227.570652 
L 472.750956 227.915192 
L 477.252893 228.243977 
L 481.754829 228.557515 
L 486.256766 228.856543 
L 490.758703 229.142036 
L 495.260639 229.414829 
L 499.762576 229.675918 
L 504.264513 229.926147 
L 508.76645 230.166093 
L 513.268386 230.39647 
L 517.770323 230.617416 
L 522.27226 230.829034 
" clip-path="url(#p7a39ccac0b)" style="fill: none; stroke: #2166ac; stroke-width: 2; stroke-linecap: square"/>
   </g>
   <g id="patch_3">
    <path d="M 54.295938 240.758125 
L 54.295938 22.318125 
" style="fill: none; stroke: #000000; stroke-width: 0.8; stroke-linejoin: miter; stroke-linecap: square"/>
   </g>
   <g id="patch_4">
    <path d="M 54.295938 240.758125 
L 544.556847 240.758125 
" style="fill: none; stroke: #000000; stroke-width: 0.8; stroke-linejoin: miter; stroke-linecap: square"/>
   </g>
   <g id="PathCollection_1">
    <defs>
     <path id="m047c931bb9" d="M 0 2.738613 
C 0.726289 2.738613 1.422928 2.450055 1.936492 1.936492 
C 2.450055 1.422928 2.738613 0.726289 2.738613 0 
C 2.738613 -0.726289 2.450055 -1.422928 1.936492 -1.936492 
C 1.422928 -2.450055 0.726289 -2.738613 0 -2.738613 
C -0.726289 -2.738613 -1.422928 -2.450055 -1.936492 -1.936492 
C -2.450055 -1.422928 -2.738613 -0.726289 -2.738613 0 
C -2.738613 0.726289 -2.450055 1.422928 -1.936492 1.936492 
C -1.422928 2.450055 -0.726289 2.738613 0 2.738613 
z
" style="stroke: #ffffff; stroke-width: 0.8"/>
    </defs>
    <g clip-path="url(#p7a39ccac0b)">
     <use xlink:href="#m047c931bb9" x="76.580524" y="32.247216" style="fill: #2166ac; stroke: #ffffff; stroke-width: 0.8"/>
     <use xlink:href="#m047c931bb9" x="99.090208" y="67.336566" style="fill: #2166ac; stroke: #ffffff; stroke-width: 0.8"/>
     <use xlink:href="#m047c931bb9" x="121.599892" y="97.610528" style="fill: #2166ac; stroke: #ffffff; stroke-width: 0.8"/>
     <use xlink:href="#m047c931bb9" x="144.109575" y="123.898162" style="fill: #2166ac; stroke: #ffffff; stroke-width: 0.8"/>
     <use xlink:href="#m047c931bb9" x="166.619259" y="146.570927" style="fill: #2166ac; stroke: #ffffff; stroke-width: 0.8"/>
     <use xlink:href="#m047c931bb9" x="189.128942" y="165.152773" style="fill: #2166ac; stroke: #ffffff; stroke-width: 0.8"/>
     <use xlink:href="#m047c931bb9" x="211.638626" y="178.887662" style="fill: #2166ac; stroke: #ffffff; stroke-width: 0.8"/>
     <use xlink:href="#m047c931bb9" x="234.14831" y="187.7121" style="fill: #2166ac; stroke: #ffffff; stroke-width: 0.8"/>
     <use xlink:href="#m047c931bb9" x="256.657993" y="193.041544" style="fill: #2166ac; stroke: #ffffff; stroke-width: 0.8"/>
     <use xlink:href="#m047c931bb9" x="279.167677" y="197.202421" style="fill: #2166ac; stroke: #ffffff; stroke-width: 0.8"/>
     <use xlink:href="#m047c931bb9" x="301.67736" y="201.458427" style="fill: #2166ac; stroke: #ffffff; stroke-width: 0.8"/>
     <use xlink:href="#m047c931bb9" x="324.187044" y="205.992104" style="fill: #2166ac; stroke: #ffffff; stroke-width: 0.8"/>
     <use xlink:href="#m047c931bb9" x="346.696728" y="210.656818" style="fill: #2166ac; stroke: #ffffff; stroke-width: 0.8"/>
     <use xlink:href="#m047c931bb9" x="369.206411" y="215.001861" style="fill: #2166ac; stroke: #ffffff; stroke-width: 0.8"/>
     <use xlink:href="#m047c931bb9" x="391.716095" y="218.712403" style="fill: #2166ac; stroke: #ffffff; stroke-width: 0.8"/>
     <use xlink:href="#m047c931bb9" x="414.225778" y="221.92724" style="fill: #2166ac; stroke: #ffffff; stroke-width: 0.8"/>
     <use xlink:href="#m047c931bb9" x="436.735462" y="224.664215" style="fill: #2166ac; stroke: #ffffff; stroke-width: 0.8"/>
     <use xlink:href="#m047c931bb9" x="459.245146" y="226.833339" style="fill: #2166ac; stroke: #ffffff; stroke-width: 0.8"/>
     <use xlink:href="#m047c931bb9" x="481.754829" y="228.557515" style="fill: #2166ac; stroke: #ffffff; stroke-width: 0.8"/>
     <use xlink:href="#m047c931bb9" x="504.264513" y="229.926147" style="fill: #2166ac; stroke: #ffffff; stroke-width: 0.8"/>
    </g>
   </g>
   <g id="patch_5">
    <path d="M 526.481221 232.938573 
Q 525.270734 232.331874 524.859862 232.125945 
" style="fill: none; stroke: #d7191c; stroke-width: 0.8; stroke-linecap: round"/>
    <path d="M 527.003736 234.990173 
L 524.859862 232.125945 
L 528.437569 232.129382 
" style="fill: none; stroke: #d7191c; stroke-width: 0.8; stroke-linecap: round"/>
   </g>
   <g id="text_15">
    <text style="fill: #d7191c; font: 8px 'DejaVu Sans'" transform="translate(530.27226 239.870784)">best</text>
    <text style="fill: #d7191c; font: 8px 'DejaVu Sans'" transform="translate(530.27226 248.829034)">(208.8)</text>
   </g>
   <g id="text_16">
    <text style="font: 700 12px 'DejaVu Sans'; text-anchor: middle" x="299.426392" y="16.318125" transform="rotate(-0 299.426392 16.318125)">Training loss — stgcn</text>
   </g>
   <g id="PathCollection_2">
    <defs>
     <path id="m962f4d1d9c" d="M 0 5.477226 
C 1.452577 5.477226 2.845856 4.900111 3.872983 3.872983 
C 4.900111 2.845856 5.477226 1.452577 5.477226 0 
C 5.477226 -1.452577 4.900111 -2.845856 3.872983 -3.872983 
C 2.845856 -4.900111 1.452577 -5.477226 0 -5.477226 
C -1.452577 -5.477226 -2.845856 -4.900111 -3.872983 -3.872983 
C -4.900111 -2.845856 -5.477226 -1.452577 -5.477226 0 
C -5.477226 1.452577 -4.900111 2.845856 -3.872983 3.872983 
C -2.845856 4.900111 -1.452577 5.477226 0 5.477226 
z
" style="stroke: #ffffff; stroke-width: 1.2"/>
    </defs>
    <g clip-path="url(#p7a39ccac0b)">
     <use xlink:href="#m962f4d1d9c" x="522.27226" y="230.829034" style="fill: #d7191c; stroke: #ffffff; stroke-width: 1.2"/>
    </g>
   </g>
  </g>
 </g>
 <defs>
  <clipPath id="p7a39ccac0b">
   <rect x="54.295938" y="22.318125" width="490.260909" height="218.44"/>
  </clipPath>
 </defs>
</svg>
