<?xml version="1.0" encoding="utf-8" standalone="no"?>
<!DOCTYPE svg PUBLIC "-//W3C//DTD SVG 1.1//EN"
  "http://www.w3.org/Graphics/SVG/1.1/DTD/svg11.dtd">
<svg xmlns:xlink="http://www.w3.org/1999/xlink" width="566.652033pt" height="279.282188pt" viewBox="0 0 566.652033 279.282188" xmlns="http://www.w3.org/2000/svg" version="1.1">
 <metadata>
  <rdf:RDF xmlns:dc="http://purl.org/dc/elements/1.1/" xmlns:cc="http://creativecommons.org/ns#" xmlns:rdf="http://www.w3.org/1999/02/22-rdf-syntax-ns#">
   <cc:Work>
    <dc:type rdf:resource="http://purl.org/dc/dcmitype/StillImage"/>
    <dc:date>2026-06-30T18:49:22.199217</dc:date>
    <dc:format>image/svg+xml</dc:format>
    <dc:creator>
     <cc:Agent>
      <dc:title>Matplotlib v3.9.4, https://matplotlib.org/</dc:title>
     </cc:Agent>
    </dc:creator>
   </cc:Work>
  </rdf:RDF>
 </metadata>
 <defs>
  <style type="text/css">*{stroke-linejoin: round; stroke-linecap: butt}</style>
 </defs>
 <g id="figure_1">
  <g id="patch_1">
   <path d="M 0 279.282188 
L 566.652033 279.282188 
L 566.652033 0 
L 0 0 
z
" style="fill: #ffffff"/>
  </g>
  <g id="axes_1">
   <g id="patch_2">
    <path d="M 54.295938 240.758125 
L 547.256847 240.758125 
L 547.256847 22.318125 
L 54.295938 22.318125 
z
" style="fill: #ffffff"/>
   </g>
   <g id="matplotlib.axis_1">
    <g id="xtick_1">
     <g id="line2d_1">
      <defs>
       <path id="m0beae8674f" d="M 0 0 
L 0 3.5 
" style="stroke: #000000; stroke-width: 0.8"/>
      </defs>
      <g>
       <use xlink:href="#m0beae8674f" x="72.176521" y="240.758125" style="stroke: #000000; stroke-width: 0.8"/>
      </g>
     </g>
     <g id="text_1">
      <text style="font: 10px 'DejaVu Sans'; text-anchor: middle" x="72.176521" y="255.356563" transform="rotate(-0 72.176521 255.356563)">0</text>
     </g>
    </g>
    <g id="xtick_2">
     <g id="line2d_2">
      <g>
       <use xlink:href="#m0beae8674f" x="162.711124" y="240.758125" style="stroke: #000000; stroke-width: 0.8"/>
      </g>
     </g>
     <g id="text_2">
      <text style="font: 10px 'DejaVu Sans'; text-anchor: middle" x="162.711124" y="255.356563" transform="rotate(-0 162.711124 255.356563)">20</text>
     </g>
    </g>
    <g id="xtick_3">
     <g id="line2d_3">
      <g>
       <use xlink:href="#m0beae8674f" x="253.245726" y="240.758125" style="stroke: #000000; stroke-width: 0.8"/>
      </g>
     </g>
     <g id="text_3">
      <text style="font: 10px 'DejaVu Sans'; text-anchor: middle" x="253.245726" y="255.356563" transform="rotate(-0 253.245726 255.356563)">40</text>
     </g>
    </g>
    <g id="xtick_4">
     <g id="line2d_4">
      <g>
       <use xlink:href="#m0beae8674f" x="343.780328" y="240.758125" style="stroke: #000000; stroke-width: 0.8"/>
      </g>
     </g>
     <g id="text_4">
      <text style="font: 10px 'DejaVu Sans'; text-anchor: middle" x="343.780328" y="255.356563" transform="rotate(-0 343.780328 255.356563)">60</text>
     </g>
    </g>
    <g id="xtick_5">
     <g id="line2d_5">
      <g>
       <use xlink:href="#m0beae8674f" x="434.31493" y="240.758125" style="stroke: #000000; stroke-width: 0.8"/>
      </g>
     </g>
     <g id="text_5">
      <text style="font: 10px 'DejaVu Sans'; text-anchor: middle" x="434.31493" y="255.356563" transform="rotate(-0 434.31493 255.356563)">80</text>
     </g>
    </g>
    <g id="xtick_6">
     <g id="line2d_6">
      <g>
       <use xlink:href="#m0beae8674f" x="524.849533" y="240.758125" style="stroke: #000000; stroke-width: 0.8"/>
      </g>
     </g>
     <g id="text_6">
      <text style="font: 10px 'DejaVu Sans'; text-anchor: middle" x="524.849533" y="255.356563" transform="rotate(-0 524.849533 255.356563)">100</text>
     </g>
    </g>
    <g id="text_7">
     <text style="font: 11px 'DejaVu Sans'; text-anchor: middle" x="300.776392" y="269.794531" transform="rotate(-0 300.776392 269.794531)">Epoch</text>
    </g>
   </g>
   <g id="matplotlib.axis_2">
    <g id="ytick_1">
     <g id="line2d_7">
      <path d="M 54.295938 239.637877 
L 547.256847 239.637877 
" clip-path="url(#pb20c604ac1)" style="fill: none; stroke-dasharray: 2.96,1.28; stroke-dashoffset: 0; stroke: #b0b0b0; stroke-opacity: 0.4; stroke-width: 0.8"/>
     </g>
     <g id="line2d_8">
      <defs>
       <path id="meb1a2cc940" d="M 0 0 
L -3.5 0 
" style="stroke: #000000; stroke-width: 0.8"/>
      </defs>
      <g>
       <use xlink:href="#meb1a2cc940" x="54.295938" y="239.637877" style="stroke: #000000; stroke-width: 0.8"/>
      </g>
     </g>
     <g id="text_8">
      <text style="font: 10px 'DejaVu Sans'; text-anchor: end" x="47.295938" y="243.437096" transform="rotate(-0 47.295938 243.437096)">1050</text>
     </g>
    </g>
    <g id="ytick_2">
     <g id="line2d_9">
      <path d="M 54.295938 209.527201 
L 547.256847 209.527201 
" clip-path="url(#pb20c604ac1)" style="fill: none; stroke-dasharray: 2.96,1.28; stroke-dashoffset: 0; stroke: #b0b0b0; stroke-opacity: 0.4; stroke-width: 0.8"/>
     </g>
     <g id="line2d_10">
      <g>
       <use xlink:href="#meb1a2cc940" x="54.295938" y="209.527201" style="stroke: #000000; stroke-width: 0.8"/>
      </g>
     </g>
     <g id="text_9">
      <text style="font: 10px 'DejaVu Sans'; text-anchor: end" x="47.295938" y="213.32642" transform="rotate(-0 47.295938 213.32642)">1075</text>
     </g>
    </g>
    <g id="ytick_3">
     <g id="line2d_11">
      <path d="M 54.295938 179.416525 
L 547.256847 179.416525 
" clip-path="url(#pb20c604ac1)" style="fill: none; stroke-dasharray: 2.96,1.28; stroke-dashoffset: 0; stroke: #b0b0b0; stroke-opacity: 0.4; stroke-width: 0.8"/>
     </g>
     <g id="line2d_12">
      <g>
       <use xlink:href="#meb1a2cc940" x="54.295938" y="179.416525" style="stroke: #000000; stroke-width: 0.8"/>
      </g>
     </g>
     <g id="text_10">
      <text style="font: 10px 'DejaVu Sans'; text-anchor: end" x="47.295938" y="183.215744" transform="rotate(-0 47.295938 183.215744)">1100</text>
     </g>
    </g>
    <g id="ytick_4">
     <g id="line2d_13">
      <path d="M 54.295938 149.30585 
L 547.256847 149.30585 
" clip-path="url(#pb20c604ac1)" style="fill: none; stroke-dasharray: 2.96,1.28; stroke-dashoffset: 0; stroke: #b0b0b0; stroke-opacity: 0.4; stroke-width: 0.8"/>
     </g>
     <g id="line2d_14">
      <g>
       <use xlink:href="#meb1a2cc940" x="54.295938" y="149.30585" style="stroke: #000000; stroke-width: 0.8"/>
      </g>
     </g>
     <g id="text_11">
      <text style="font: 10px 'DejaVu Sans'; text-anchor: end" x="47.295938" y="153.105068" transform="rotate(-0 47.295938 153.105068)">1125</text>
     </g>
    </g>
    <g id="ytick_5">
     <g id="line2d_15">
      <path d="M 54.295938 119.195174 
L 547.256847 119.195174 
" clip-path="url(#pb20c604ac1)" style="fill: none; stroke-dasharray: 2.96,1.28; stroke-dashoffset: 0; stroke: #b0b0b0; stroke-opacity: 0.4; stroke-width: 0.8"/>
     </g>
     <g id="line2d_16">
      <g>
       <use xlink:href="#meb1a2cc940" x="54.295938" y="119.195174" style="stroke: #000000; stroke-width: 0.8"/>
      </g>
     </g>
     <g id="text_12">
      <text style="font: 10px 'DejaVu Sans'; text-anchor: end" x="47.295938" y="122.994393" transform="rotate(-0 47.295938 122.994393)">1150</text>
     </g>
    </g>
    <g id="ytick_6">
     <g id="line2d_17">
      <path d="M 54.295938 89.084498 
L 547.256847 89.084498 
" clip-path="url(#pb20c604ac1)" style="fill: none; stroke-dasharray: 2.96,1.28; stroke-dashoffset: 0; stroke: #b0b0b0; stroke-opacity: 0.4; stroke-width: 0.8"/>
     </g>
     <g id="line2d_18">
      <g>
       <use xlink:href="#meb1a2cc940" x="54.295938" y="89.084498" style="stroke: #000000; stroke-width: 0.8"/>
      </g>
     </g>
     <g id="text_13">
      <text style="font: 10px 'DejaVu Sans'; text-anchor: end" x="47.295938" y="92.883717" transform="rotate(-0 47.295938 92.883717)">1175</text>
     </g>
    </g>
    <g id="ytick_7">
     <g id="line2d_19">
      <path d="M 54.295938 58.973822 
L 547.256847 58.973822 
" clip-path="url(#pb20c604ac1)" style="fill: none; stroke-dasharray: 2.96,1.28; stroke-dashoffset: 0; stroke: #b0b0b0; stroke-opacity: 0.4; stroke-width: 0.8"/>
     </g>
     <g id="line2d_20">
      <g>
       <use xlink:href="#meb1a2cc940" x="54.295938" y="58.973822" style="stroke: #000000; stroke-width: 0.8"/>
      </g>
     </g>
     <g id="text_14">
      <text style="font: 10px 'DejaVu Sans'; text-anchor: end" x="47.295938" y="62.773041" transform="rotate(-0 47.295938 62.773041)">1200</text>
     </g>
    </g>
    <g id="ytick_8">
     <g id="line2d_21">
      <path d="M 54.295938 28.863146 
L 547.256847 28.863146 
" clip-path="url(#pb20c604ac1)" style="fill: none; stroke-dasharray: 2.96,1.28; stroke-dashoffset: 0; stroke: #b0b0b0; stroke-opacity: 0.4; stroke-width: 0.8"/>
     </g>
     <g id="line2d_22">
      <g>
       <use xlink:href="#meb1a2cc940" x="54.295938" y="28.863146" style="stroke: #000000; stroke-width: 0.8"/>
      </g>
     </g>
     <g id="text_15">
      <text style="font: 10px 'DejaVu Sans'; text-anchor: end" x="47.295938" y="32.662365" transform="rotate(-0 47.295938 32.662365)">1225</text>
     </g>
    </g>
    <g id="text_16">
     <text style="font: 11px 'DejaVu Sans'; text-anchor: middle" x="15.558281" y="131.538125" transform="rotate(-90 15.558281 131.538125)">Loss</text>
    </g>
   </g>
   <g id="line2d_23">
    <path d="M 76.703252 32.247216 
L 81.229982 34.61108 
L 85.756712 36.968182 
L 90.283442 39.315726 
L 94.810172 41.649598 
L 99.336902 43.966708 
L 103.863632 46.264559 
L 108.390362 48.542561 
L 112.917092 50.801156 
L 117.443823 53.040784 
L 121.970553 55.262182 
L 126.497283 57.465642 
L 131.024013 59.650577 
L 135.550743 61.817135 
L 140.077473 63.965167 
L 144.604203 66.095703 
L 149.130933 68.209184 
L 153.657663 70.306052 
L 158.184394 72.386893 
L 162.711124 74.451415 
L 167.237854 76.499912 
L 171.764584 78.532676 
L 176.291314 80.551474 
L 180.818044 82.556745 
L 185.344774 84.550254 
L 189.871504 86.53303 
L 194.398234 88.506838 
L 198.924965 90.473735 
L 203.451695 92.436222 
L 207.978425 94.396651 
L 212.505155 96.357373 
L 217.031885 98.320301 
L 221.558615 100.287198 
L 226.085345 102.25983 
L 230.612075 104.240107 
L 235.138805 106.230234 
L 239.665536 108.232565 
L 244.192266 110.250039 
L 248.718996 112.285156 
L 253.245726 114.341298 
L 257.772456 116.422139 
L 262.299186 118.531945 
L 266.825916 120.676007 
L 271.352646 122.860061 
L 275.879376 125.090427 
L 280.406107 127.372398 
L 284.932837 129.710386 
L 289.459567 132.107037 
L 293.986297 134.561616 
L 298.513027 137.070741 
L 303.039757 139.626473 
L 307.566487 142.216315 
L 312.093217 144.821888 
L 316.619947 147.418639 
L 321.146678 149.9779 
L 325.673408 152.468059 
L 330.200138 154.861475 
L 334.726868 157.143153 
L 339.253598 159.31912 
L 343.780328 161.412605 
L 348.307058 163.447134 
L 352.833788 165.439614 
L 357.360518 167.401219 
L 361.887249 169.3393 
L 366.413979 171.25812 
L 370.940709 173.159886 
L 375.467439 175.045185 
L 379.994169 176.914017 
L 384.520899 178.765941 
L 389.047629 180.600516 
L 393.574359 182.417889 
L 398.101089 184.218355 
L 402.62782 186.002942 
L 407.15455 187.772973 
L 411.68128 189.529772 
L 416.20801 191.274515 
L 420.73474 193.008379 
L 425.26147 194.732097 
L 429.7882 196.446259 
L 434.31493 198.151747 
L 438.84166 199.849295 
L 443.368391 201.539492 
L 447.895121 203.222778 
L 452.421851 204.89989 
L 456.948581 206.57068 
L 461.475311 208.234559 
L 466.002041 209.890352 
L 470.528771 211.537324 
L 475.055501 213.176356 
L 479.582231 214.809067 
L 484.108962 216.436925 
L 488.635692 218.060226 
L 493.162422 219.678527 
L 497.689152 221.291095 
L 502.215882 222.897782 
L 506.742612 224.497853 
L 511.269342 226.09116 
L 515.796072 227.677411 
L 520.322802 229.256604 
L 524.849533 230.829034 
" clip-path="url(#pb20c604ac1)" style="fill: none; stroke: #2166ac; stroke-width: 2; stroke-linecap: square"/>
   </g>
   <g id="patch_3">
    <path d="M 54.295938 240.758125 
L 54.295938 22.318125 
" style="fill: none; stroke: #000000; stroke-width: 0.8; stroke-linejoin: miter; stroke-linecap: square"/>
   </g>
   <g id="patch_4">
    <path d="M 54.295938 240.758125 
L 547.256847 240.758125 
" style="fill: none; stroke: #000000; stroke-width: 0.8; stroke-linejoin: miter; stroke-linecap: square"/>
   </g>
   <g id="PathCollection_1">
    <defs>
     <path id="m27959c8a00" d="M 0 2.738613 
C 0.726289 2.738613 1.422928 2.450055 1.936492 1.936492 
C 2.450055 1.422928 2.738613 0.726289 2.738613 0 
C 2.738613 -0.726289 2.450055 -1.422928 1.936492 -1.936492 
C 1.422928 -2.450055 0.726289 -2.738613 0 -2.738613 
C -0.726289 -2.738613 -1.422928 -2.450055 -1.936492 -1.936492 
C -2.450055 -1.422928 -2.738613 -0.726289 -2.738613 0 
C -2.738613 0.726289 -2.450055 1.422928 -1.936492 1.936492 
C -1.422928 2.450055 -0.726289 2.738613 0 2.738613 
z
" style="stroke: #ffffff; stroke-width: 0.8"/>
    </defs>
    <g clip-path="url(#pb20c604ac1)">
     <use xlink:href="#m27959c8a00" x="76.703252" y="32.247216" style="fill: #2166ac; stroke: #ffffff; stroke-width: 0.8"/>
     <use xlink:href="#m27959c8a00" x="99.336902" y="43.966708" style="fill: #2166ac; stroke: #ffffff; stroke-width: 0.8"/>
     <use xlink:href="#m27959c8a00" x="121.970553" y="55.262182" style="fill: #2166ac; stroke: #ffffff; stroke-width: 0.8"/>
     <use xlink:href="#m27959c8a00" x="144.604203" y="66.095703" style="fill: #2166ac; stroke: #ffffff; stroke-width: 0.8"/>
     <use xlink:href="#m27959c8a00" x="167.237854" y="76.499912" style="fill: #2166ac; stroke: #ffffff; stroke-width: 0.8"/>
     <use xlink:href="#m27959c8a00" x="189.871504" y="86.53303" style="fill: #2166ac; stroke: #ffffff; stroke-width: 0.8"/>
     <use xlink:href="#m27959c8a00" x="212.505155" y="96.357373" style="fill: #2166ac; stroke: #ffffff; stroke-width: 0.8"/>
     <use xlink:href="#m27959c8a00" x="235.138805" y="106.230234" style="fill: #2166ac; stroke: #ffffff; stroke-width: 0.8"/>
     <use xlink:href="#m27959c8a00" x="257.772456" y="116.422139" style="fill: #2166ac; stroke: #ffffff; stroke-width: 0.8"/>
     <use xlink:href="#m27959c8a00" x="280.406107" y="127.372398" style="fill: #2166ac; stroke: #ffffff; stroke-width: 0.8"/>
     <use xlink:href="#m27959c8a00" x="303.039757" y="139.626473" style="fill: #2166ac; stroke: #ffffff; stroke-width: 0.8"/>
     <use xlink:href="#m27959c8a00" x="325.673408" y="152.468059" style="fill: #2166ac; stroke: #ffffff; stroke-width: 0.8"/>
     <use xlink:href="#m27959c8a00" x="348.307058" y="163.447134" style="fill: #2166ac; stroke: #ffffff; stroke-width: 0.8"/>
     <use xlink:href="#m27959c8a00" x="370.940709" y="173.159886" style="fill: #2166ac; stroke: #ffffff; stroke-width: 0.8"/>
     <use xlink:href="#m27959c8a00" x="393.574359" y="182.417889" style="fill: #2166ac; stroke: #ffffff; stroke-width: 0.8"/>
     <use xlink:href="#m27959c8a00" x="416.20801" y="191.274515" style="fill: #2166ac; stroke: #ffffff; stroke-width: 0.8"/>
     <use xlink:href="#m27959c8a00" x="438.84166" y="199.849295" style="fill: #2166ac; stroke: #ffffff; stroke-width: 0.8"/>
     <use xlink:href="#m27959c8a00" x="461.475311" y="208.234559" style="fill: #2166ac; stroke: #ffffff; stroke-width: 0.8"/>
     <use xlink:href="#m27959c8a00" x="484.108962" y="216.436925" style="fill: #2166ac; stroke: #ffffff; stroke-width: 0.8"/>
     <use xlink:href="#m27959c8a00" x="506.742612" y="224.497853" style="fill: #2166ac; stroke: #ffffff; stroke-width: 0.8"/>
    </g>
   </g>
   <g id="patch_5">
    <path d="M 529.082068 233.07699 
Q 527.848268 232.421702 527.404394 232.185955 
" style="fill: none; stroke: #d7191c; stroke-width: 0.8; stroke-linecap: round"/>
    <path d="M 529.480027 235.100015 
L 527.404394 232.185955 
L 530.981022 232.273885 
" style="fill: none; stroke: #d7191c; stroke-width: 0.8; stroke-linecap: round"/>
   </g>
   <g id="text_17">
    <text style="fill: #d7191c; font: 8px 'DejaVu Sans'" transform="translate(532.849533 239.870784)">best</text>
    <text style="fill: #d7191c; font: 8px 'DejaVu Sans'" transform="translate(532.849533 248.829034)">(1057)</text>
   </g>
   <g id="text_18">
    <text style="font: 700 12px 'DejaVu Sans'; text-anchor: middle" x="300.776392" y="16.318125" transform="rotate(-0 300.776392 16.318125)">Training loss — dcrnn</text>
   </g>
   <g id="PathCollection_2">
    <defs>
     <path id="m3ac485de9e" d="M 0 5.477226 
C 1.452577 5.477226 2.845856 4.900111 3.872983 3.872983 
C 4.900111 2.845856 5.477226 1.452577 5.477226 0 
C 5.477226 -1.452577 4.900111 -2.845856 3.872983 -3.872983 
C 2.845856 -4.900111 1.452577 -5.477226 0 -5.477226 
C -1.452577 -5.477226 -2.845856 -4.900111 -3.872983 -3.872983 
C -4.900111 -2.845856 -5.477226 -1.452577 -5.477226 0 
C -5.477226 1.452577 -4.900111 2.845856 -3.872983 3.872983 
C -2.845856 4.900111 -1.452577 5.477226 0 5.477226 
z
" style="stroke: #ffffff; stroke-width: 1.2"/>
    </defs>
    <g clip-path="url(#pb20c604ac1)">
     <use xlink:href="#m3ac485de9e" x="524.849533" y="230.829034" style="fill: #d7191c; stroke: #ffffff; stroke-width: 1.2"/>
    </g>
   </g>
  </g>
 </g>
 <defs>
  <clipPath id="pb20c604ac1">
   <rect x="54.295938" y="22.318125" width="492.960909" height="218.44"/>
  </clipPath>
 </defs>
</svg>
