<?xml version="1.0" encoding="utf-8" standalone="no"?>
<!DOCTYPE svg PUBLIC "-//W3C//DTD SVG 1.1//EN"
  "http://www.w3.org/Graphics/SVG/1.1/DTD/svg11.dtd">
<svg xmlns:xlink="http://www.w3.org/1999/xlink" width="566.61726pt" height="279.282188pt" viewBox="0 0 566.61726 279.282188" xmlns="http://www.w3.org/2000/svg" version="1.1">
 <metadata>
  <rdf:RDF xmlns:dc="http://purl.org/dc/elements/1.1/" xmlns:cc="http://creativecommons.org/ns#" xmlns:rdf="http://www.w3.org/1999/02/22-rdf-syntax-ns#">
   <cc:Work>
    <dc:type rdf:resource="http://purl.org/dc/dcmitype/StillImage"/>
    <dc:date>2026-06-30T18:47:21.539113</dc:date>
    <dc:format>image/svg+xml</dc:format>
    <dc:creator>
     <cc:Agent>
      <dc:title>Matplotlib v3.9.4, https://matplotlib.org/</dc:title>
     </cc:Agent>
    </dc:creator>
   </cc:Work>
  </rdf:RDF>
 </metadata>
 <defs>
  <style type="text/css">*{stroke-linejoin: round; stroke-linecap: butt}</style>
 </defs>
 <g id="figure_1">
  <g id="patch_1">
   <path d="M 0 279.282188 
L 566.61726 279.282188 
L 566.61726 0 
L 0 0 
z
" style="fill: #ffffff"/>
  </g>
  <g id="axes_1">
   <g id="patch_2">
    <path d="M 54.295938 240.758125 
L 544.556847 240.758125 
L 544.556847 22.318125 
L 54.295938 22.318125 
z
" style="fill: #ffffff"/>
   </g>
   <g id="matplotlib.axis_1">
    <g id="xtick_1">
     <g id="line2d_1">
      <defs>
       <path id="mf9e95d811a" d="M 0 0 
L 0 3.5 
" style="stroke: #000000; stroke-width: 0.8"/>
      </defs>
      <g>
       <use xlink:href="#mf9e95d811a" x="72.078588" y="240.758125" style="stroke: #000000; stroke-width: 0.8"/>
      </g>
     </g>
     <g id="text_1">
      <text style="font: 10px 'DejaVu Sans'; text-anchor: middle" x="72.078588" y="255.356563" transform="rotate(-0 72.078588 255.356563)">0</text>
     </g>
    </g>
    <g id="xtick_2">
     <g id="line2d_2">
      <g>
       <use xlink:href="#mf9e95d811a" x="162.117322" y="240.758125" style="stroke: #000000; stroke-width: 0.8"/>
      </g>
     </g>
     <g id="text_2">
      <text style="font: 10px 'DejaVu Sans'; text-anchor: middle" x="162.117322" y="255.356563" transform="rotate(-0 162.117322 255.356563)">20</text>
     </g>
    </g>
    <g id="xtick_3">
     <g id="line2d_3">
      <g>
       <use xlink:href="#mf9e95d811a" x="252.156056" y="240.758125" style="stroke: #000000; stroke-width: 0.8"/>
      </g>
     </g>
     <g id="text_3">
      <text style="font: 10px 'DejaVu Sans'; text-anchor: middle" x="252.156056" y="255.356563" transform="rotate(-0 252.156056 255.356563)">40</text>
     </g>
    </g>
    <g id="xtick_4">
     <g id="line2d_4">
      <g>
       <use xlink:href="#mf9e95d811a" x="342.194791" y="240.758125" style="stroke: #000000; stroke-width: 0.8"/>
      </g>
     </g>
     <g id="text_4">
      <text style="font: 10px 'DejaVu Sans'; text-anchor: middle" x="342.194791" y="255.356563" transform="rotate(-0 342.194791 255.356563)">60</text>
     </g>
    </g>
    <g id="xtick_5">
     <g id="line2d_5">
      <g>
       <use xlink:href="#mf9e95d811a" x="432.233525" y="240.758125" style="stroke: #000000; stroke-width: 0.8"/>
      </g>
     </g>
     <g id="text_5">
      <text style="font: 10px 'DejaVu Sans'; text-anchor: middle" x="432.233525" y="255.356563" transform="rotate(-0 432.233525 255.356563)">80</text>
     </g>
    </g>
    <g id="xtick_6">
     <g id="line2d_6">
      <g>
       <use xlink:href="#mf9e95d811a" x="522.27226" y="240.758125" style="stroke: #000000; stroke-width: 0.8"/>
      </g>
     </g>
     <g id="text_6">
      <text style="font: 10px 'DejaVu Sans'; text-anchor: middle" x="522.27226" y="255.356563" transform="rotate(-0 522.27226 255.356563)">100</text>
     </g>
    </g>
    <g id="text_7">
     <text style="font: 11px 'DejaVu Sans'; text-anchor: middle" x="299.426392" y="269.794531" transform="rotate(-0 299.426392 269.794531)">Epoch</text>
    </g>
   </g>
   <g id="matplotlib.axis_2">
    <g id="ytick_1">
     <g id="line2d_7">
      <path d="M 54.295938 236.202901 
L 544.556847 236.202901 
" clip-path="url(#p7d6fcebb23)" style="fill: none; stroke-dasharray: 2.96,1.28; stroke-dashoffset: 0; stroke: #b0b0b0; stroke-opacity: 0.4; stroke-width: 0.8"/>
     </g>
     <g id="line2d_8">
      <defs>
       <path id="me5f814b98d" d="M 0 0 
L -3.5 0 
" style="stroke: #000000; stroke-width: 0.8"/>
      </defs>
      <g>
       <use xlink:href="#me5f814b98d" x="54.295938" y="236.202901" style="stroke: #000000; stroke-width: 0.8"/>
      </g>
     </g>
     <g id="text_8">
      <text style="font: 10px 'DejaVu Sans'; text-anchor: end" x="47.295938" y="240.00212" transform="rotate(-0 47.295938 240.00212)">200</text>
     </g>
    </g>
    <g id="ytick_2">
     <g id="line2d_9">
      <path d="M 54.295938 202.82704 
L 544.556847 202.82704 
" clip-path="url(#p7d6fcebb23)" style="fill: none; stroke-dasharray: 2.96,1.28; stroke-dashoffset: 0; stroke: #b0b0b0; stroke-opacity: 0.4; stroke-width: 0.8"/>
     </g>
     <g id="line2d_10">
      <g>
       <use xlink:href="#me5f814b98d" x="54.295938" y="202.82704" style="stroke: #000000; stroke-width: 0.8"/>
      </g>
     </g>
     <g id="text_9">
      <text style="font: 10px 'DejaVu Sans'; text-anchor: end" x="47.295938" y="206.626258" transform="rotate(-0 47.295938 206.626258)">400</text>
     </g>
    </g>
    <g id="ytick_3">
     <g id="line2d_11">
      <path d="M 54.295938 169.451178 
L 544.556847 169.451178 
" clip-path="url(#p7d6fcebb23)" style="fill: none; stroke-dasharray: 2.96,1.28; stroke-dashoffset: 0; stroke: #b0b0b0; stroke-opacity: 0.4; stroke-width: 0.8"/>
     </g>
     <g id="line2d_12">
      <g>
       <use xlink:href="#me5f814b98d" x="54.295938" y="169.451178" style="stroke: #000000; stroke-width: 0.8"/>
      </g>
     </g>
     <g id="text_10">
      <text style="font: 10px 'DejaVu Sans'; text-anchor: end" x="47.295938" y="173.250397" transform="rotate(-0 47.295938 173.250397)">600</text>
     </g>
    </g>
    <g id="ytick_4">
     <g id="line2d_13">
      <path d="M 54.295938 136.075317 
L 544.556847 136.075317 
" clip-path="url(#p7d6fcebb23)" style="fill: none; stroke-dasharray: 2.96,1.28; stroke-dashoffset: 0; stroke: #b0b0b0; stroke-opacity: 0.4; stroke-width: 0.8"/>
     </g>
     <g id="line2d_14">
      <g>
       <use xlink:href="#me5f814b98d" x="54.295938" y="136.075317" style="stroke: #000000; stroke-width: 0.8"/>
      </g>
     </g>
     <g id="text_11">
      <text style="font: 10px 'DejaVu Sans'; text-anchor: end" x="47.295938" y="139.874535" transform="rotate(-0 47.295938 139.874535)">800</text>
     </g>
    </g>
    <g id="ytick_5">
     <g id="line2d_15">
      <path d="M 54.295938 102.699455 
L 544.556847 102.699455 
" clip-path="url(#p7d6fcebb23)" style="fill: none; stroke-dasharray: 2.96,1.28; stroke-dashoffset: 0; stroke: #b0b0b0; stroke-opacity: 0.4; stroke-width: 0.8"/>
     </g>
     <g id="line2d_16">
      <g>
       <use xlink:href="#me5f814b98d" x="54.295938" y="102.699455" style="stroke: #000000; stroke-width: 0.8"/>
      </g>
     </g>
     <g id="text_12">
      <text style="font: 10px 'DejaVu Sans'; text-anchor: end" x="47.295938" y="106.498674" transform="rotate(-0 47.295938 106.498674)">1000</text>
     </g>
    </g>
    <g id="ytick_6">
     <g id="line2d_17">
      <path d="M 54.295938 69.323594 
L 544.556847 69.323594 
" clip-path="url(#p7d6fcebb23)" style="fill: none; stroke-dasharray: 2.96,1.28; stroke-dashoffset: 0; stroke: #b0b0b0; stroke-opacity: 0.4; stroke-width: 0.8"/>
     </g>
     <g id="line2d_18">
      <g>
       <use xlink:href="#me5f814b98d" x="54.295938" y="69.323594" style="stroke: #000000; stroke-width: 0.8"/>
      </g>
     </g>
     <g id="text_13">
      <text style="font: 10px 'DejaVu Sans'; text-anchor: end" x="47.295938" y="73.122812" transform="rotate(-0 47.295938 73.122812)">1200</text>
     </g>
    </g>
    <g id="ytick_7">
     <g id="line2d_19">
      <path d="M 54.295938 35.947732 
L 544.556847 35.947732 
" clip-path="url(#p7d6fcebb23)" style="fill: none; stroke-dasharray: 2.96,1.28; stroke-dashoffset: 0; stroke: #b0b0b0; stroke-opacity: 0.4; stroke-width: 0.8"/>
     </g>
     <g id="line2d_20">
      <g>
       <use xlink:href="#me5f814b98d" x="54.295938" y="35.947732" style="stroke: #000000; stroke-width: 0.8"/>
      </g>
     </g>
     <g id="text_14">
      <text style="font: 10px 'DejaVu Sans'; text-anchor: end" x="47.295938" y="39.746951" transform="rotate(-0 47.295938 39.746951)">1400</text>
     </g>
    </g>
    <g id="text_15">
     <text style="font: 11px 'DejaVu Sans'; text-anchor: middle" x="15.558281" y="131.538125" transform="rotate(-90 15.558281 131.538125)">Loss</text>
    </g>
   </g>
   <g id="line2d_21">
    <path d="M 76.580524 32.247216 
L 81.082461 39.150319 
L 85.584398 45.866376 
L 90.086334 52.406061 
L 94.588271 58.78013 
L 99.090208 65.001354 
L 103.592145 71.080858 
L 108.094081 77.028031 
L 112.596018 82.851247 
L 117.097955 88.557534 
L 121.599892 94.152431 
L 126.101828 99.640453 
L 130.603765 105.02451 
L 135.105702 110.306326 
L 139.607638 115.485991 
L 144.109575 120.561357 
L 148.611512 125.529021 
L 153.113449 130.384563 
L 157.615385 135.122483 
L 162.117322 139.736761 
L 166.619259 144.221805 
L 171.121195 148.570364 
L 175.623132 152.774176 
L 180.125069 156.82541 
L 184.627006 160.716772 
L 189.128942 164.439248 
L 193.630879 167.986044 
L 198.132816 171.350133 
L 202.634753 174.526422 
L 207.136689 177.511243 
L 211.638626 180.302183 
L 216.140563 182.897674 
L 220.642499 185.299421 
L 225.144436 187.510541 
L 229.646373 189.536525 
L 234.14831 191.38554 
L 238.650246 193.067544 
L 243.152183 194.594234 
L 247.65412 195.978688 
L 252.156056 197.235437 
L 256.657993 198.380135 
L 261.15993 199.42911 
L 265.661867 200.398194 
L 270.163803 201.301572 
L 274.66574 202.152846 
L 279.167677 202.963581 
L 283.669614 203.744616 
L 288.17155 204.504867 
L 292.673487 205.251867 
L 297.175424 205.991391 
L 301.67736 206.727304 
L 306.179297 207.462305 
L 310.681234 208.197647 
L 315.183171 208.932654 
L 319.685107 209.664951 
L 324.187044 210.391855 
L 328.688981 211.110259 
L 333.190917 211.816079 
L 337.692854 212.506595 
L 342.194791 213.179546 
L 346.696728 213.833282 
L 351.198664 214.467966 
L 355.700601 215.084576 
L 360.202538 215.684472 
L 364.704475 216.270485 
L 369.206411 216.844754 
L 373.708348 217.410732 
L 378.210285 217.971296 
L 382.712221 218.527287 
L 387.214158 219.079632 
L 391.716095 219.628315 
L 396.218032 220.172231 
L 400.719968 220.708915 
L 405.221905 221.235475 
L 409.723842 221.749451 
L 414.225778 222.247848 
L 418.727715 222.729215 
L 423.229652 223.19261 
L 427.731589 223.638501 
L 432.233525 224.068446 
L 436.735462 224.484081 
L 441.237399 224.887656 
L 445.739336 225.281285 
L 450.241272 225.667463 
L 454.743209 226.047128 
L 459.245146 226.421338 
L 463.747082 226.790247 
L 468.249019 227.153231 
L 472.750956 227.509232 
L 477.252893 227.857495 
L 481.754829 228.197324 
L 486.256766 228.528396 
L 490.758703 228.850385 
L 495.260639 229.16323 
L 499.762576 229.46643 
L 504.264513 229.759811 
L 508.76645 230.042988 
L 513.268386 230.315685 
L 517.770323 230.577781 
L 522.27226 230.829034 
" clip-path="url(#p7d6fcebb23)" style="fill: none; stroke: #2166ac; stroke-width: 2; stroke-linecap: square"/>
   </g>
   <g id="patch_3">
    <path d="M 54.295938 240.758125 
L 54.295938 22.318125 
" style="fill: none; stroke: #000000; stroke-width: 0.8; stroke-linejoin: miter; stroke-linecap: square"/>
   </g>
   <g id="patch_4">
    <path d="M 54.295938 240.758125 
L 544.556847 240.758125 
" style="fill: none; stroke: #000000; stroke-width: 0.8; stroke-linejoin: miter; stroke-linecap: square"/>
   </g>
   <g id="PathCollection_1">
    <defs>
     <path id="mf2d2d43286" d="M 0 2.738613 
C 0.726289 2.738613 1.422928 2.450055 1.936492 1.936492 
C 2.450055 1.422928 2.738613 0.726289 2.738613 0 
C 2.738613 -0.726289 2.450055 -1.422928 1.936492 -1.936492 
C 1.422928 -2.450055 0.726289 -2.738613 0 -2.738613 
C -0.726289 -2.738613 -1.422928 -2.450055 -1.936492 -1.936492 
C -2.450055 -1.422928 -2.738613 -0.726289 -2.738613 0 
C -2.738613 0.726289 -2.450055 1.422928 -1.936492 1.936492 
C -1.422928 2.450055 -0.726289 2.738613 0 2.738613 
z
" style="stroke: #ffffff; stroke-width: 0.8"/>
    </defs>
    <g clip-path="url(#p7d6fcebb23)">
     <use xlink:href="#mf2d2d43286" x="76.580524" y="32.247216" style="fill: #2166ac; stroke: #ffffff; stroke-width: 0.8"/>
     <use xlink:href="#mf2d2d43286" x="99.090208" y="65.001354" style="fill: #2166ac; stroke: #ffffff; stroke-width: 0.8"/>
     <use xlink:href="#mf2d2d43286" x="121.599892" y="94.152431" style="fill: #2166ac; stroke: #ffffff; stroke-width: 0.8"/>
     <use xlink:href="#mf2d2d43286" x="144.109575" y="120.561357" style="fill: #2166ac; stroke: #ffffff; stroke-width: 0.8"/>
     <use xlink:href="#mf2d2d43286" x="166.619259" y="144.221805" style="fill: #2166ac; stroke: #ffffff; stroke-width: 0.8"/>
     <use xlink:href="#mf2d2d43286" x="189.128942" y="164.439248" style="fill: #2166ac; stroke: #ffffff; stroke-width: 0.8"/>
     <use xlink:href="#mf2d2d43286" x="211.638626" y="180.302183" style="fill: #2166ac; stroke: #ffffff; stroke-width: 0.8"/>
     <use xlink:href="#mf2d2d43286" x="234.14831" y="191.38554" style="fill: #2166ac; stroke: #ffffff; stroke-width: 0.8"/>
     <use xlink:href="#mf2d2d43286" x="256.657993" y="198.380135" style="fill: #2166ac; stroke: #ffffff; stroke-width: 0.8"/>
     <use xlink:href="#mf2d2d43286" x="279.167677" y="202.963581" style="fill: #2166ac; stroke: #ffffff; stroke-width: 0.8"/>
     <use xlink:href="#mf2d2d43286" x="301.67736" y="206.727304" style="fill: #2166ac; stroke: #ffffff; stroke-width: 0.8"/>
     <use xlink:href="#mf2d2d43286" x="324.187044" y="210.391855" style="fill: #2166ac; stroke: #ffffff; stroke-width: 0.8"/>
     <use xlink:href="#mf2d2d43286" x="346.696728" y="213.833282" style="fill: #2166ac; stroke: #ffffff; stroke-width: 0.8"/>
     <use xlink:href="#mf2d2d43286" x="369.206411" y="216.844754" style="fill: #2166ac; stroke: #ffffff; stroke-width: 0.8"/>
     <use xlink:href="#mf2d2d43286" x="391.716095" y="219.628315" style="fill: #2166ac; stroke: #ffffff; stroke-width: 0.8"/>
     <use xlink:href="#mf2d2d43286" x="414.225778" y="222.247848" style="fill: #2166ac; stroke: #ffffff; stroke-width: 0.8"/>
     <use xlink:href="#mf2d2d43286" x="436.735462" y="224.484081" style="fill: #2166ac; stroke: #ffffff; stroke-width: 0.8"/>
     <use xlink:href="#mf2d2d43286" x="459.245146" y="226.421338" style="fill: #2166ac; stroke: #ffffff; stroke-width: 0.8"/>
     <use xlink:href="#mf2d2d43286" x="481.754829" y="228.197324" style="fill: #2166ac; stroke: #ffffff; stroke-width: 0.8"/>
     <use xlink:href="#mf2d2d43286" x="504.264513" y="229.759811" style="fill: #2166ac; stroke: #ffffff; stroke-width: 0.8"/>
    </g>
   </g>
   <g id="patch_5">
    <path d="M 526.481221 232.938573 
Q 525.270734 232.331874 524.859862 232.125945 
" style="fill: none; stroke: #d7191c; stroke-width: 0.8; stroke-linecap: round"/>
    <path d="M 527.003736 234.990173 
L 524.859862 232.125945 
L 528.437569 232.129382 
" style="fill: none; stroke: #d7191c; stroke-width: 0.8; stroke-linecap: round"/>
   </g>
   <g id="text_16">
    <text style="fill: #d7191c; font: 8px 'DejaVu Sans'" transform="translate(530.27226 239.870784)">best</text>
    <text style="fill: #d7191c; font: 8px 'DejaVu Sans'" transform="translate(530.27226 248.829034)">(232.2)</text>
   </g>
   <g id="text_17">
    <text style="font: 700 12px 'DejaVu Sans'; text-anchor: middle" x="299.426392" y="16.318125" transform="rotate(-0 299.426392 16.318125)">Training loss — stgcn</text>
   </g>
   <g id="PathCollection_2">
    <defs>
     <path id="m033f3141a8" d="M 0 5.477226 
C 1.452577 5.477226 2.845856 4.900111 3.872983 3.872983 
C 4.900111 2.845856 5.477226 1.452577 5.477226 0 
C 5.477226 -1.452577 4.900111 -2.845856 3.872983 -3.872983 
C 2.845856 -4.900111 1.452577 -5.477226 0 -5.477226 
C -1.452577 -5.477226 -2.845856 -4.900111 -3.872983 -3.872983 
C -4.900111 -2.845856 -5.477226 -1.452577 -5.477226 0 
C -5.477226 1.452577 -4.900111 2.845856 -3.872983 3.872983 
C -2.845856 4.900111 -1.452577 5.477226 0 5.477226 
z
" style="stroke: #ffffff; stroke-width: 1.2"/>
    </defs>
    <g clip-path="url(#p7d6fcebb23)">
     <use xlink:href="#m033f3141a8" x="522.27226" y="230.829034" style="fill: #d7191c; stroke: #ffffff; stroke-width: 1.2"/>
    </g>
   </g>
  </g>
 </g>
 <defs>
  <clipPath id="p7d6fcebb23">
   <rect x="54.295938" y="22.318125" width="490.260909" height="218.44"/>
  </clipPath>
 </defs>
</svg>
