<?xml version="1.0" encoding="utf-8" standalone="no"?>
<!DOCTYPE svg PUBLIC "-//W3C//DTD SVG 1.1//EN"
  "http://www.w3.org/Graphics/SVG/1.1/DTD/svg11.dtd">
<svg xmlns:xlink="http://www.w3.org/1999/xlink" width="566.54476pt" height="279.282188pt" viewBox="0 0 566.54476 279.282188" xmlns="http://www.w3.org/2000/svg" version="1.1">
 <metadata>
  <rdf:RDF xmlns:dc="http://purl.org/dc/elements/1.1/" xmlns:cc="http://creativecommons.org/ns#" xmlns:rdf="http://www.w3.org/1999/02/22-rdf-syntax-ns#">
   <cc:Work>
    <dc:type rdf:resource="http://purl.org/dc/dcmitype/StillImage"/>
    <dc:date>2026-06-30T18:36:59.640834</dc:date>
    <dc:format>image/svg+xml</dc:format>
    <dc:creator>
     <cc:Agent>
      <dc:title>Matplotlib v3.9.4, https://matplotlib.org/</dc:title>
     </cc:Agent>
    </dc:creator>
   </cc:Work>
  </rdf:RDF>
 </metadata>
 <defs>
  <style type="text/css">*{stroke-linejoin: round; stroke-linecap: butt}</style>
 </defs>
 <g id="figure_1">
  <g id="patch_1">
   <path d="M 0 279.282188 
L 566.54476 279.282188 
L 566.54476 0 
L 0 0 
z
" style="fill: #ffffff"/>
  </g>
  <g id="axes_1">
   <g id="patch_2">
    <path d="M 54.295938 240.758125 
L 552.476847 240.758125 
L 552.476847 22.318125 
L 54.295938 22.318125 
z
" style="fill: #ffffff"/>
   </g>
   <g id="matplotlib.axis_1">
    <g id="xtick_1">
     <g id="line2d_1">
      <defs>
       <path id="m6e41199ec3" d="M 0 0 
L 0 3.5 
" style="stroke: #000000; stroke-width: 0.8"/>
      </defs>
      <g>
       <use xlink:href="#m6e41199ec3" x="72.36586" y="240.758125" style="stroke: #000000; stroke-width: 0.8"/>
      </g>
     </g>
     <g id="text_1">
      <text style="font: 10px 'DejaVu Sans'; text-anchor: middle" x="72.36586" y="255.356563" transform="rotate(-0 72.36586 255.356563)">0</text>
     </g>
    </g>
    <g id="xtick_2">
     <g id="line2d_2">
      <g>
       <use xlink:href="#m6e41199ec3" x="163.85914" y="240.758125" style="stroke: #000000; stroke-width: 0.8"/>
      </g>
     </g>
     <g id="text_2">
      <text style="font: 10px 'DejaVu Sans'; text-anchor: middle" x="163.85914" y="255.356563" transform="rotate(-0 163.85914 255.356563)">20</text>
     </g>
    </g>
    <g id="xtick_3">
     <g id="line2d_3">
      <g>
       <use xlink:href="#m6e41199ec3" x="255.35242" y="240.758125" style="stroke: #000000; stroke-width: 0.8"/>
      </g>
     </g>
     <g id="text_3">
      <text style="font: 10px 'DejaVu Sans'; text-anchor: middle" x="255.35242" y="255.356563" transform="rotate(-0 255.35242 255.356563)">40</text>
     </g>
    </g>
    <g id="xtick_4">
     <g id="line2d_4">
      <g>
       <use xlink:href="#m6e41199ec3" x="346.8457" y="240.758125" style="stroke: #000000; stroke-width: 0.8"/>
      </g>
     </g>
     <g id="text_4">
      <text style="font: 10px 'DejaVu Sans'; text-anchor: middle" x="346.8457" y="255.356563" transform="rotate(-0 346.8457 255.356563)">60</text>
     </g>
    </g>
    <g id="xtick_5">
     <g id="line2d_5">
      <g>
       <use xlink:href="#m6e41199ec3" x="438.33898" y="240.758125" style="stroke: #000000; stroke-width: 0.8"/>
      </g>
     </g>
     <g id="text_5">
      <text style="font: 10px 'DejaVu Sans'; text-anchor: middle" x="438.33898" y="255.356563" transform="rotate(-0 438.33898 255.356563)">80</text>
     </g>
    </g>
    <g id="xtick_6">
     <g id="line2d_6">
      <g>
       <use xlink:href="#m6e41199ec3" x="529.83226" y="240.758125" style="stroke: #000000; stroke-width: 0.8"/>
      </g>
     </g>
     <g id="text_6">
      <text style="font: 10px 'DejaVu Sans'; text-anchor: middle" x="529.83226" y="255.356563" transform="rotate(-0 529.83226 255.356563)">100</text>
     </g>
    </g>
    <g id="text_7">
     <text style="font: 11px 'DejaVu Sans'; text-anchor: middle" x="303.386392" y="269.794531" transform="rotate(-0 303.386392 269.794531)">Epoch</text>
    </g>
   </g>
   <g id="matplotlib.axis_2">
    <g id="ytick_1">
     <g id="line2d_7">
      <path d="M 54.295938 223.763472 
L 552.476847 223.763472 
" clip-path="url(#p026ad1217c)" style="fill: none; stroke-dasharray: 2.96,1.28; stroke-dashoffset: 0; stroke: #b0b0b0; stroke-opacity: 0.4; stroke-width: 0.8"/>
     </g>
     <g id="line2d_8">
      <defs>
       <path id="mfc8ca9d2d3" d="M 0 0 
L -3.5 0 
" style="stroke: #000000; stroke-width: 0.8"/>
      </defs>
      <g>
       <use xlink:href="#mfc8ca9d2d3" x="54.295938" y="223.763472" style="stroke: #000000; stroke-width: 0.8"/>
      </g>
     </g>
     <g id="text_8">
      <text style="font: 10px 'DejaVu Sans'; text-anchor: end" x="47.295938" y="227.562691" transform="rotate(-0 47.295938 227.562691)">200</text>
     </g>
    </g>
    <g id="ytick_2">
     <g id="line2d_9">
      <path d="M 54.295938 187.505662 
L 552.476847 187.505662 
" clip-path="url(#p026ad1217c)" style="fill: none; stroke-dasharray: 2.96,1.28; stroke-dashoffset: 0; stroke: #b0b0b0; stroke-opacity: 0.4; stroke-width: 0.8"/>
     </g>
     <g id="line2d_10">
      <g>
       <use xlink:href="#mfc8ca9d2d3" x="54.295938" y="187.505662" style="stroke: #000000; stroke-width: 0.8"/>
      </g>
     </g>
     <g id="text_9">
      <text style="font: 10px 'DejaVu Sans'; text-anchor: end" x="47.295938" y="191.304881" transform="rotate(-0 47.295938 191.304881)">400</text>
     </g>
    </g>
    <g id="ytick_3">
     <g id="line2d_11">
      <path d="M 54.295938 151.247853 
L 552.476847 151.247853 
" clip-path="url(#p026ad1217c)" style="fill: none; stroke-dasharray: 2.96,1.28; stroke-dashoffset: 0; stroke: #b0b0b0; stroke-opacity: 0.4; stroke-width: 0.8"/>
     </g>
     <g id="line2d_12">
      <g>
       <use xlink:href="#mfc8ca9d2d3" x="54.295938" y="151.247853" style="stroke: #000000; stroke-width: 0.8"/>
      </g>
     </g>
     <g id="text_10">
      <text style="font: 10px 'DejaVu Sans'; text-anchor: end" x="47.295938" y="155.047071" transform="rotate(-0 47.295938 155.047071)">600</text>
     </g>
    </g>
    <g id="ytick_4">
     <g id="line2d_13">
      <path d="M 54.295938 114.990043 
L 552.476847 114.990043 
" clip-path="url(#p026ad1217c)" style="fill: none; stroke-dasharray: 2.96,1.28; stroke-dashoffset: 0; stroke: #b0b0b0; stroke-opacity: 0.4; stroke-width: 0.8"/>
     </g>
     <g id="line2d_14">
      <g>
       <use xlink:href="#mfc8ca9d2d3" x="54.295938" y="114.990043" style="stroke: #000000; stroke-width: 0.8"/>
      </g>
     </g>
     <g id="text_11">
      <text style="font: 10px 'DejaVu Sans'; text-anchor: end" x="47.295938" y="118.789262" transform="rotate(-0 47.295938 118.789262)">800</text>
     </g>
    </g>
    <g id="ytick_5">
     <g id="line2d_15">
      <path d="M 54.295938 78.732233 
L 552.476847 78.732233 
" clip-path="url(#p026ad1217c)" style="fill: none; stroke-dasharray: 2.96,1.28; stroke-dashoffset: 0; stroke: #b0b0b0; stroke-opacity: 0.4; stroke-width: 0.8"/>
     </g>
     <g id="line2d_16">
      <g>
       <use xlink:href="#mfc8ca9d2d3" x="54.295938" y="78.732233" style="stroke: #000000; stroke-width: 0.8"/>
      </g>
     </g>
     <g id="text_12">
      <text style="font: 10px 'DejaVu Sans'; text-anchor: end" x="47.295938" y="82.531452" transform="rotate(-0 47.295938 82.531452)">1000</text>
     </g>
    </g>
    <g id="ytick_6">
     <g id="line2d_17">
      <path d="M 54.295938 42.474423 
L 552.476847 42.474423 
" clip-path="url(#p026ad1217c)" style="fill: none; stroke-dasharray: 2.96,1.28; stroke-dashoffset: 0; stroke: #b0b0b0; stroke-opacity: 0.4; stroke-width: 0.8"/>
     </g>
     <g id="line2d_18">
      <g>
       <use xlink:href="#mfc8ca9d2d3" x="54.295938" y="42.474423" style="stroke: #000000; stroke-width: 0.8"/>
      </g>
     </g>
     <g id="text_13">
      <text style="font: 10px 'DejaVu Sans'; text-anchor: end" x="47.295938" y="46.273642" transform="rotate(-0 47.295938 46.273642)">1200</text>
     </g>
    </g>
    <g id="text_14">
     <text style="font: 11px 'DejaVu Sans'; text-anchor: middle" x="15.558281" y="131.538125" transform="rotate(-90 15.558281 131.538125)">Loss</text>
    </g>
   </g>
   <g id="line2d_19">
    <path d="M 76.940524 32.247216 
L 81.515188 39.977295 
L 86.089852 47.489372 
L 90.664516 54.78391 
L 95.23918 61.862349 
L 99.813844 68.727189 
L 104.388508 75.381373 
L 108.963172 81.829306 
L 113.537836 88.075181 
L 118.1125 94.123468 
L 122.687164 99.978106 
L 127.261828 105.642592 
L 131.836492 111.12071 
L 136.411156 116.416034 
L 140.98582 121.531287 
L 145.560484 126.470075 
L 150.135148 131.235241 
L 154.709812 135.830295 
L 159.284476 140.258919 
L 163.85914 144.523416 
L 168.433804 148.625391 
L 173.008468 152.567775 
L 177.583132 156.352726 
L 182.157796 159.983896 
L 186.73246 163.463574 
L 191.307124 166.792703 
L 195.881788 169.973233 
L 200.456452 173.007717 
L 205.031116 175.899523 
L 209.60578 178.651489 
L 214.180444 181.265564 
L 218.755108 183.741912 
L 223.329772 186.082941 
L 227.904436 188.290669 
L 232.4791 190.365568 
L 237.053764 192.309723 
L 241.628428 194.12575 
L 246.203092 195.81661 
L 250.777756 197.386203 
L 255.35242 198.838718 
L 259.927084 200.179343 
L 264.501748 201.414745 
L 269.076412 202.551575 
L 273.651076 203.597079 
L 278.22574 204.559054 
L 282.800404 205.446025 
L 287.375068 206.26691 
L 291.949732 207.030606 
L 296.524396 207.745317 
L 301.09906 208.418589 
L 305.673724 209.057588 
L 310.248388 209.668857 
L 314.823052 210.258096 
L 319.397716 210.829836 
L 323.97238 211.387662 
L 328.547044 211.934035 
L 333.121708 212.470577 
L 337.696372 212.99835 
L 342.271036 213.517825 
L 346.8457 214.029327 
L 351.420364 214.533188 
L 355.995028 215.029708 
L 360.569692 215.519648 
L 365.144356 216.0038 
L 369.71902 216.482834 
L 374.293684 216.957537 
L 378.868348 217.428447 
L 383.443012 217.895769 
L 388.017676 218.359359 
L 392.59234 218.819177 
L 397.167004 219.274859 
L 401.741668 219.726095 
L 406.316332 220.172737 
L 410.890996 220.614621 
L 415.46566 221.051685 
L 420.040324 221.483854 
L 424.614988 221.911099 
L 429.189652 222.333572 
L 433.764316 222.751339 
L 438.33898 223.16454 
L 442.913644 223.573378 
L 447.488308 223.97807 
L 452.062972 224.378827 
L 456.637636 224.776006 
L 461.2123 225.169934 
L 465.786964 225.560847 
L 470.361628 225.949046 
L 474.936292 226.334733 
L 479.510956 226.718097 
L 484.08562 227.09958 
L 488.660284 227.479228 
L 493.234948 227.857198 
L 497.809612 228.233651 
L 502.384276 228.608686 
L 506.95894 228.982434 
L 511.533604 229.355275 
L 516.108268 229.726744 
L 520.682932 230.096273 
L 525.257596 230.463806 
L 529.83226 230.829034 
" clip-path="url(#p026ad1217c)" style="fill: none; stroke: #2166ac; stroke-width: 2; stroke-linecap: square"/>
   </g>
   <g id="patch_3">
    <path d="M 54.295938 240.758125 
L 54.295938 22.318125 
" style="fill: none; stroke: #000000; stroke-width: 0.8; stroke-linejoin: miter; stroke-linecap: square"/>
   </g>
   <g id="patch_4">
    <path d="M 54.295938 240.758125 
L 552.476847 240.758125 
" style="fill: none; stroke: #000000; stroke-width: 0.8; stroke-linejoin: miter; stroke-linecap: square"/>
   </g>
   <g id="PathCollection_1">
    <defs>
     <path id="m397ab3a3ae" d="M 0 2.738613 
C 0.726289 2.738613 1.422928 2.450055 1.936492 1.936492 
C 2.450055 1.422928 2.738613 0.726289 2.738613 0 
C 2.738613 -0.726289 2.450055 -1.422928 1.936492 -1.936492 
C 1.422928 -2.450055 0.726289 -2.738613 0 -2.738613 
C -0.726289 -2.738613 -1.422928 -2.450055 -1.936492 -1.936492 
C -2.450055 -1.422928 -2.738613 -0.726289 -2.738613 0 
C -2.738613 0.726289 -2.450055 1.422928 -1.936492 1.936492 
C -1.422928 2.450055 -0.726289 2.738613 0 2.738613 
z
" style="stroke: #ffffff; stroke-width: 0.8"/>
    </defs>
    <g clip-path="url(#p026ad1217c)">
     <use xlink:href="#m397ab3a3ae" x="76.940524" y="32.247216" style="fill: #2166ac; stroke: #ffffff; stroke-width: 0.8"/>
     <use xlink:href="#m397ab3a3ae" x="99.813844" y="68.727189" style="fill: #2166ac; stroke: #ffffff; stroke-width: 0.8"/>
     <use xlink:href="#m397ab3a3ae" x="122.687164" y="99.978106" style="fill: #2166ac; stroke: #ffffff; stroke-width: 0.8"/>
     <use xlink:href="#m397ab3a3ae" x="145.560484" y="126.470075" style="fill: #2166ac; stroke: #ffffff; stroke-width: 0.8"/>
     <use xlink:href="#m397ab3a3ae" x="168.433804" y="148.625391" style="fill: #2166ac; stroke: #ffffff; stroke-width: 0.8"/>
     <use xlink:href="#m397ab3a3ae" x="191.307124" y="166.792703" style="fill: #2166ac; stroke: #ffffff; stroke-width: 0.8"/>
     <use xlink:href="#m397ab3a3ae" x="214.180444" y="181.265564" style="fill: #2166ac; stroke: #ffffff; stroke-width: 0.8"/>
     <use xlink:href="#m397ab3a3ae" x="237.053764" y="192.309723" style="fill: #2166ac; stroke: #ffffff; stroke-width: 0.8"/>
     <use xlink:href="#m397ab3a3ae" x="259.927084" y="200.179343" style="fill: #2166ac; stroke: #ffffff; stroke-width: 0.8"/>
     <use xlink:href="#m397ab3a3ae" x="282.800404" y="205.446025" style="fill: #2166ac; stroke: #ffffff; stroke-width: 0.8"/>
     <use xlink:href="#m397ab3a3ae" x="305.673724" y="209.057588" style="fill: #2166ac; stroke: #ffffff; stroke-width: 0.8"/>
     <use xlink:href="#m397ab3a3ae" x="328.547044" y="211.934035" style="fill: #2166ac; stroke: #ffffff; stroke-width: 0.8"/>
     <use xlink:href="#m397ab3a3ae" x="351.420364" y="214.533188" style="fill: #2166ac; stroke: #ffffff; stroke-width: 0.8"/>
     <use xlink:href="#m397ab3a3ae" x="374.293684" y="216.957537" style="fill: #2166ac; stroke: #ffffff; stroke-width: 0.8"/>
     <use xlink:href="#m397ab3a3ae" x="397.167004" y="219.274859" style="fill: #2166ac; stroke: #ffffff; stroke-width: 0.8"/>
     <use xlink:href="#m397ab3a3ae" x="420.040324" y="221.483854" style="fill: #2166ac; stroke: #ffffff; stroke-width: 0.8"/>
     <use xlink:href="#m397ab3a3ae" x="442.913644" y="223.573378" style="fill: #2166ac; stroke: #ffffff; stroke-width: 0.8"/>
     <use xlink:href="#m397ab3a3ae" x="465.786964" y="225.560847" style="fill: #2166ac; stroke: #ffffff; stroke-width: 0.8"/>
     <use xlink:href="#m397ab3a3ae" x="488.660284" y="227.479228" style="fill: #2166ac; stroke: #ffffff; stroke-width: 0.8"/>
     <use xlink:href="#m397ab3a3ae" x="511.533604" y="229.355275" style="fill: #2166ac; stroke: #ffffff; stroke-width: 0.8"/>
    </g>
   </g>
   <g id="patch_5">
    <path d="M 534.119102 233.414767 
Q 532.831793 232.638289 532.310374 232.32378 
" style="fill: none; stroke: #d7191c; stroke-width: 0.8; stroke-linecap: round"/>
    <path d="M 534.224107 235.34663 
L 532.310374 232.32378 
L 535.876894 232.606503 
" style="fill: none; stroke: #d7191c; stroke-width: 0.8; stroke-linecap: round"/>
   </g>
   <g id="text_15">
    <text style="fill: #d7191c; font: 8px 'DejaVu Sans'" transform="translate(537.83226 239.870784)">best</text>
    <text style="fill: #d7191c; font: 8px 'DejaVu Sans'" transform="translate(537.83226 248.829034)">(161)</text>
   </g>
   <g id="text_16">
    <text style="font: 700 12px 'DejaVu Sans'; text-anchor: middle" x="303.386392" y="16.318125" transform="rotate(-0 303.386392 16.318125)">Training loss — ignnk</text>
   </g>
   <g id="PathCollection_2">
    <defs>
     <path id="m871bf31009" d="M 0 5.477226 
C 1.452577 5.477226 2.845856 4.900111 3.872983 3.872983 
C 4.900111 2.845856 5.477226 1.452577 5.477226 0 
C 5.477226 -1.452577 4.900111 -2.845856 3.872983 -3.872983 
C 2.845856 -4.900111 1.452577 -5.477226 0 -5.477226 
C -1.452577 -5.477226 -2.845856 -4.900111 -3.872983 -3.872983 
C -4.900111 -2.845856 -5.477226 -1.452577 -5.477226 0 
C -5.477226 1.452577 -4.900111 2.845856 -3.872983 3.872983 
C -2.845856 4.900111 -1.452577 5.477226 0 5.477226 
z
" style="stroke: #ffffff; stroke-width: 1.2"/>
    </defs>
    <g clip-path="url(#p026ad1217c)">
     <use xlink:href="#m871bf31009" x="529.83226" y="230.829034" style="fill: #d7191c; stroke: #ffffff; stroke-width: 1.2"/>
    </g>
   </g>
  </g>
 </g>
 <defs>
  <clipPath id="p026ad1217c">
   <rect x="54.295938" y="22.318125" width="498.180909" height="218.44"/>
  </clipPath>
 </defs>
</svg>
