<?xml version="1.0" encoding="utf-8" standalone="no"?>
<!DOCTYPE svg PUBLIC "-//W3C//DTD SVG 1.1//EN"
  "http://www.w3.org/Graphics/SVG/1.1/DTD/svg11.dtd">
<svg xmlns:xlink="http://www.w3.org/1999/xlink" width="566.61726pt" height="279.282188pt" viewBox="0 0 566.61726 279.282188" xmlns="http://www.w3.org/2000/svg" version="1.1">
 <metadata>
  <rdf:RDF xmlns:dc="http://purl.org/dc/elements/1.1/" xmlns:cc="http://creativecommons.org/ns#" xmlns:rdf="http://www.w3.org/1999/02/22-rdf-syntax-ns#">
   <cc:Work>
    <dc:type rdf:resource="http://purl.org/dc/dcmitype/StillImage"/>
    <dc:date>2026-06-30T18:34:16.569734</dc:date>
    <dc:format>image/svg+xml</dc:format>
    <dc:creator>
     <cc:Agent>
      <dc:title>Matplotlib v3.9.4, https://matplotlib.org/</dc:title>
     </cc:Agent>
    </dc:creator>
   </cc:Work>
  </rdf:RDF>
 </metadata>
 <defs>
  <style type="text/css">*{stroke-linejoin: round; stroke-linecap: butt}</style>
 </defs>
 <g id="figure_1">
  <g id="patch_1">
   <path d="M 0 279.282188 
L 566.61726 279.282188 
L 566.61726 0 
L 0 0 
z
" style="fill: #ffffff"/>
  </g>
  <g id="axes_1">
   <g id="patch_2">
    <path d="M 54.295938 240.758125 
L 544.556847 240.758125 
L 544.556847 22.318125 
L 54.295938 22.318125 
z
" style="fill: #ffffff"/>
   </g>
   <g id="matplotlib.axis_1">
    <g id="xtick_1">
     <g id="line2d_1">
      <defs>
       <path id="m759f69fdba" d="M 0 0 
L 0 3.5 
" style="stroke: #000000; stroke-width: 0.8"/>
      </defs>
      <g>
       <use xlink:href="#m759f69fdba" x="72.078588" y="240.758125" style="stroke: #000000; stroke-width: 0.8"/>
      </g>
     </g>
     <g id="text_1">
      <text style="font: 10px 'DejaVu Sans'; text-anchor: middle" x="72.078588" y="255.356563" transform="rotate(-0 72.078588 255.356563)">0</text>
     </g>
    </g>
    <g id="xtick_2">
     <g id="line2d_2">
      <g>
       <use xlink:href="#m759f69fdba" x="162.117322" y="240.758125" style="stroke: #000000; stroke-width: 0.8"/>
      </g>
     </g>
     <g id="text_2">
      <text style="font: 10px 'DejaVu Sans'; text-anchor: middle" x="162.117322" y="255.356563" transform="rotate(-0 162.117322 255.356563)">20</text>
     </g>
    </g>
    <g id="xtick_3">
     <g id="line2d_3">
      <g>
       <use xlink:href="#m759f69fdba" x="252.156056" y="240.758125" style="stroke: #000000; stroke-width: 0.8"/>
      </g>
     </g>
     <g id="text_3">
      <text style="font: 10px 'DejaVu Sans'; text-anchor: middle" x="252.156056" y="255.356563" transform="rotate(-0 252.156056 255.356563)">40</text>
     </g>
    </g>
    <g id="xtick_4">
     <g id="line2d_4">
      <g>
       <use xlink:href="#m759f69fdba" x="342.194791" y="240.758125" style="stroke: #000000; stroke-width: 0.8"/>
      </g>
     </g>
     <g id="text_4">
      <text style="font: 10px 'DejaVu Sans'; text-anchor: middle" x="342.194791" y="255.356563" transform="rotate(-0 342.194791 255.356563)">60</text>
     </g>
    </g>
    <g id="xtick_5">
     <g id="line2d_5">
      <g>
       <use xlink:href="#m759f69fdba" x="432.233525" y="240.758125" style="stroke: #000000; stroke-width: 0.8"/>
      </g>
     </g>
     <g id="text_5">
      <text style="font: 10px 'DejaVu Sans'; text-anchor: middle" x="432.233525" y="255.356563" transform="rotate(-0 432.233525 255.356563)">80</text>
     </g>
    </g>
    <g id="xtick_6">
     <g id="line2d_6">
      <g>
       <use xlink:href="#m759f69fdba" x="522.27226" y="240.758125" style="stroke: #000000; stroke-width: 0.8"/>
      </g>
     </g>
     <g id="text_6">
      <text style="font: 10px 'DejaVu Sans'; text-anchor: middle" x="522.27226" y="255.356563" transform="rotate(-0 522.27226 255.356563)">100</text>
     </g>
    </g>
    <g id="text_7">
     <text style="font: 11px 'DejaVu Sans'; text-anchor: middle" x="299.426392" y="269.794531" transform="rotate(-0 299.426392 269.794531)">Epoch</text>
    </g>
   </g>
   <g id="matplotlib.axis_2">
    <g id="ytick_1">
     <g id="line2d_7">
      <path d="M 54.295938 226.38195 
L 544.556847 226.38195 
" clip-path="url(#p71305d9f02)" style="fill: none; stroke-dasharray: 2.96,1.28; stroke-dashoffset: 0; stroke: #b0b0b0; stroke-opacity: 0.4; stroke-width: 0.8"/>
     </g>
     <g id="line2d_8">
      <defs>
       <path id="mea110ce9ed" d="M 0 0 
L -3.5 0 
" style="stroke: #000000; stroke-width: 0.8"/>
      </defs>
      <g>
       <use xlink:href="#mea110ce9ed" x="54.295938" y="226.38195" style="stroke: #000000; stroke-width: 0.8"/>
      </g>
     </g>
     <g id="text_8">
      <text style="font: 10px 'DejaVu Sans'; text-anchor: end" x="47.295938" y="230.181168" transform="rotate(-0 47.295938 230.181168)">400</text>
     </g>
    </g>
    <g id="ytick_2">
     <g id="line2d_9">
      <path d="M 54.295938 191.20713 
L 544.556847 191.20713 
" clip-path="url(#p71305d9f02)" style="fill: none; stroke-dasharray: 2.96,1.28; stroke-dashoffset: 0; stroke: #b0b0b0; stroke-opacity: 0.4; stroke-width: 0.8"/>
     </g>
     <g id="line2d_10">
      <g>
       <use xlink:href="#mea110ce9ed" x="54.295938" y="191.20713" style="stroke: #000000; stroke-width: 0.8"/>
      </g>
     </g>
     <g id="text_9">
      <text style="font: 10px 'DejaVu Sans'; text-anchor: end" x="47.295938" y="195.006349" transform="rotate(-0 47.295938 195.006349)">600</text>
     </g>
    </g>
    <g id="ytick_3">
     <g id="line2d_11">
      <path d="M 54.295938 156.03231 
L 544.556847 156.03231 
" clip-path="url(#p71305d9f02)" style="fill: none; stroke-dasharray: 2.96,1.28; stroke-dashoffset: 0; stroke: #b0b0b0; stroke-opacity: 0.4; stroke-width: 0.8"/>
     </g>
     <g id="line2d_12">
      <g>
       <use xlink:href="#mea110ce9ed" x="54.295938" y="156.03231" style="stroke: #000000; stroke-width: 0.8"/>
      </g>
     </g>
     <g id="text_10">
      <text style="font: 10px 'DejaVu Sans'; text-anchor: end" x="47.295938" y="159.831529" transform="rotate(-0 47.295938 159.831529)">800</text>
     </g>
    </g>
    <g id="ytick_4">
     <g id="line2d_13">
      <path d="M 54.295938 120.85749 
L 544.556847 120.85749 
" clip-path="url(#p71305d9f02)" style="fill: none; stroke-dasharray: 2.96,1.28; stroke-dashoffset: 0; stroke: #b0b0b0; stroke-opacity: 0.4; stroke-width: 0.8"/>
     </g>
     <g id="line2d_14">
      <g>
       <use xlink:href="#mea110ce9ed" x="54.295938" y="120.85749" style="stroke: #000000; stroke-width: 0.8"/>
      </g>
     </g>
     <g id="text_11">
      <text style="font: 10px 'DejaVu Sans'; text-anchor: end" x="47.295938" y="124.656709" transform="rotate(-0 47.295938 124.656709)">1000</text>
     </g>
    </g>
    <g id="ytick_5">
     <g id="line2d_15">
      <path d="M 54.295938 85.682671 
L 544.556847 85.682671 
" clip-path="url(#p71305d9f02)" style="fill: none; stroke-dasharray: 2.96,1.28; stroke-dashoffset: 0; stroke: #b0b0b0; stroke-opacity: 0.4; stroke-width: 0.8"/>
     </g>
     <g id="line2d_16">
      <g>
       <use xlink:href="#mea110ce9ed" x="54.295938" y="85.682671" style="stroke: #000000; stroke-width: 0.8"/>
      </g>
     </g>
     <g id="text_12">
      <text style="font: 10px 'DejaVu Sans'; text-anchor: end" x="47.295938" y="89.481889" transform="rotate(-0 47.295938 89.481889)">1200</text>
     </g>
    </g>
    <g id="ytick_6">
     <g id="line2d_17">
      <path d="M 54.295938 50.507851 
L 544.556847 50.507851 
" clip-path="url(#p71305d9f02)" style="fill: none; stroke-dasharray: 2.96,1.28; stroke-dashoffset: 0; stroke: #b0b0b0; stroke-opacity: 0.4; stroke-width: 0.8"/>
     </g>
     <g id="line2d_18">
      <g>
       <use xlink:href="#mea110ce9ed" x="54.295938" y="50.507851" style="stroke: #000000; stroke-width: 0.8"/>
      </g>
     </g>
     <g id="text_13">
      <text style="font: 10px 'DejaVu Sans'; text-anchor: end" x="47.295938" y="54.30707" transform="rotate(-0 47.295938 54.30707)">1400</text>
     </g>
    </g>
    <g id="text_14">
     <text style="font: 11px 'DejaVu Sans'; text-anchor: middle" x="15.558281" y="131.538125" transform="rotate(-90 15.558281 131.538125)">Loss</text>
    </g>
   </g>
   <g id="line2d_19">
    <path d="M 76.580524 32.247216 
L 81.082461 40.124516 
L 85.584398 47.702217 
L 90.086334 54.99322 
L 94.588271 62.013628 
L 99.090208 68.779392 
L 103.592145 75.305991 
L 108.094081 81.608283 
L 112.596018 87.702045 
L 117.097955 93.603532 
L 121.599892 99.329165 
L 126.101828 104.894425 
L 130.603765 110.313868 
L 135.105702 115.600976 
L 139.607638 120.767524 
L 144.109575 125.823862 
L 148.611512 130.778501 
L 153.113449 135.638203 
L 157.615385 140.407285 
L 162.117322 145.088291 
L 166.619259 149.682315 
L 171.121195 154.188316 
L 175.623132 158.603642 
L 180.125069 162.924773 
L 184.627006 167.145076 
L 189.128942 171.256455 
L 193.630879 175.249754 
L 198.132816 179.113757 
L 202.634753 182.835709 
L 207.136689 186.403461 
L 211.638626 189.804044 
L 216.140563 193.023848 
L 220.642499 196.048906 
L 225.144436 198.866466 
L 229.646373 201.464914 
L 234.14831 203.834931 
L 238.650246 205.969583 
L 243.152183 207.865447 
L 247.65412 209.524545 
L 252.156056 210.952974 
L 256.657993 212.162925 
L 261.15993 213.172693 
L 265.661867 214.006243 
L 270.163803 214.693809 
L 274.66574 215.269002 
L 279.167677 215.765236 
L 283.669614 216.214652 
L 288.17155 216.646866 
L 292.673487 217.085172 
L 297.175424 217.544856 
L 301.67736 218.034311 
L 306.179297 218.553582 
L 310.681234 219.095879 
L 315.183171 219.650112 
L 319.685107 220.203535 
L 324.187044 220.743442 
L 328.688981 221.259225 
L 333.190917 221.743882 
L 337.692854 222.193749 
L 342.194791 222.608799 
L 346.696728 222.991247 
L 351.198664 223.345341 
L 355.700601 223.676823 
L 360.202538 223.991687 
L 364.704475 224.295345 
L 369.206411 224.592282 
L 373.708348 224.885565 
L 378.210285 225.177087 
L 382.712221 225.467279 
L 387.214158 225.755554 
L 391.716095 226.040243 
L 396.218032 226.319018 
L 400.719968 226.589426 
L 405.221905 226.849013 
L 409.723842 227.095488 
L 414.225778 227.327267 
L 418.727715 227.543734 
L 423.229652 227.744968 
L 427.731589 227.931921 
L 432.233525 228.106281 
L 436.735462 228.270192 
L 441.237399 228.426062 
L 445.739336 228.576221 
L 450.241272 228.722903 
L 454.743209 228.867674 
L 459.245146 229.011575 
L 463.747082 229.155047 
L 468.249019 229.298042 
L 472.750956 229.440231 
L 477.252893 229.581164 
L 481.754829 229.720101 
L 486.256766 229.856477 
L 490.758703 229.989993 
L 495.260639 230.120181 
L 499.762576 230.246811 
L 504.264513 230.369656 
L 508.76645 230.488906 
L 513.268386 230.604887 
L 517.770323 230.718152 
L 522.27226 230.829034 
" clip-path="url(#p71305d9f02)" style="fill: none; stroke: #2166ac; stroke-width: 2; stroke-linecap: square"/>
   </g>
   <g id="patch_3">
    <path d="M 54.295938 240.758125 
L 54.295938 22.318125 
" style="fill: none; stroke: #000000; stroke-width: 0.8; stroke-linejoin: miter; stroke-linecap: square"/>
   </g>
   <g id="patch_4">
    <path d="M 54.295938 240.758125 
L 544.556847 240.758125 
" style="fill: none; stroke: #000000; stroke-width: 0.8; stroke-linejoin: miter; stroke-linecap: square"/>
   </g>
   <g id="PathCollection_1">
    <defs>
     <path id="mc7df8e9888" d="M 0 2.738613 
C 0.726289 2.738613 1.422928 2.450055 1.936492 1.936492 
C 2.450055 1.422928 2.738613 0.726289 2.738613 0 
C 2.738613 -0.726289 2.450055 -1.422928 1.936492 -1.936492 
C 1.422928 -2.450055 0.726289 -2.738613 0 -2.738613 
C -0.726289 -2.738613 -1.422928 -2.450055 -1.936492 -1.936492 
C -2.450055 -1.422928 -2.738613 -0.726289 -2.738613 0 
C -2.738613 0.726289 -2.450055 1.422928 -1.936492 1.936492 
C -1.422928 2.450055 -0.726289 2.738613 0 2.738613 
z
" style="stroke: #ffffff; stroke-width: 0.8"/>
    </defs>
    <g clip-path="url(#p71305d9f02)">
     <use xlink:href="#mc7df8e9888" x="76.580524" y="32.247216" style="fill: #2166ac; stroke: #ffffff; stroke-width: 0.8"/>
     <use xlink:href="#mc7df8e9888" x="99.090208" y="68.779392" style="fill: #2166ac; stroke: #ffffff; stroke-width: 0.8"/>
     <use xlink:href="#mc7df8e9888" x="121.599892" y="99.329165" style="fill: #2166ac; stroke: #ffffff; stroke-width: 0.8"/>
     <use xlink:href="#mc7df8e9888" x="144.109575" y="125.823862" style="fill: #2166ac; stroke: #ffffff; stroke-width: 0.8"/>
     <use xlink:href="#mc7df8e9888" x="166.619259" y="149.682315" style="fill: #2166ac; stroke: #ffffff; stroke-width: 0.8"/>
     <use xlink:href="#mc7df8e9888" x="189.128942" y="171.256455" style="fill: #2166ac; stroke: #ffffff; stroke-width: 0.8"/>
     <use xlink:href="#mc7df8e9888" x="211.638626" y="189.804044" style="fill: #2166ac; stroke: #ffffff; stroke-width: 0.8"/>
     <use xlink:href="#mc7df8e9888" x="234.14831" y="203.834931" style="fill: #2166ac; stroke: #ffffff; stroke-width: 0.8"/>
     <use xlink:href="#mc7df8e9888" x="256.657993" y="212.162925" style="fill: #2166ac; stroke: #ffffff; stroke-width: 0.8"/>
     <use xlink:href="#mc7df8e9888" x="279.167677" y="215.765236" style="fill: #2166ac; stroke: #ffffff; stroke-width: 0.8"/>
     <use xlink:href="#mc7df8e9888" x="301.67736" y="218.034311" style="fill: #2166ac; stroke: #ffffff; stroke-width: 0.8"/>
     <use xlink:href="#mc7df8e9888" x="324.187044" y="220.743442" style="fill: #2166ac; stroke: #ffffff; stroke-width: 0.8"/>
     <use xlink:href="#mc7df8e9888" x="346.696728" y="222.991247" style="fill: #2166ac; stroke: #ffffff; stroke-width: 0.8"/>
     <use xlink:href="#mc7df8e9888" x="369.206411" y="224.592282" style="fill: #2166ac; stroke: #ffffff; stroke-width: 0.8"/>
     <use xlink:href="#mc7df8e9888" x="391.716095" y="226.040243" style="fill: #2166ac; stroke: #ffffff; stroke-width: 0.8"/>
     <use xlink:href="#mc7df8e9888" x="414.225778" y="227.327267" style="fill: #2166ac; stroke: #ffffff; stroke-width: 0.8"/>
     <use xlink:href="#mc7df8e9888" x="436.735462" y="228.270192" style="fill: #2166ac; stroke: #ffffff; stroke-width: 0.8"/>
     <use xlink:href="#mc7df8e9888" x="459.245146" y="229.011575" style="fill: #2166ac; stroke: #ffffff; stroke-width: 0.8"/>
     <use xlink:href="#mc7df8e9888" x="481.754829" y="229.720101" style="fill: #2166ac; stroke: #ffffff; stroke-width: 0.8"/>
     <use xlink:href="#mc7df8e9888" x="504.264513" y="230.369656" style="fill: #2166ac; stroke: #ffffff; stroke-width: 0.8"/>
    </g>
   </g>
   <g id="patch_5">
    <path d="M 526.481221 232.938573 
Q 525.270734 232.331874 524.859862 232.125945 
" style="fill: none; stroke: #d7191c; stroke-width: 0.8; stroke-linecap: round"/>
    <path d="M 527.003736 234.990173 
L 524.859862 232.125945 
L 528.437569 232.129382 
" style="fill: none; stroke: #d7191c; stroke-width: 0.8; stroke-linecap: round"/>
   </g>
   <g id="text_15">
    <text style="fill: #d7191c; font: 8px 'DejaVu Sans'" transform="translate(530.27226 239.870784)">best</text>
    <text style="fill: #d7191c; font: 8px 'DejaVu Sans'" transform="translate(530.27226 248.829034)">(374.7)</text>
   </g>
   <g id="text_16">
    <text style="font: 700 12px 'DejaVu Sans'; text-anchor: middle" x="299.426392" y="16.318125" transform="rotate(-0 299.426392 16.318125)">Training loss — stgcn</text>
   </g>
   <g id="PathCollection_2">
    <defs>
     <path id="md331530d2a" d="M 0 5.477226 
C 1.452577 5.477226 2.845856 4.900111 3.872983 3.872983 
C 4.900111 2.845856 5.477226 1.452577 5.477226 0 
C 5.477226 -1.452577 4.900111 -2.845856 3.872983 -3.872983 
C 2.845856 -4.900111 1.452577 -5.477226 0 -5.477226 
C -1.452577 -5.477226 -2.845856 -4.900111 -3.872983 -3.872983 
C -4.900111 -2.845856 -5.477226 -1.452577 -5.477226 0 
C -5.477226 1.452577 -4.900111 2.845856 -3.872983 3.872983 
C -2.845856 4.900111 -1.452577 5.477226 0 5.477226 
z
" style="stroke: #ffffff; stroke-width: 1.2"/>
    </defs>
    <g clip-path="url(#p71305d9f02)">
     <use xlink:href="#md331530d2a" x="522.27226" y="230.829034" style="fill: #d7191c; stroke: #ffffff; stroke-width: 1.2"/>
    </g>
   </g>
  </g>
 </g>
 <defs>
  <clipPath id="p71305d9f02">
   <rect x="54.295938" y="22.318125" width="490.260909" height="218.44"/>
  </clipPath>
 </defs>
</svg>
